M48
; DRILL file {KiCad (5.1.4)-1} date 2019. 11. 05. 22:12:53
; FORMAT={-:-/ absolute / inch / decimal}
; #@! TF.CreationDate,2019-11-05T22:12:53+01:00
; #@! TF.GenerationSoftware,Kicad,Pcbnew,(5.1.4)-1
; #@! TF.FileFunction,Plated,1,2,PTH
FMAT,2
INCH
T1C0.0157
T2C0.0276
T3C0.0315
T4C0.0394
T5C0.0433
%
G90
G05
T1
X2.45Y-3.55
X2.45Y-3.65
X2.5Y-1.3
X2.5Y-1.7156
X2.5Y-2.9
X2.5Y-4.0
X2.55Y-1.25
X2.55Y-1.7
X2.55Y-2.85
X2.55Y-3.95
X2.6Y-1.2
X2.6Y-1.65
X2.6Y-2.8
X2.6Y-3.9
X2.65Y-1.15
X2.65Y-1.6
X2.65Y-2.75
X2.65Y-3.85
X2.7Y-1.1
X2.7Y-1.55
X2.7Y-2.7
X2.7Y-3.8
X2.75Y-1.05
X2.75Y-1.5
X2.75Y-2.65
X2.75Y-3.75
X2.8Y-1.0
X2.8Y-1.45
X2.8Y-2.6
X2.8Y-3.7
X2.85Y-0.95
X2.85Y-1.4
X2.85Y-2.55
X2.85Y-3.65
X2.95Y-3.6
X3.15Y-2.5
X3.25Y-2.5
X4.275Y-3.65
X4.325Y-3.7
X4.425Y-1.3
X4.425Y-2.5
X4.475Y-1.25
X4.475Y-2.3
X4.525Y-1.2
X4.525Y-2.4
X4.5787Y-1.1537
X4.5787Y-2.4537
X4.625Y-1.1
X4.625Y-2.55
X4.675Y-1.05
X4.725Y-1.0
X4.775Y-2.6
X4.775Y-3.325
X5.1Y-2.7
X5.15Y-2.125
X5.4Y-1.725
X5.425Y-2.825
X5.475Y-2.825
X5.525Y-2.825
X5.575Y-2.825
X5.625Y-2.825
X5.675Y-2.825
X5.85Y-2.8
X5.9Y-2.8
X5.95Y-2.8
X6.0Y-2.8
X6.05Y-2.8
X6.1Y-2.8
T2
X3.825Y-1.7
X4.125Y-1.7
X3.825Y-1.5
X4.125Y-1.5
X3.825Y-3.4
X4.125Y-3.4
X1.05Y-2.7
X1.35Y-2.7
X1.05Y-1.8
X1.35Y-1.8
X3.825Y-1.9
X4.125Y-1.9
X5.775Y-3.675
X5.775Y-3.975
X3.825Y-3.3
X4.125Y-3.3
X1.05Y-3.0
X1.35Y-3.0
X3.825Y-2.8
X4.125Y-2.8
X1.05Y-4.4
X1.35Y-4.4
X3.825Y-1.6
X4.125Y-1.6
X1.05Y-4.1
X1.35Y-4.1
X3.825Y-4.6
X4.125Y-4.6
X4.875Y-4.075
X4.875Y-4.375
X3.825Y-4.2
X4.125Y-4.2
X3.825Y-4.0
X4.125Y-4.0
X5.575Y-3.675
X5.575Y-3.975
X1.05Y-2.8
X1.35Y-2.8
X4.975Y-3.675
X4.975Y-3.975
X1.05Y-1.7
X1.35Y-1.7
X5.875Y-4.075
X5.875Y-4.375
X3.825Y-2.1
X4.125Y-2.1
X1.05Y-2.1
X1.35Y-2.1
X6.875Y-4.075
X6.875Y-4.375
X6.475Y-4.075
X6.475Y-4.375
X6.675Y-4.075
X6.675Y-4.375
X1.05Y-1.9
X1.35Y-1.9
X3.825Y-2.0
X4.125Y-2.0
X1.05Y-4.6
X1.35Y-4.6
X3.825Y-3.0
X4.125Y-3.0
X1.05Y-3.2
X1.35Y-3.2
X3.825Y-2.9
X4.125Y-2.9
X5.975Y-3.675
X5.975Y-3.975
X3.825Y-4.1
X4.125Y-4.1
X3.825Y-2.7
X4.125Y-2.7
X3.825Y-4.4
X4.125Y-4.4
X5.275Y-4.075
X5.275Y-4.375
X3.825Y-3.9
X4.125Y-3.9
X1.05Y-3.1
X1.35Y-3.1
X6.175Y-3.675
X6.175Y-3.975
X5.175Y-3.675
X5.175Y-3.975
X1.05Y-4.3
X1.35Y-4.3
X5.475Y-4.075
X5.475Y-4.375
X4.775Y-3.675
X4.775Y-3.975
X1.05Y-1.5
X1.35Y-1.5
X5.675Y-4.075
X5.675Y-4.375
X6.375Y-3.675
X6.375Y-3.975
X6.575Y-3.675
X6.575Y-3.975
X1.05Y-2.0
X1.35Y-2.0
X3.825Y-1.8
X4.125Y-1.8
X6.275Y-4.075
X6.275Y-4.375
X3.825Y-4.3
X4.125Y-4.3
X1.05Y-2.2
X1.35Y-2.2
X6.775Y-3.675
X6.775Y-3.975
X5.075Y-4.075
X5.075Y-4.375
X1.05Y-3.9
X1.35Y-3.9
X3.825Y-3.1
X4.125Y-3.1
X3.825Y-2.2
X4.125Y-2.2
X1.05Y-4.0
X1.35Y-4.0
X3.825Y-4.5
X4.125Y-4.5
X6.075Y-4.075
X6.075Y-4.375
X3.825Y-3.2
X4.125Y-3.2
X1.05Y-1.6
X1.35Y-1.6
X1.05Y-3.4
X1.35Y-3.4
X5.375Y-3.675
X5.375Y-3.975
X1.05Y-4.2
X1.35Y-4.2
X1.05Y-4.5
X1.35Y-4.5
X1.05Y-3.3
X1.35Y-3.3
X4.675Y-4.075
X4.675Y-4.375
X4.575Y-3.675
X4.575Y-3.975
X1.05Y-2.9
X1.35Y-2.9
T3
X1.925Y-1.4
X1.925Y-1.5
X1.925Y-1.6
X1.925Y-1.7
X1.925Y-1.8
X1.925Y-1.9
X1.925Y-2.0
X1.925Y-2.1
X1.925Y-2.2
X1.925Y-2.3
X2.225Y-1.4
X2.225Y-1.5
X2.225Y-1.6
X2.225Y-1.7
X2.225Y-1.8
X2.225Y-1.9
X2.225Y-2.0
X2.225Y-2.1
X2.225Y-2.2
X2.225Y-2.3
X3.4Y-3.9
X3.4Y-4.0
X3.4Y-4.1
X3.4Y-4.2
X3.4Y-4.3
X3.4Y-4.4
X3.4Y-4.5
X3.4Y-4.6
X3.4Y-4.7
X3.7Y-3.9
X3.7Y-4.0
X3.7Y-4.1
X3.7Y-4.2
X3.7Y-4.3
X3.7Y-4.4
X3.7Y-4.5
X3.7Y-4.6
X3.7Y-4.7
X2.95Y-1.4
X2.95Y-1.5
X2.95Y-1.6
X2.95Y-1.7
X2.95Y-1.8
X2.95Y-1.9
X2.95Y-2.0
X2.95Y-2.1
X2.95Y-2.2
X2.95Y-2.3
X3.25Y-1.4
X3.25Y-1.5
X3.25Y-1.6
X3.25Y-1.7
X3.25Y-1.8
X3.25Y-1.9
X3.25Y-2.0
X3.25Y-2.1
X3.25Y-2.2
X3.25Y-2.3
X1.475Y-2.6
X1.475Y-2.7
X1.475Y-2.8
X1.475Y-2.9
X1.475Y-3.0
X1.475Y-3.1
X1.475Y-3.2
X1.475Y-3.3
X1.475Y-3.4
X1.775Y-2.6
X1.775Y-2.7
X1.775Y-2.8
X1.775Y-2.9
X1.775Y-3.0
X1.775Y-3.1
X1.775Y-3.2
X1.775Y-3.3
X1.775Y-3.4
X5.3Y-3.025
X5.3Y-3.325
X5.4Y-3.025
X5.4Y-3.325
X5.5Y-3.025
X5.5Y-3.325
X5.6Y-3.025
X5.6Y-3.325
X5.7Y-3.025
X5.7Y-3.325
X5.8Y-3.025
X5.8Y-3.325
X5.9Y-3.025
X5.9Y-3.325
X5.275Y-1.05
X5.275Y-1.15
X5.275Y-1.25
X5.275Y-1.35
X5.275Y-1.45
X5.275Y-1.55
X5.275Y-1.65
X5.275Y-1.75
X5.575Y-1.05
X5.575Y-1.15
X5.575Y-1.25
X5.575Y-1.35
X5.575Y-1.45
X5.575Y-1.55
X5.575Y-1.65
X5.575Y-1.75
X2.95Y-3.8
X2.95Y-3.9
X2.95Y-4.0
X2.95Y-4.1
X2.95Y-4.2
X2.95Y-4.3
X2.95Y-4.4
X2.95Y-4.5
X2.95Y-4.6
X2.95Y-4.7
X3.25Y-3.8
X3.25Y-3.9
X3.25Y-4.0
X3.25Y-4.1
X3.25Y-4.2
X3.25Y-4.3
X3.25Y-4.4
X3.25Y-4.5
X3.25Y-4.6
X3.25Y-4.7
X5.275Y-1.975
X5.275Y-2.075
X5.275Y-2.175
X5.275Y-2.275
X5.275Y-2.375
X5.275Y-2.475
X5.275Y-2.575
X5.275Y-2.675
X5.575Y-1.975
X5.575Y-2.075
X5.575Y-2.175
X5.575Y-2.275
X5.575Y-2.375
X5.575Y-2.475
X5.575Y-2.575
X5.575Y-2.675
X1.475Y-3.8
X1.475Y-3.9
X1.475Y-4.0
X1.475Y-4.1
X1.475Y-4.2
X1.475Y-4.3
X1.475Y-4.4
X1.475Y-4.5
X1.475Y-4.6
X1.775Y-3.8
X1.775Y-3.9
X1.775Y-4.0
X1.775Y-4.1
X1.775Y-4.2
X1.775Y-4.3
X1.775Y-4.4
X1.775Y-4.5
X1.775Y-4.6
X3.4Y-1.5
X3.4Y-1.6
X3.4Y-1.7
X3.4Y-1.8
X3.4Y-1.9
X3.4Y-2.0
X3.4Y-2.1
X3.4Y-2.2
X3.4Y-2.3
X3.7Y-1.5
X3.7Y-1.6
X3.7Y-1.7
X3.7Y-1.8
X3.7Y-1.9
X3.7Y-2.0
X3.7Y-2.1
X3.7Y-2.2
X3.7Y-2.3
X1.925Y-2.6
X1.925Y-2.7
X1.925Y-2.8
X1.925Y-2.9
X1.925Y-3.0
X1.925Y-3.1
X1.925Y-3.2
X1.925Y-3.3
X1.925Y-3.4
X1.925Y-3.5
X2.225Y-2.6
X2.225Y-2.7
X2.225Y-2.8
X2.225Y-2.9
X2.225Y-3.0
X2.225Y-3.1
X2.225Y-3.2
X2.225Y-3.3
X2.225Y-3.4
X2.225Y-3.5
X6.15Y-3.025
X6.15Y-3.325
X6.25Y-3.025
X6.25Y-3.325
X6.35Y-3.025
X6.35Y-3.325
X6.45Y-3.025
X6.45Y-3.325
X6.55Y-3.025
X6.55Y-3.325
X6.65Y-3.025
X6.65Y-3.325
X6.75Y-3.025
X6.75Y-3.325
X1.475Y-1.4
X1.475Y-1.5
X1.475Y-1.6
X1.475Y-1.7
X1.475Y-1.8
X1.475Y-1.9
X1.475Y-2.0
X1.475Y-2.1
X1.475Y-2.2
X1.775Y-1.4
X1.775Y-1.5
X1.775Y-1.6
X1.775Y-1.7
X1.775Y-1.8
X1.775Y-1.9
X1.775Y-2.0
X1.775Y-2.1
X1.775Y-2.2
X2.95Y-2.6
X2.95Y-2.7
X2.95Y-2.8
X2.95Y-2.9
X2.95Y-3.0
X2.95Y-3.1
X2.95Y-3.2
X2.95Y-3.3
X2.95Y-3.4
X2.95Y-3.5
X3.25Y-2.6
X3.25Y-2.7
X3.25Y-2.8
X3.25Y-2.9
X3.25Y-3.0
X3.25Y-3.1
X3.25Y-3.2
X3.25Y-3.3
X3.25Y-3.4
X3.25Y-3.5
X3.4Y-2.7
X3.4Y-2.8
X3.4Y-2.9
X3.4Y-3.0
X3.4Y-3.1
X3.4Y-3.2
X3.4Y-3.3
X3.4Y-3.4
X3.4Y-3.5
X3.7Y-2.7
X3.7Y-2.8
X3.7Y-2.9
X3.7Y-3.0
X3.7Y-3.1
X3.7Y-3.2
X3.7Y-3.3
X3.7Y-3.4
X3.7Y-3.5
X1.925Y-3.8
X1.925Y-3.9
X1.925Y-4.0
X1.925Y-4.1
X1.925Y-4.2
X1.925Y-4.3
X1.925Y-4.4
X1.925Y-4.5
X1.925Y-4.6
X1.925Y-4.7
X2.225Y-3.8
X2.225Y-3.9
X2.225Y-4.0
X2.225Y-4.1
X2.225Y-4.2
X2.225Y-4.3
X2.225Y-4.4
X2.225Y-4.5
X2.225Y-4.6
X2.225Y-4.7
T4
X6.125Y-4.625
X6.225Y-4.625
X6.325Y-4.625
X6.425Y-4.625
X6.525Y-4.625
X6.625Y-4.625
X6.725Y-4.625
X6.825Y-4.625
X0.9Y-2.7
X0.9Y-2.8
X0.9Y-2.9
X0.9Y-3.0
X0.9Y-3.1
X0.9Y-3.2
X0.9Y-3.3
X0.9Y-3.4
X6.55Y-2.525
X6.65Y-2.525
X4.9Y-1.4
X4.9Y-1.5
X4.9Y-1.6
X4.9Y-1.7
X4.9Y-1.8
X4.9Y-1.9
X4.9Y-2.0
X4.9Y-2.1
X4.9Y-2.2
X4.9Y-2.3
X4.9Y-2.4
X4.9Y-2.5
X4.9Y-2.6
X4.9Y-2.7
X4.9Y-2.8
X4.9Y-2.9
X4.9Y-3.0
X4.9Y-3.1
X4.9Y-3.2
X4.9Y-3.3
X5.0Y-1.4
X5.0Y-1.5
X5.0Y-1.6
X5.0Y-1.7
X5.0Y-1.8
X5.0Y-1.9
X5.0Y-2.0
X5.0Y-2.1
X5.0Y-2.2
X5.0Y-2.3
X5.0Y-2.4
X5.0Y-2.5
X5.0Y-2.6
X5.0Y-2.7
X5.0Y-2.8
X5.0Y-2.9
X5.0Y-3.0
X5.0Y-3.1
X5.0Y-3.2
X5.0Y-3.3
X4.275Y-2.7
X4.275Y-2.8
X4.275Y-2.9
X4.275Y-3.0
X4.275Y-3.1
X4.275Y-3.2
X4.275Y-3.3
X4.275Y-3.4
X0.9Y-1.5
X0.9Y-1.6
X0.9Y-1.7
X0.9Y-1.8
X0.9Y-1.9
X0.9Y-2.0
X0.9Y-2.1
X0.9Y-2.2
X4.275Y-3.9
X4.275Y-4.0
X4.275Y-4.1
X4.275Y-4.2
X4.275Y-4.3
X4.275Y-4.4
X4.275Y-4.5
X4.275Y-4.6
X0.9Y-3.9
X0.9Y-4.0
X0.9Y-4.1
X0.9Y-4.2
X0.9Y-4.3
X0.9Y-4.4
X0.9Y-4.5
X0.9Y-4.6
X4.575Y-4.625
X4.675Y-4.625
X4.775Y-4.625
X4.875Y-4.625
X4.975Y-4.625
X5.075Y-4.625
X5.175Y-4.625
X5.275Y-4.625
X4.275Y-1.5
X4.275Y-1.6
X4.275Y-1.7
X4.275Y-1.8
X4.275Y-1.9
X4.275Y-2.0
X4.275Y-2.1
X4.275Y-2.2
T5
X5.575Y-4.075
X5.575Y-4.175
X5.575Y-4.275
X6.375Y-4.075
X6.375Y-4.175
X6.375Y-4.275
X6.775Y-4.075
X6.775Y-4.175
X6.775Y-4.275
X5.975Y-4.075
X5.975Y-4.175
X5.975Y-4.275
X5.175Y-4.075
X5.175Y-4.175
X5.175Y-4.275
X4.975Y-4.075
X4.975Y-4.175
X4.975Y-4.275
X6.575Y-4.075
X6.575Y-4.175
X6.575Y-4.275
X4.575Y-4.075
X4.575Y-4.175
X4.575Y-4.275
X5.775Y-4.075
X5.775Y-4.175
X5.775Y-4.275
X6.175Y-4.075
X6.175Y-4.175
X6.175Y-4.275
X5.375Y-4.075
X5.375Y-4.175
X5.375Y-4.275
X4.775Y-4.075
X4.775Y-4.175
X4.775Y-4.275
T0
M30
