G04 #@! TF.GenerationSoftware,KiCad,Pcbnew,(5.1.4)-1*
G04 #@! TF.CreationDate,2019-11-05T22:12:59+01:00*
G04 #@! TF.ProjectId,tablo,7461626c-6f2e-46b6-9963-61645f706362,rev?*
G04 #@! TF.SameCoordinates,Original*
G04 #@! TF.FileFunction,Legend,Top*
G04 #@! TF.FilePolarity,Positive*
%FSLAX46Y46*%
G04 Gerber Fmt 4.6, Leading zero omitted, Abs format (unit mm)*
G04 Created by KiCad (PCBNEW (5.1.4)-1) date 2019-11-05 22:12:59*
%MOMM*%
%LPD*%
G04 APERTURE LIST*
%ADD10C,0.120000*%
%ADD11C,0.150000*%
G04 APERTURE END LIST*
D10*
X123130000Y-34230000D02*
X124460000Y-34230000D01*
X123130000Y-35560000D02*
X123130000Y-34230000D01*
X125730000Y-34230000D02*
X128330000Y-34230000D01*
X125730000Y-36830000D02*
X125730000Y-34230000D01*
X123130000Y-36830000D02*
X125730000Y-36830000D01*
X128330000Y-34230000D02*
X128330000Y-85150000D01*
X123130000Y-36830000D02*
X123130000Y-85150000D01*
X123130000Y-85150000D02*
X128330000Y-85150000D01*
X165040000Y-65465000D02*
X165040000Y-64135000D01*
X166370000Y-65465000D02*
X165040000Y-65465000D01*
X167640000Y-65465000D02*
X167640000Y-62805000D01*
X167640000Y-62805000D02*
X170240000Y-62805000D01*
X167640000Y-65465000D02*
X170240000Y-65465000D01*
X170240000Y-65465000D02*
X170240000Y-62805000D01*
X172780000Y-81645000D02*
G75*
G02X172780000Y-79645000I0J1000000D01*
G01*
X172780000Y-79645000D02*
X172780000Y-77995000D01*
X172780000Y-77995000D02*
X154880000Y-77995000D01*
X154880000Y-77995000D02*
X154880000Y-83295000D01*
X154880000Y-83295000D02*
X172780000Y-83295000D01*
X172780000Y-83295000D02*
X172780000Y-81645000D01*
X133290000Y-77995000D02*
X133290000Y-79645000D01*
X151190000Y-77995000D02*
X133290000Y-77995000D01*
X151190000Y-83295000D02*
X151190000Y-77995000D01*
X133290000Y-83295000D02*
X151190000Y-83295000D01*
X133290000Y-81645000D02*
X133290000Y-83295000D01*
X133290000Y-79645000D02*
G75*
G02X133290000Y-81645000I0J-1000000D01*
G01*
X21530000Y-97730000D02*
X22860000Y-97730000D01*
X21530000Y-99060000D02*
X21530000Y-97730000D01*
X21530000Y-100330000D02*
X24190000Y-100330000D01*
X24190000Y-100330000D02*
X24190000Y-118170000D01*
X21530000Y-100330000D02*
X21530000Y-118170000D01*
X21530000Y-118170000D02*
X24190000Y-118170000D01*
X24190000Y-67250000D02*
X21530000Y-67250000D01*
X24190000Y-85090000D02*
X24190000Y-67250000D01*
X21530000Y-85090000D02*
X21530000Y-67250000D01*
X24190000Y-85090000D02*
X21530000Y-85090000D01*
X24190000Y-86360000D02*
X24190000Y-87690000D01*
X24190000Y-87690000D02*
X22860000Y-87690000D01*
X24190000Y-57210000D02*
X22860000Y-57210000D01*
X24190000Y-55880000D02*
X24190000Y-57210000D01*
X24190000Y-54610000D02*
X21530000Y-54610000D01*
X21530000Y-54610000D02*
X21530000Y-36770000D01*
X24190000Y-54610000D02*
X24190000Y-36770000D01*
X24190000Y-36770000D02*
X21530000Y-36770000D01*
X107255000Y-57210000D02*
X109915000Y-57210000D01*
X107255000Y-39370000D02*
X107255000Y-57210000D01*
X109915000Y-39370000D02*
X109915000Y-57210000D01*
X107255000Y-39370000D02*
X109915000Y-39370000D01*
X107255000Y-38100000D02*
X107255000Y-36770000D01*
X107255000Y-36770000D02*
X108585000Y-36770000D01*
X107255000Y-67250000D02*
X108585000Y-67250000D01*
X107255000Y-68580000D02*
X107255000Y-67250000D01*
X107255000Y-69850000D02*
X109915000Y-69850000D01*
X109915000Y-69850000D02*
X109915000Y-87690000D01*
X107255000Y-69850000D02*
X107255000Y-87690000D01*
X107255000Y-87690000D02*
X109915000Y-87690000D01*
X107255000Y-118170000D02*
X109915000Y-118170000D01*
X107255000Y-100330000D02*
X107255000Y-118170000D01*
X109915000Y-100330000D02*
X109915000Y-118170000D01*
X107255000Y-100330000D02*
X109915000Y-100330000D01*
X107255000Y-99060000D02*
X107255000Y-97730000D01*
X107255000Y-97730000D02*
X108585000Y-97730000D01*
X174685000Y-116145000D02*
X174685000Y-117475000D01*
X173355000Y-116145000D02*
X174685000Y-116145000D01*
X172085000Y-116145000D02*
X172085000Y-118805000D01*
X172085000Y-118805000D02*
X154245000Y-118805000D01*
X172085000Y-116145000D02*
X154245000Y-116145000D01*
X154245000Y-116145000D02*
X154245000Y-118805000D01*
X114875000Y-116145000D02*
X114875000Y-118805000D01*
X132715000Y-116145000D02*
X114875000Y-116145000D01*
X132715000Y-118805000D02*
X114875000Y-118805000D01*
X132715000Y-116145000D02*
X132715000Y-118805000D01*
X133985000Y-116145000D02*
X135315000Y-116145000D01*
X135315000Y-116145000D02*
X135315000Y-117475000D01*
X140445000Y-25340000D02*
X138795000Y-25340000D01*
X140445000Y-45780000D02*
X140445000Y-25340000D01*
X135145000Y-45780000D02*
X140445000Y-45780000D01*
X135145000Y-25340000D02*
X135145000Y-45780000D01*
X136795000Y-25340000D02*
X135145000Y-25340000D01*
X138795000Y-25340000D02*
G75*
G02X136795000Y-25340000I-1000000J0D01*
G01*
X138795000Y-48835000D02*
G75*
G02X136795000Y-48835000I-1000000J0D01*
G01*
X136795000Y-48835000D02*
X135145000Y-48835000D01*
X135145000Y-48835000D02*
X135145000Y-69275000D01*
X135145000Y-69275000D02*
X140445000Y-69275000D01*
X140445000Y-69275000D02*
X140445000Y-48835000D01*
X140445000Y-48835000D02*
X138795000Y-48835000D01*
X38625000Y-118170000D02*
X40275000Y-118170000D01*
X38625000Y-95190000D02*
X38625000Y-118170000D01*
X43925000Y-95190000D02*
X38625000Y-95190000D01*
X43925000Y-118170000D02*
X43925000Y-95190000D01*
X42275000Y-118170000D02*
X43925000Y-118170000D01*
X40275000Y-118170000D02*
G75*
G02X42275000Y-118170000I1000000J0D01*
G01*
X91170000Y-97730000D02*
G75*
G02X89170000Y-97730000I-1000000J0D01*
G01*
X89170000Y-97730000D02*
X87520000Y-97730000D01*
X87520000Y-97730000D02*
X87520000Y-120710000D01*
X87520000Y-120710000D02*
X92820000Y-120710000D01*
X92820000Y-120710000D02*
X92820000Y-97730000D01*
X92820000Y-97730000D02*
X91170000Y-97730000D01*
X92820000Y-67250000D02*
X91170000Y-67250000D01*
X92820000Y-90230000D02*
X92820000Y-67250000D01*
X87520000Y-90230000D02*
X92820000Y-90230000D01*
X87520000Y-67250000D02*
X87520000Y-90230000D01*
X89170000Y-67250000D02*
X87520000Y-67250000D01*
X91170000Y-67250000D02*
G75*
G02X89170000Y-67250000I-1000000J0D01*
G01*
X40275000Y-87690000D02*
G75*
G02X42275000Y-87690000I1000000J0D01*
G01*
X42275000Y-87690000D02*
X43925000Y-87690000D01*
X43925000Y-87690000D02*
X43925000Y-64710000D01*
X43925000Y-64710000D02*
X38625000Y-64710000D01*
X38625000Y-64710000D02*
X38625000Y-87690000D01*
X38625000Y-87690000D02*
X40275000Y-87690000D01*
X92820000Y-36770000D02*
X91170000Y-36770000D01*
X92820000Y-59750000D02*
X92820000Y-36770000D01*
X87520000Y-59750000D02*
X92820000Y-59750000D01*
X87520000Y-36770000D02*
X87520000Y-59750000D01*
X89170000Y-36770000D02*
X87520000Y-36770000D01*
X91170000Y-36770000D02*
G75*
G02X89170000Y-36770000I-1000000J0D01*
G01*
X40275000Y-57210000D02*
G75*
G02X42275000Y-57210000I1000000J0D01*
G01*
X42275000Y-57210000D02*
X43925000Y-57210000D01*
X43925000Y-57210000D02*
X43925000Y-34230000D01*
X43925000Y-34230000D02*
X38625000Y-34230000D01*
X38625000Y-34230000D02*
X38625000Y-57210000D01*
X38625000Y-57210000D02*
X40275000Y-57210000D01*
X81390000Y-95190000D02*
X79740000Y-95190000D01*
X81390000Y-120710000D02*
X81390000Y-95190000D01*
X76090000Y-120710000D02*
X81390000Y-120710000D01*
X76090000Y-95190000D02*
X76090000Y-120710000D01*
X77740000Y-95190000D02*
X76090000Y-95190000D01*
X79740000Y-95190000D02*
G75*
G02X77740000Y-95190000I-1000000J0D01*
G01*
X79740000Y-64710000D02*
G75*
G02X77740000Y-64710000I-1000000J0D01*
G01*
X77740000Y-64710000D02*
X76090000Y-64710000D01*
X76090000Y-64710000D02*
X76090000Y-90230000D01*
X76090000Y-90230000D02*
X81390000Y-90230000D01*
X81390000Y-90230000D02*
X81390000Y-64710000D01*
X81390000Y-64710000D02*
X79740000Y-64710000D01*
X81390000Y-34230000D02*
X79740000Y-34230000D01*
X81390000Y-59750000D02*
X81390000Y-34230000D01*
X76090000Y-59750000D02*
X81390000Y-59750000D01*
X76090000Y-34230000D02*
X76090000Y-59750000D01*
X77740000Y-34230000D02*
X76090000Y-34230000D01*
X79740000Y-34230000D02*
G75*
G02X77740000Y-34230000I-1000000J0D01*
G01*
X51705000Y-59750000D02*
G75*
G02X53705000Y-59750000I1000000J0D01*
G01*
X53705000Y-59750000D02*
X55355000Y-59750000D01*
X55355000Y-59750000D02*
X55355000Y-34230000D01*
X55355000Y-34230000D02*
X50055000Y-34230000D01*
X50055000Y-34230000D02*
X50055000Y-59750000D01*
X50055000Y-59750000D02*
X51705000Y-59750000D01*
X50055000Y-90230000D02*
X51705000Y-90230000D01*
X50055000Y-64710000D02*
X50055000Y-90230000D01*
X55355000Y-64710000D02*
X50055000Y-64710000D01*
X55355000Y-90230000D02*
X55355000Y-64710000D01*
X53705000Y-90230000D02*
X55355000Y-90230000D01*
X51705000Y-90230000D02*
G75*
G02X53705000Y-90230000I1000000J0D01*
G01*
X51705000Y-120710000D02*
G75*
G02X53705000Y-120710000I1000000J0D01*
G01*
X53705000Y-120710000D02*
X55355000Y-120710000D01*
X55355000Y-120710000D02*
X55355000Y-95190000D01*
X55355000Y-95190000D02*
X50055000Y-95190000D01*
X50055000Y-95190000D02*
X50055000Y-120710000D01*
X50055000Y-120710000D02*
X51705000Y-120710000D01*
X155035000Y-107896000D02*
X153525000Y-107896000D01*
X155035000Y-104195000D02*
X153525000Y-104195000D01*
X153525000Y-100925000D02*
X153525000Y-111165000D01*
X155035000Y-111165000D02*
X150394000Y-111165000D01*
X155035000Y-100925000D02*
X150394000Y-100925000D01*
X150394000Y-100925000D02*
X150394000Y-111165000D01*
X155035000Y-100925000D02*
X155035000Y-111165000D01*
X119475000Y-100925000D02*
X119475000Y-111165000D01*
X114834000Y-100925000D02*
X114834000Y-111165000D01*
X119475000Y-100925000D02*
X114834000Y-100925000D01*
X119475000Y-111165000D02*
X114834000Y-111165000D01*
X117965000Y-100925000D02*
X117965000Y-111165000D01*
X119475000Y-104195000D02*
X117965000Y-104195000D01*
X119475000Y-107896000D02*
X117965000Y-107896000D01*
X124555000Y-107896000D02*
X123045000Y-107896000D01*
X124555000Y-104195000D02*
X123045000Y-104195000D01*
X123045000Y-100925000D02*
X123045000Y-111165000D01*
X124555000Y-111165000D02*
X119914000Y-111165000D01*
X124555000Y-100925000D02*
X119914000Y-100925000D01*
X119914000Y-100925000D02*
X119914000Y-111165000D01*
X124555000Y-100925000D02*
X124555000Y-111165000D01*
X129635000Y-100925000D02*
X129635000Y-111165000D01*
X124994000Y-100925000D02*
X124994000Y-111165000D01*
X129635000Y-100925000D02*
X124994000Y-100925000D01*
X129635000Y-111165000D02*
X124994000Y-111165000D01*
X128125000Y-100925000D02*
X128125000Y-111165000D01*
X129635000Y-104195000D02*
X128125000Y-104195000D01*
X129635000Y-107896000D02*
X128125000Y-107896000D01*
X139795000Y-107896000D02*
X138285000Y-107896000D01*
X139795000Y-104195000D02*
X138285000Y-104195000D01*
X138285000Y-100925000D02*
X138285000Y-111165000D01*
X139795000Y-111165000D02*
X135154000Y-111165000D01*
X139795000Y-100925000D02*
X135154000Y-100925000D01*
X135154000Y-100925000D02*
X135154000Y-111165000D01*
X139795000Y-100925000D02*
X139795000Y-111165000D01*
X144875000Y-100925000D02*
X144875000Y-111165000D01*
X140234000Y-100925000D02*
X140234000Y-111165000D01*
X144875000Y-100925000D02*
X140234000Y-100925000D01*
X144875000Y-111165000D02*
X140234000Y-111165000D01*
X143365000Y-100925000D02*
X143365000Y-111165000D01*
X144875000Y-104195000D02*
X143365000Y-104195000D01*
X144875000Y-107896000D02*
X143365000Y-107896000D01*
X134715000Y-107896000D02*
X133205000Y-107896000D01*
X134715000Y-104195000D02*
X133205000Y-104195000D01*
X133205000Y-100925000D02*
X133205000Y-111165000D01*
X134715000Y-111165000D02*
X130074000Y-111165000D01*
X134715000Y-100925000D02*
X130074000Y-100925000D01*
X130074000Y-100925000D02*
X130074000Y-111165000D01*
X134715000Y-100925000D02*
X134715000Y-111165000D01*
X160115000Y-100925000D02*
X160115000Y-111165000D01*
X155474000Y-100925000D02*
X155474000Y-111165000D01*
X160115000Y-100925000D02*
X155474000Y-100925000D01*
X160115000Y-111165000D02*
X155474000Y-111165000D01*
X158605000Y-100925000D02*
X158605000Y-111165000D01*
X160115000Y-104195000D02*
X158605000Y-104195000D01*
X160115000Y-107896000D02*
X158605000Y-107896000D01*
X165195000Y-107896000D02*
X163685000Y-107896000D01*
X165195000Y-104195000D02*
X163685000Y-104195000D01*
X163685000Y-100925000D02*
X163685000Y-111165000D01*
X165195000Y-111165000D02*
X160554000Y-111165000D01*
X165195000Y-100925000D02*
X160554000Y-100925000D01*
X160554000Y-100925000D02*
X160554000Y-111165000D01*
X165195000Y-100925000D02*
X165195000Y-111165000D01*
X170275000Y-100925000D02*
X170275000Y-111165000D01*
X165634000Y-100925000D02*
X165634000Y-111165000D01*
X170275000Y-100925000D02*
X165634000Y-100925000D01*
X170275000Y-111165000D02*
X165634000Y-111165000D01*
X168765000Y-100925000D02*
X168765000Y-111165000D01*
X170275000Y-104195000D02*
X168765000Y-104195000D01*
X170275000Y-107896000D02*
X168765000Y-107896000D01*
X149955000Y-107896000D02*
X148445000Y-107896000D01*
X149955000Y-104195000D02*
X148445000Y-104195000D01*
X148445000Y-100925000D02*
X148445000Y-111165000D01*
X149955000Y-111165000D02*
X145314000Y-111165000D01*
X149955000Y-100925000D02*
X145314000Y-100925000D01*
X145314000Y-100925000D02*
X145314000Y-111165000D01*
X149955000Y-100925000D02*
X149955000Y-111165000D01*
X175355000Y-100925000D02*
X175355000Y-111165000D01*
X170714000Y-100925000D02*
X170714000Y-111165000D01*
X175355000Y-100925000D02*
X170714000Y-100925000D01*
X175355000Y-111165000D02*
X170714000Y-111165000D01*
X173845000Y-100925000D02*
X173845000Y-111165000D01*
X175355000Y-104195000D02*
X173845000Y-104195000D01*
X175355000Y-107896000D02*
X173845000Y-107896000D01*
X33350000Y-40640000D02*
X32400000Y-40640000D01*
X27610000Y-40640000D02*
X28560000Y-40640000D01*
X32400000Y-39720000D02*
X28560000Y-39720000D01*
X32400000Y-41560000D02*
X32400000Y-39720000D01*
X28560000Y-41560000D02*
X32400000Y-41560000D01*
X28560000Y-39720000D02*
X28560000Y-41560000D01*
X28560000Y-67660000D02*
X28560000Y-69500000D01*
X28560000Y-69500000D02*
X32400000Y-69500000D01*
X32400000Y-69500000D02*
X32400000Y-67660000D01*
X32400000Y-67660000D02*
X28560000Y-67660000D01*
X27610000Y-68580000D02*
X28560000Y-68580000D01*
X33350000Y-68580000D02*
X32400000Y-68580000D01*
X33350000Y-55880000D02*
X32400000Y-55880000D01*
X27610000Y-55880000D02*
X28560000Y-55880000D01*
X32400000Y-54960000D02*
X28560000Y-54960000D01*
X32400000Y-56800000D02*
X32400000Y-54960000D01*
X28560000Y-56800000D02*
X32400000Y-56800000D01*
X28560000Y-54960000D02*
X28560000Y-56800000D01*
X28560000Y-52420000D02*
X28560000Y-54260000D01*
X28560000Y-54260000D02*
X32400000Y-54260000D01*
X32400000Y-54260000D02*
X32400000Y-52420000D01*
X32400000Y-52420000D02*
X28560000Y-52420000D01*
X27610000Y-53340000D02*
X28560000Y-53340000D01*
X33350000Y-53340000D02*
X32400000Y-53340000D01*
X33350000Y-50800000D02*
X32400000Y-50800000D01*
X27610000Y-50800000D02*
X28560000Y-50800000D01*
X32400000Y-49880000D02*
X28560000Y-49880000D01*
X32400000Y-51720000D02*
X32400000Y-49880000D01*
X28560000Y-51720000D02*
X32400000Y-51720000D01*
X28560000Y-49880000D02*
X28560000Y-51720000D01*
X28560000Y-47340000D02*
X28560000Y-49180000D01*
X28560000Y-49180000D02*
X32400000Y-49180000D01*
X32400000Y-49180000D02*
X32400000Y-47340000D01*
X32400000Y-47340000D02*
X28560000Y-47340000D01*
X27610000Y-48260000D02*
X28560000Y-48260000D01*
X33350000Y-48260000D02*
X32400000Y-48260000D01*
X33350000Y-45720000D02*
X32400000Y-45720000D01*
X27610000Y-45720000D02*
X28560000Y-45720000D01*
X32400000Y-44800000D02*
X28560000Y-44800000D01*
X32400000Y-46640000D02*
X32400000Y-44800000D01*
X28560000Y-46640000D02*
X32400000Y-46640000D01*
X28560000Y-44800000D02*
X28560000Y-46640000D01*
X28560000Y-42260000D02*
X28560000Y-44100000D01*
X28560000Y-44100000D02*
X32400000Y-44100000D01*
X32400000Y-44100000D02*
X32400000Y-42260000D01*
X32400000Y-42260000D02*
X28560000Y-42260000D01*
X27610000Y-43180000D02*
X28560000Y-43180000D01*
X33350000Y-43180000D02*
X32400000Y-43180000D01*
X172085000Y-100025000D02*
X172085000Y-99075000D01*
X172085000Y-94285000D02*
X172085000Y-95235000D01*
X173005000Y-99075000D02*
X173005000Y-95235000D01*
X171165000Y-99075000D02*
X173005000Y-99075000D01*
X171165000Y-95235000D02*
X171165000Y-99075000D01*
X173005000Y-95235000D02*
X171165000Y-95235000D01*
X28560000Y-37180000D02*
X28560000Y-39020000D01*
X28560000Y-39020000D02*
X32400000Y-39020000D01*
X32400000Y-39020000D02*
X32400000Y-37180000D01*
X32400000Y-37180000D02*
X28560000Y-37180000D01*
X27610000Y-38100000D02*
X28560000Y-38100000D01*
X33350000Y-38100000D02*
X32400000Y-38100000D01*
X33350000Y-76200000D02*
X32400000Y-76200000D01*
X27610000Y-76200000D02*
X28560000Y-76200000D01*
X32400000Y-75280000D02*
X28560000Y-75280000D01*
X32400000Y-77120000D02*
X32400000Y-75280000D01*
X28560000Y-77120000D02*
X32400000Y-77120000D01*
X28560000Y-75280000D02*
X28560000Y-77120000D01*
X28560000Y-72740000D02*
X28560000Y-74580000D01*
X28560000Y-74580000D02*
X32400000Y-74580000D01*
X32400000Y-74580000D02*
X32400000Y-72740000D01*
X32400000Y-72740000D02*
X28560000Y-72740000D01*
X27610000Y-73660000D02*
X28560000Y-73660000D01*
X33350000Y-73660000D02*
X32400000Y-73660000D01*
X33350000Y-78740000D02*
X32400000Y-78740000D01*
X27610000Y-78740000D02*
X28560000Y-78740000D01*
X32400000Y-77820000D02*
X28560000Y-77820000D01*
X32400000Y-79660000D02*
X32400000Y-77820000D01*
X28560000Y-79660000D02*
X32400000Y-79660000D01*
X28560000Y-77820000D02*
X28560000Y-79660000D01*
X28560000Y-80360000D02*
X28560000Y-82200000D01*
X28560000Y-82200000D02*
X32400000Y-82200000D01*
X32400000Y-82200000D02*
X32400000Y-80360000D01*
X32400000Y-80360000D02*
X28560000Y-80360000D01*
X27610000Y-81280000D02*
X28560000Y-81280000D01*
X33350000Y-81280000D02*
X32400000Y-81280000D01*
X33350000Y-83820000D02*
X32400000Y-83820000D01*
X27610000Y-83820000D02*
X28560000Y-83820000D01*
X32400000Y-82900000D02*
X28560000Y-82900000D01*
X32400000Y-84740000D02*
X32400000Y-82900000D01*
X28560000Y-84740000D02*
X32400000Y-84740000D01*
X28560000Y-82900000D02*
X28560000Y-84740000D01*
X28560000Y-85440000D02*
X28560000Y-87280000D01*
X28560000Y-87280000D02*
X32400000Y-87280000D01*
X32400000Y-87280000D02*
X32400000Y-85440000D01*
X32400000Y-85440000D02*
X28560000Y-85440000D01*
X27610000Y-86360000D02*
X28560000Y-86360000D01*
X33350000Y-86360000D02*
X32400000Y-86360000D01*
X33350000Y-71120000D02*
X32400000Y-71120000D01*
X27610000Y-71120000D02*
X28560000Y-71120000D01*
X32400000Y-70200000D02*
X28560000Y-70200000D01*
X32400000Y-72040000D02*
X32400000Y-70200000D01*
X28560000Y-72040000D02*
X32400000Y-72040000D01*
X28560000Y-70200000D02*
X28560000Y-72040000D01*
X102885000Y-102520000D02*
X102885000Y-100680000D01*
X102885000Y-100680000D02*
X99045000Y-100680000D01*
X99045000Y-100680000D02*
X99045000Y-102520000D01*
X99045000Y-102520000D02*
X102885000Y-102520000D01*
X103835000Y-101600000D02*
X102885000Y-101600000D01*
X98095000Y-101600000D02*
X99045000Y-101600000D01*
X156845000Y-100025000D02*
X156845000Y-99075000D01*
X156845000Y-94285000D02*
X156845000Y-95235000D01*
X157765000Y-99075000D02*
X157765000Y-95235000D01*
X155925000Y-99075000D02*
X157765000Y-99075000D01*
X155925000Y-95235000D02*
X155925000Y-99075000D01*
X157765000Y-95235000D02*
X155925000Y-95235000D01*
X28560000Y-105760000D02*
X28560000Y-107600000D01*
X28560000Y-107600000D02*
X32400000Y-107600000D01*
X32400000Y-107600000D02*
X32400000Y-105760000D01*
X32400000Y-105760000D02*
X28560000Y-105760000D01*
X27610000Y-106680000D02*
X28560000Y-106680000D01*
X33350000Y-106680000D02*
X32400000Y-106680000D01*
X33350000Y-109220000D02*
X32400000Y-109220000D01*
X27610000Y-109220000D02*
X28560000Y-109220000D01*
X32400000Y-108300000D02*
X28560000Y-108300000D01*
X32400000Y-110140000D02*
X32400000Y-108300000D01*
X28560000Y-110140000D02*
X32400000Y-110140000D01*
X28560000Y-108300000D02*
X28560000Y-110140000D01*
X28560000Y-110840000D02*
X28560000Y-112680000D01*
X28560000Y-112680000D02*
X32400000Y-112680000D01*
X32400000Y-112680000D02*
X32400000Y-110840000D01*
X32400000Y-110840000D02*
X28560000Y-110840000D01*
X27610000Y-111760000D02*
X28560000Y-111760000D01*
X33350000Y-111760000D02*
X32400000Y-111760000D01*
X33350000Y-114300000D02*
X32400000Y-114300000D01*
X27610000Y-114300000D02*
X28560000Y-114300000D01*
X32400000Y-113380000D02*
X28560000Y-113380000D01*
X32400000Y-115220000D02*
X32400000Y-113380000D01*
X28560000Y-115220000D02*
X32400000Y-115220000D01*
X28560000Y-113380000D02*
X28560000Y-115220000D01*
X28560000Y-115920000D02*
X28560000Y-117760000D01*
X28560000Y-117760000D02*
X32400000Y-117760000D01*
X32400000Y-117760000D02*
X32400000Y-115920000D01*
X32400000Y-115920000D02*
X28560000Y-115920000D01*
X27610000Y-116840000D02*
X28560000Y-116840000D01*
X33350000Y-116840000D02*
X32400000Y-116840000D01*
X98095000Y-38100000D02*
X99045000Y-38100000D01*
X103835000Y-38100000D02*
X102885000Y-38100000D01*
X99045000Y-39020000D02*
X102885000Y-39020000D01*
X99045000Y-37180000D02*
X99045000Y-39020000D01*
X102885000Y-37180000D02*
X99045000Y-37180000D01*
X102885000Y-39020000D02*
X102885000Y-37180000D01*
X28560000Y-98140000D02*
X28560000Y-99980000D01*
X28560000Y-99980000D02*
X32400000Y-99980000D01*
X32400000Y-99980000D02*
X32400000Y-98140000D01*
X32400000Y-98140000D02*
X28560000Y-98140000D01*
X27610000Y-99060000D02*
X28560000Y-99060000D01*
X33350000Y-99060000D02*
X32400000Y-99060000D01*
X33350000Y-101600000D02*
X32400000Y-101600000D01*
X27610000Y-101600000D02*
X28560000Y-101600000D01*
X32400000Y-100680000D02*
X28560000Y-100680000D01*
X32400000Y-102520000D02*
X32400000Y-100680000D01*
X28560000Y-102520000D02*
X32400000Y-102520000D01*
X28560000Y-100680000D02*
X28560000Y-102520000D01*
X152685000Y-95235000D02*
X150845000Y-95235000D01*
X150845000Y-95235000D02*
X150845000Y-99075000D01*
X150845000Y-99075000D02*
X152685000Y-99075000D01*
X152685000Y-99075000D02*
X152685000Y-95235000D01*
X151765000Y-94285000D02*
X151765000Y-95235000D01*
X151765000Y-100025000D02*
X151765000Y-99075000D01*
X146685000Y-100025000D02*
X146685000Y-99075000D01*
X146685000Y-94285000D02*
X146685000Y-95235000D01*
X147605000Y-99075000D02*
X147605000Y-95235000D01*
X145765000Y-99075000D02*
X147605000Y-99075000D01*
X145765000Y-95235000D02*
X145765000Y-99075000D01*
X147605000Y-95235000D02*
X145765000Y-95235000D01*
X142525000Y-95235000D02*
X140685000Y-95235000D01*
X140685000Y-95235000D02*
X140685000Y-99075000D01*
X140685000Y-99075000D02*
X142525000Y-99075000D01*
X142525000Y-99075000D02*
X142525000Y-95235000D01*
X141605000Y-94285000D02*
X141605000Y-95235000D01*
X141605000Y-100025000D02*
X141605000Y-99075000D01*
X136525000Y-100025000D02*
X136525000Y-99075000D01*
X136525000Y-94285000D02*
X136525000Y-95235000D01*
X137445000Y-99075000D02*
X137445000Y-95235000D01*
X135605000Y-99075000D02*
X137445000Y-99075000D01*
X135605000Y-95235000D02*
X135605000Y-99075000D01*
X137445000Y-95235000D02*
X135605000Y-95235000D01*
X132365000Y-95235000D02*
X130525000Y-95235000D01*
X130525000Y-95235000D02*
X130525000Y-99075000D01*
X130525000Y-99075000D02*
X132365000Y-99075000D01*
X132365000Y-99075000D02*
X132365000Y-95235000D01*
X131445000Y-94285000D02*
X131445000Y-95235000D01*
X131445000Y-100025000D02*
X131445000Y-99075000D01*
X126365000Y-100025000D02*
X126365000Y-99075000D01*
X126365000Y-94285000D02*
X126365000Y-95235000D01*
X127285000Y-99075000D02*
X127285000Y-95235000D01*
X125445000Y-99075000D02*
X127285000Y-99075000D01*
X125445000Y-95235000D02*
X125445000Y-99075000D01*
X127285000Y-95235000D02*
X125445000Y-95235000D01*
X122205000Y-95235000D02*
X120365000Y-95235000D01*
X120365000Y-95235000D02*
X120365000Y-99075000D01*
X120365000Y-99075000D02*
X122205000Y-99075000D01*
X122205000Y-99075000D02*
X122205000Y-95235000D01*
X121285000Y-94285000D02*
X121285000Y-95235000D01*
X121285000Y-100025000D02*
X121285000Y-99075000D01*
X116205000Y-100025000D02*
X116205000Y-99075000D01*
X116205000Y-94285000D02*
X116205000Y-95235000D01*
X117125000Y-99075000D02*
X117125000Y-95235000D01*
X115285000Y-99075000D02*
X117125000Y-99075000D01*
X115285000Y-95235000D02*
X115285000Y-99075000D01*
X117125000Y-95235000D02*
X115285000Y-95235000D01*
X162845000Y-95235000D02*
X161005000Y-95235000D01*
X161005000Y-95235000D02*
X161005000Y-99075000D01*
X161005000Y-99075000D02*
X162845000Y-99075000D01*
X162845000Y-99075000D02*
X162845000Y-95235000D01*
X161925000Y-94285000D02*
X161925000Y-95235000D01*
X161925000Y-100025000D02*
X161925000Y-99075000D01*
X98095000Y-53340000D02*
X99045000Y-53340000D01*
X103835000Y-53340000D02*
X102885000Y-53340000D01*
X99045000Y-54260000D02*
X102885000Y-54260000D01*
X99045000Y-52420000D02*
X99045000Y-54260000D01*
X102885000Y-52420000D02*
X99045000Y-52420000D01*
X102885000Y-54260000D02*
X102885000Y-52420000D01*
X163545000Y-109235000D02*
X165385000Y-109235000D01*
X165385000Y-109235000D02*
X165385000Y-105395000D01*
X165385000Y-105395000D02*
X163545000Y-105395000D01*
X163545000Y-105395000D02*
X163545000Y-109235000D01*
X164465000Y-110185000D02*
X164465000Y-109235000D01*
X164465000Y-104445000D02*
X164465000Y-105395000D01*
X159385000Y-104445000D02*
X159385000Y-105395000D01*
X159385000Y-110185000D02*
X159385000Y-109235000D01*
X158465000Y-105395000D02*
X158465000Y-109235000D01*
X160305000Y-105395000D02*
X158465000Y-105395000D01*
X160305000Y-109235000D02*
X160305000Y-105395000D01*
X158465000Y-109235000D02*
X160305000Y-109235000D01*
X153385000Y-109235000D02*
X155225000Y-109235000D01*
X155225000Y-109235000D02*
X155225000Y-105395000D01*
X155225000Y-105395000D02*
X153385000Y-105395000D01*
X153385000Y-105395000D02*
X153385000Y-109235000D01*
X154305000Y-110185000D02*
X154305000Y-109235000D01*
X154305000Y-104445000D02*
X154305000Y-105395000D01*
X149225000Y-104445000D02*
X149225000Y-105395000D01*
X149225000Y-110185000D02*
X149225000Y-109235000D01*
X148305000Y-105395000D02*
X148305000Y-109235000D01*
X150145000Y-105395000D02*
X148305000Y-105395000D01*
X150145000Y-109235000D02*
X150145000Y-105395000D01*
X148305000Y-109235000D02*
X150145000Y-109235000D01*
X143225000Y-109235000D02*
X145065000Y-109235000D01*
X145065000Y-109235000D02*
X145065000Y-105395000D01*
X145065000Y-105395000D02*
X143225000Y-105395000D01*
X143225000Y-105395000D02*
X143225000Y-109235000D01*
X144145000Y-110185000D02*
X144145000Y-109235000D01*
X144145000Y-104445000D02*
X144145000Y-105395000D01*
X139065000Y-104445000D02*
X139065000Y-105395000D01*
X139065000Y-110185000D02*
X139065000Y-109235000D01*
X138145000Y-105395000D02*
X138145000Y-109235000D01*
X139985000Y-105395000D02*
X138145000Y-105395000D01*
X139985000Y-109235000D02*
X139985000Y-105395000D01*
X138145000Y-109235000D02*
X139985000Y-109235000D01*
X133065000Y-109235000D02*
X134905000Y-109235000D01*
X134905000Y-109235000D02*
X134905000Y-105395000D01*
X134905000Y-105395000D02*
X133065000Y-105395000D01*
X133065000Y-105395000D02*
X133065000Y-109235000D01*
X133985000Y-110185000D02*
X133985000Y-109235000D01*
X133985000Y-104445000D02*
X133985000Y-105395000D01*
X33350000Y-104140000D02*
X32400000Y-104140000D01*
X27610000Y-104140000D02*
X28560000Y-104140000D01*
X32400000Y-103220000D02*
X28560000Y-103220000D01*
X32400000Y-105060000D02*
X32400000Y-103220000D01*
X28560000Y-105060000D02*
X32400000Y-105060000D01*
X28560000Y-103220000D02*
X28560000Y-105060000D01*
X122905000Y-109235000D02*
X124745000Y-109235000D01*
X124745000Y-109235000D02*
X124745000Y-105395000D01*
X124745000Y-105395000D02*
X122905000Y-105395000D01*
X122905000Y-105395000D02*
X122905000Y-109235000D01*
X123825000Y-110185000D02*
X123825000Y-109235000D01*
X123825000Y-104445000D02*
X123825000Y-105395000D01*
X118745000Y-104445000D02*
X118745000Y-105395000D01*
X118745000Y-110185000D02*
X118745000Y-109235000D01*
X117825000Y-105395000D02*
X117825000Y-109235000D01*
X119665000Y-105395000D02*
X117825000Y-105395000D01*
X119665000Y-109235000D02*
X119665000Y-105395000D01*
X117825000Y-109235000D02*
X119665000Y-109235000D01*
X173705000Y-109235000D02*
X175545000Y-109235000D01*
X175545000Y-109235000D02*
X175545000Y-105395000D01*
X175545000Y-105395000D02*
X173705000Y-105395000D01*
X173705000Y-105395000D02*
X173705000Y-109235000D01*
X174625000Y-110185000D02*
X174625000Y-109235000D01*
X174625000Y-104445000D02*
X174625000Y-105395000D01*
X98095000Y-43180000D02*
X99045000Y-43180000D01*
X103835000Y-43180000D02*
X102885000Y-43180000D01*
X99045000Y-44100000D02*
X102885000Y-44100000D01*
X99045000Y-42260000D02*
X99045000Y-44100000D01*
X102885000Y-42260000D02*
X99045000Y-42260000D01*
X102885000Y-44100000D02*
X102885000Y-42260000D01*
X102885000Y-46640000D02*
X102885000Y-44800000D01*
X102885000Y-44800000D02*
X99045000Y-44800000D01*
X99045000Y-44800000D02*
X99045000Y-46640000D01*
X99045000Y-46640000D02*
X102885000Y-46640000D01*
X103835000Y-45720000D02*
X102885000Y-45720000D01*
X98095000Y-45720000D02*
X99045000Y-45720000D01*
X98095000Y-48260000D02*
X99045000Y-48260000D01*
X103835000Y-48260000D02*
X102885000Y-48260000D01*
X99045000Y-49180000D02*
X102885000Y-49180000D01*
X99045000Y-47340000D02*
X99045000Y-49180000D01*
X102885000Y-47340000D02*
X99045000Y-47340000D01*
X102885000Y-49180000D02*
X102885000Y-47340000D01*
X102885000Y-51720000D02*
X102885000Y-49880000D01*
X102885000Y-49880000D02*
X99045000Y-49880000D01*
X99045000Y-49880000D02*
X99045000Y-51720000D01*
X99045000Y-51720000D02*
X102885000Y-51720000D01*
X103835000Y-50800000D02*
X102885000Y-50800000D01*
X98095000Y-50800000D02*
X99045000Y-50800000D01*
X98095000Y-55880000D02*
X99045000Y-55880000D01*
X103835000Y-55880000D02*
X102885000Y-55880000D01*
X99045000Y-56800000D02*
X102885000Y-56800000D01*
X99045000Y-54960000D02*
X99045000Y-56800000D01*
X102885000Y-54960000D02*
X99045000Y-54960000D01*
X102885000Y-56800000D02*
X102885000Y-54960000D01*
X127985000Y-109235000D02*
X129825000Y-109235000D01*
X129825000Y-109235000D02*
X129825000Y-105395000D01*
X129825000Y-105395000D02*
X127985000Y-105395000D01*
X127985000Y-105395000D02*
X127985000Y-109235000D01*
X128905000Y-110185000D02*
X128905000Y-109235000D01*
X128905000Y-104445000D02*
X128905000Y-105395000D01*
X98095000Y-68580000D02*
X99045000Y-68580000D01*
X103835000Y-68580000D02*
X102885000Y-68580000D01*
X99045000Y-69500000D02*
X102885000Y-69500000D01*
X99045000Y-67660000D02*
X99045000Y-69500000D01*
X102885000Y-67660000D02*
X99045000Y-67660000D01*
X102885000Y-69500000D02*
X102885000Y-67660000D01*
X102885000Y-72040000D02*
X102885000Y-70200000D01*
X102885000Y-70200000D02*
X99045000Y-70200000D01*
X99045000Y-70200000D02*
X99045000Y-72040000D01*
X99045000Y-72040000D02*
X102885000Y-72040000D01*
X103835000Y-71120000D02*
X102885000Y-71120000D01*
X98095000Y-71120000D02*
X99045000Y-71120000D01*
X98095000Y-73660000D02*
X99045000Y-73660000D01*
X103835000Y-73660000D02*
X102885000Y-73660000D01*
X99045000Y-74580000D02*
X102885000Y-74580000D01*
X99045000Y-72740000D02*
X99045000Y-74580000D01*
X102885000Y-72740000D02*
X99045000Y-72740000D01*
X102885000Y-74580000D02*
X102885000Y-72740000D01*
X102885000Y-77120000D02*
X102885000Y-75280000D01*
X102885000Y-75280000D02*
X99045000Y-75280000D01*
X99045000Y-75280000D02*
X99045000Y-77120000D01*
X99045000Y-77120000D02*
X102885000Y-77120000D01*
X103835000Y-76200000D02*
X102885000Y-76200000D01*
X98095000Y-76200000D02*
X99045000Y-76200000D01*
X98095000Y-78740000D02*
X99045000Y-78740000D01*
X103835000Y-78740000D02*
X102885000Y-78740000D01*
X99045000Y-79660000D02*
X102885000Y-79660000D01*
X99045000Y-77820000D02*
X99045000Y-79660000D01*
X102885000Y-77820000D02*
X99045000Y-77820000D01*
X102885000Y-79660000D02*
X102885000Y-77820000D01*
X167925000Y-95235000D02*
X166085000Y-95235000D01*
X166085000Y-95235000D02*
X166085000Y-99075000D01*
X166085000Y-99075000D02*
X167925000Y-99075000D01*
X167925000Y-99075000D02*
X167925000Y-95235000D01*
X167005000Y-94285000D02*
X167005000Y-95235000D01*
X167005000Y-100025000D02*
X167005000Y-99075000D01*
X98095000Y-83820000D02*
X99045000Y-83820000D01*
X103835000Y-83820000D02*
X102885000Y-83820000D01*
X99045000Y-84740000D02*
X102885000Y-84740000D01*
X99045000Y-82900000D02*
X99045000Y-84740000D01*
X102885000Y-82900000D02*
X99045000Y-82900000D01*
X102885000Y-84740000D02*
X102885000Y-82900000D01*
X102885000Y-87280000D02*
X102885000Y-85440000D01*
X102885000Y-85440000D02*
X99045000Y-85440000D01*
X99045000Y-85440000D02*
X99045000Y-87280000D01*
X99045000Y-87280000D02*
X102885000Y-87280000D01*
X103835000Y-86360000D02*
X102885000Y-86360000D01*
X98095000Y-86360000D02*
X99045000Y-86360000D01*
X98095000Y-40640000D02*
X99045000Y-40640000D01*
X103835000Y-40640000D02*
X102885000Y-40640000D01*
X99045000Y-41560000D02*
X102885000Y-41560000D01*
X99045000Y-39720000D02*
X99045000Y-41560000D01*
X102885000Y-39720000D02*
X99045000Y-39720000D01*
X102885000Y-41560000D02*
X102885000Y-39720000D01*
X168625000Y-109235000D02*
X170465000Y-109235000D01*
X170465000Y-109235000D02*
X170465000Y-105395000D01*
X170465000Y-105395000D02*
X168625000Y-105395000D01*
X168625000Y-105395000D02*
X168625000Y-109235000D01*
X169545000Y-110185000D02*
X169545000Y-109235000D01*
X169545000Y-104445000D02*
X169545000Y-105395000D01*
X98095000Y-104140000D02*
X99045000Y-104140000D01*
X103835000Y-104140000D02*
X102885000Y-104140000D01*
X99045000Y-105060000D02*
X102885000Y-105060000D01*
X99045000Y-103220000D02*
X99045000Y-105060000D01*
X102885000Y-103220000D02*
X99045000Y-103220000D01*
X102885000Y-105060000D02*
X102885000Y-103220000D01*
X102885000Y-107600000D02*
X102885000Y-105760000D01*
X102885000Y-105760000D02*
X99045000Y-105760000D01*
X99045000Y-105760000D02*
X99045000Y-107600000D01*
X99045000Y-107600000D02*
X102885000Y-107600000D01*
X103835000Y-106680000D02*
X102885000Y-106680000D01*
X98095000Y-106680000D02*
X99045000Y-106680000D01*
X98095000Y-109220000D02*
X99045000Y-109220000D01*
X103835000Y-109220000D02*
X102885000Y-109220000D01*
X99045000Y-110140000D02*
X102885000Y-110140000D01*
X99045000Y-108300000D02*
X99045000Y-110140000D01*
X102885000Y-108300000D02*
X99045000Y-108300000D01*
X102885000Y-110140000D02*
X102885000Y-108300000D01*
X102885000Y-112680000D02*
X102885000Y-110840000D01*
X102885000Y-110840000D02*
X99045000Y-110840000D01*
X99045000Y-110840000D02*
X99045000Y-112680000D01*
X99045000Y-112680000D02*
X102885000Y-112680000D01*
X103835000Y-111760000D02*
X102885000Y-111760000D01*
X98095000Y-111760000D02*
X99045000Y-111760000D01*
X98095000Y-114300000D02*
X99045000Y-114300000D01*
X103835000Y-114300000D02*
X102885000Y-114300000D01*
X99045000Y-115220000D02*
X102885000Y-115220000D01*
X99045000Y-113380000D02*
X99045000Y-115220000D01*
X102885000Y-113380000D02*
X99045000Y-113380000D01*
X102885000Y-115220000D02*
X102885000Y-113380000D01*
X102885000Y-117760000D02*
X102885000Y-115920000D01*
X102885000Y-115920000D02*
X99045000Y-115920000D01*
X99045000Y-115920000D02*
X99045000Y-117760000D01*
X99045000Y-117760000D02*
X102885000Y-117760000D01*
X103835000Y-116840000D02*
X102885000Y-116840000D01*
X98095000Y-116840000D02*
X99045000Y-116840000D01*
X98095000Y-81280000D02*
X99045000Y-81280000D01*
X103835000Y-81280000D02*
X102885000Y-81280000D01*
X99045000Y-82200000D02*
X102885000Y-82200000D01*
X99045000Y-80360000D02*
X99045000Y-82200000D01*
X102885000Y-80360000D02*
X99045000Y-80360000D01*
X102885000Y-82200000D02*
X102885000Y-80360000D01*
X102885000Y-99980000D02*
X102885000Y-98140000D01*
X102885000Y-98140000D02*
X99045000Y-98140000D01*
X99045000Y-98140000D02*
X99045000Y-99980000D01*
X99045000Y-99980000D02*
X102885000Y-99980000D01*
X103835000Y-99060000D02*
X102885000Y-99060000D01*
X98095000Y-99060000D02*
X99045000Y-99060000D01*
D11*
X124158571Y-32682380D02*
X124158571Y-33396666D01*
X124110952Y-33539523D01*
X124015714Y-33634761D01*
X123872857Y-33682380D01*
X123777619Y-33682380D01*
X125206190Y-33682380D02*
X124872857Y-33206190D01*
X124634761Y-33682380D02*
X124634761Y-32682380D01*
X125015714Y-32682380D01*
X125110952Y-32730000D01*
X125158571Y-32777619D01*
X125206190Y-32872857D01*
X125206190Y-33015714D01*
X125158571Y-33110952D01*
X125110952Y-33158571D01*
X125015714Y-33206190D01*
X124634761Y-33206190D01*
X125634761Y-33682380D02*
X125634761Y-32682380D01*
X126015714Y-32682380D01*
X126110952Y-32730000D01*
X126158571Y-32777619D01*
X126206190Y-32872857D01*
X126206190Y-33015714D01*
X126158571Y-33110952D01*
X126110952Y-33158571D01*
X126015714Y-33206190D01*
X125634761Y-33206190D01*
X126634761Y-33682380D02*
X126634761Y-32682380D01*
X127634761Y-33682380D02*
X127063333Y-33682380D01*
X127349047Y-33682380D02*
X127349047Y-32682380D01*
X127253809Y-32825238D01*
X127158571Y-32920476D01*
X127063333Y-32968095D01*
X163492380Y-65777857D02*
X164206666Y-65777857D01*
X164349523Y-65825476D01*
X164444761Y-65920714D01*
X164492380Y-66063571D01*
X164492380Y-66158809D01*
X163492380Y-65444523D02*
X163492380Y-64873095D01*
X164492380Y-65158809D02*
X163492380Y-65158809D01*
X164206666Y-64587380D02*
X164206666Y-64111190D01*
X164492380Y-64682619D02*
X163492380Y-64349285D01*
X164492380Y-64015952D01*
X164492380Y-63682619D02*
X163492380Y-63682619D01*
X163492380Y-63301666D01*
X163540000Y-63206428D01*
X163587619Y-63158809D01*
X163682857Y-63111190D01*
X163825714Y-63111190D01*
X163920952Y-63158809D01*
X163968571Y-63206428D01*
X164016190Y-63301666D01*
X164016190Y-63682619D01*
X164492380Y-62158809D02*
X164492380Y-62730238D01*
X164492380Y-62444523D02*
X163492380Y-62444523D01*
X163635238Y-62539761D01*
X163730476Y-62635000D01*
X163778095Y-62730238D01*
X173232380Y-82430714D02*
X174041904Y-82430714D01*
X174137142Y-82383095D01*
X174184761Y-82335476D01*
X174232380Y-82240238D01*
X174232380Y-82049761D01*
X174184761Y-81954523D01*
X174137142Y-81906904D01*
X174041904Y-81859285D01*
X173232380Y-81859285D01*
X173232380Y-81192619D02*
X173232380Y-81002142D01*
X173280000Y-80906904D01*
X173375238Y-80811666D01*
X173565714Y-80764047D01*
X173899047Y-80764047D01*
X174089523Y-80811666D01*
X174184761Y-80906904D01*
X174232380Y-81002142D01*
X174232380Y-81192619D01*
X174184761Y-81287857D01*
X174089523Y-81383095D01*
X173899047Y-81430714D01*
X173565714Y-81430714D01*
X173375238Y-81383095D01*
X173280000Y-81287857D01*
X173232380Y-81192619D01*
X174232380Y-80335476D02*
X173232380Y-80335476D01*
X173232380Y-80097380D01*
X173280000Y-79954523D01*
X173375238Y-79859285D01*
X173470476Y-79811666D01*
X173660952Y-79764047D01*
X173803809Y-79764047D01*
X173994285Y-79811666D01*
X174089523Y-79859285D01*
X174184761Y-79954523D01*
X174232380Y-80097380D01*
X174232380Y-80335476D01*
X174232380Y-78811666D02*
X174232380Y-79383095D01*
X174232380Y-79097380D02*
X173232380Y-79097380D01*
X173375238Y-79192619D01*
X173470476Y-79287857D01*
X173518095Y-79383095D01*
X131742380Y-82430714D02*
X132551904Y-82430714D01*
X132647142Y-82383095D01*
X132694761Y-82335476D01*
X132742380Y-82240238D01*
X132742380Y-82049761D01*
X132694761Y-81954523D01*
X132647142Y-81906904D01*
X132551904Y-81859285D01*
X131742380Y-81859285D01*
X131742380Y-81192619D02*
X131742380Y-81002142D01*
X131790000Y-80906904D01*
X131885238Y-80811666D01*
X132075714Y-80764047D01*
X132409047Y-80764047D01*
X132599523Y-80811666D01*
X132694761Y-80906904D01*
X132742380Y-81002142D01*
X132742380Y-81192619D01*
X132694761Y-81287857D01*
X132599523Y-81383095D01*
X132409047Y-81430714D01*
X132075714Y-81430714D01*
X131885238Y-81383095D01*
X131790000Y-81287857D01*
X131742380Y-81192619D01*
X132742380Y-80335476D02*
X131742380Y-80335476D01*
X131742380Y-80097380D01*
X131790000Y-79954523D01*
X131885238Y-79859285D01*
X131980476Y-79811666D01*
X132170952Y-79764047D01*
X132313809Y-79764047D01*
X132504285Y-79811666D01*
X132599523Y-79859285D01*
X132694761Y-79954523D01*
X132742380Y-80097380D01*
X132742380Y-80335476D01*
X131837619Y-79383095D02*
X131790000Y-79335476D01*
X131742380Y-79240238D01*
X131742380Y-79002142D01*
X131790000Y-78906904D01*
X131837619Y-78859285D01*
X131932857Y-78811666D01*
X132028095Y-78811666D01*
X132170952Y-78859285D01*
X132742380Y-79430714D01*
X132742380Y-78811666D01*
X22026666Y-96182380D02*
X22026666Y-96896666D01*
X21979047Y-97039523D01*
X21883809Y-97134761D01*
X21740952Y-97182380D01*
X21645714Y-97182380D01*
X23074285Y-97087142D02*
X23026666Y-97134761D01*
X22883809Y-97182380D01*
X22788571Y-97182380D01*
X22645714Y-97134761D01*
X22550476Y-97039523D01*
X22502857Y-96944285D01*
X22455238Y-96753809D01*
X22455238Y-96610952D01*
X22502857Y-96420476D01*
X22550476Y-96325238D01*
X22645714Y-96230000D01*
X22788571Y-96182380D01*
X22883809Y-96182380D01*
X23026666Y-96230000D01*
X23074285Y-96277619D01*
X24026666Y-97182380D02*
X23455238Y-97182380D01*
X23740952Y-97182380D02*
X23740952Y-96182380D01*
X23645714Y-96325238D01*
X23550476Y-96420476D01*
X23455238Y-96468095D01*
X22026666Y-88142380D02*
X22026666Y-88856666D01*
X21979047Y-88999523D01*
X21883809Y-89094761D01*
X21740952Y-89142380D01*
X21645714Y-89142380D01*
X23074285Y-89047142D02*
X23026666Y-89094761D01*
X22883809Y-89142380D01*
X22788571Y-89142380D01*
X22645714Y-89094761D01*
X22550476Y-88999523D01*
X22502857Y-88904285D01*
X22455238Y-88713809D01*
X22455238Y-88570952D01*
X22502857Y-88380476D01*
X22550476Y-88285238D01*
X22645714Y-88190000D01*
X22788571Y-88142380D01*
X22883809Y-88142380D01*
X23026666Y-88190000D01*
X23074285Y-88237619D01*
X23455238Y-88237619D02*
X23502857Y-88190000D01*
X23598095Y-88142380D01*
X23836190Y-88142380D01*
X23931428Y-88190000D01*
X23979047Y-88237619D01*
X24026666Y-88332857D01*
X24026666Y-88428095D01*
X23979047Y-88570952D01*
X23407619Y-89142380D01*
X24026666Y-89142380D01*
X22026666Y-57662380D02*
X22026666Y-58376666D01*
X21979047Y-58519523D01*
X21883809Y-58614761D01*
X21740952Y-58662380D01*
X21645714Y-58662380D01*
X23074285Y-58567142D02*
X23026666Y-58614761D01*
X22883809Y-58662380D01*
X22788571Y-58662380D01*
X22645714Y-58614761D01*
X22550476Y-58519523D01*
X22502857Y-58424285D01*
X22455238Y-58233809D01*
X22455238Y-58090952D01*
X22502857Y-57900476D01*
X22550476Y-57805238D01*
X22645714Y-57710000D01*
X22788571Y-57662380D01*
X22883809Y-57662380D01*
X23026666Y-57710000D01*
X23074285Y-57757619D01*
X23407619Y-57662380D02*
X24026666Y-57662380D01*
X23693333Y-58043333D01*
X23836190Y-58043333D01*
X23931428Y-58090952D01*
X23979047Y-58138571D01*
X24026666Y-58233809D01*
X24026666Y-58471904D01*
X23979047Y-58567142D01*
X23931428Y-58614761D01*
X23836190Y-58662380D01*
X23550476Y-58662380D01*
X23455238Y-58614761D01*
X23407619Y-58567142D01*
X107751666Y-35222380D02*
X107751666Y-35936666D01*
X107704047Y-36079523D01*
X107608809Y-36174761D01*
X107465952Y-36222380D01*
X107370714Y-36222380D01*
X108799285Y-36127142D02*
X108751666Y-36174761D01*
X108608809Y-36222380D01*
X108513571Y-36222380D01*
X108370714Y-36174761D01*
X108275476Y-36079523D01*
X108227857Y-35984285D01*
X108180238Y-35793809D01*
X108180238Y-35650952D01*
X108227857Y-35460476D01*
X108275476Y-35365238D01*
X108370714Y-35270000D01*
X108513571Y-35222380D01*
X108608809Y-35222380D01*
X108751666Y-35270000D01*
X108799285Y-35317619D01*
X109656428Y-35555714D02*
X109656428Y-36222380D01*
X109418333Y-35174761D02*
X109180238Y-35889047D01*
X109799285Y-35889047D01*
X107751666Y-65702380D02*
X107751666Y-66416666D01*
X107704047Y-66559523D01*
X107608809Y-66654761D01*
X107465952Y-66702380D01*
X107370714Y-66702380D01*
X108799285Y-66607142D02*
X108751666Y-66654761D01*
X108608809Y-66702380D01*
X108513571Y-66702380D01*
X108370714Y-66654761D01*
X108275476Y-66559523D01*
X108227857Y-66464285D01*
X108180238Y-66273809D01*
X108180238Y-66130952D01*
X108227857Y-65940476D01*
X108275476Y-65845238D01*
X108370714Y-65750000D01*
X108513571Y-65702380D01*
X108608809Y-65702380D01*
X108751666Y-65750000D01*
X108799285Y-65797619D01*
X109704047Y-65702380D02*
X109227857Y-65702380D01*
X109180238Y-66178571D01*
X109227857Y-66130952D01*
X109323095Y-66083333D01*
X109561190Y-66083333D01*
X109656428Y-66130952D01*
X109704047Y-66178571D01*
X109751666Y-66273809D01*
X109751666Y-66511904D01*
X109704047Y-66607142D01*
X109656428Y-66654761D01*
X109561190Y-66702380D01*
X109323095Y-66702380D01*
X109227857Y-66654761D01*
X109180238Y-66607142D01*
X107751666Y-96182380D02*
X107751666Y-96896666D01*
X107704047Y-97039523D01*
X107608809Y-97134761D01*
X107465952Y-97182380D01*
X107370714Y-97182380D01*
X108799285Y-97087142D02*
X108751666Y-97134761D01*
X108608809Y-97182380D01*
X108513571Y-97182380D01*
X108370714Y-97134761D01*
X108275476Y-97039523D01*
X108227857Y-96944285D01*
X108180238Y-96753809D01*
X108180238Y-96610952D01*
X108227857Y-96420476D01*
X108275476Y-96325238D01*
X108370714Y-96230000D01*
X108513571Y-96182380D01*
X108608809Y-96182380D01*
X108751666Y-96230000D01*
X108799285Y-96277619D01*
X109656428Y-96182380D02*
X109465952Y-96182380D01*
X109370714Y-96230000D01*
X109323095Y-96277619D01*
X109227857Y-96420476D01*
X109180238Y-96610952D01*
X109180238Y-96991904D01*
X109227857Y-97087142D01*
X109275476Y-97134761D01*
X109370714Y-97182380D01*
X109561190Y-97182380D01*
X109656428Y-97134761D01*
X109704047Y-97087142D01*
X109751666Y-96991904D01*
X109751666Y-96753809D01*
X109704047Y-96658571D01*
X109656428Y-96610952D01*
X109561190Y-96563333D01*
X109370714Y-96563333D01*
X109275476Y-96610952D01*
X109227857Y-96658571D01*
X109180238Y-96753809D01*
X175137380Y-118308333D02*
X175851666Y-118308333D01*
X175994523Y-118355952D01*
X176089761Y-118451190D01*
X176137380Y-118594047D01*
X176137380Y-118689285D01*
X176137380Y-117260714D02*
X175661190Y-117594047D01*
X176137380Y-117832142D02*
X175137380Y-117832142D01*
X175137380Y-117451190D01*
X175185000Y-117355952D01*
X175232619Y-117308333D01*
X175327857Y-117260714D01*
X175470714Y-117260714D01*
X175565952Y-117308333D01*
X175613571Y-117355952D01*
X175661190Y-117451190D01*
X175661190Y-117832142D01*
X176137380Y-116308333D02*
X176137380Y-116879761D01*
X176137380Y-116594047D02*
X175137380Y-116594047D01*
X175280238Y-116689285D01*
X175375476Y-116784523D01*
X175423095Y-116879761D01*
X135767380Y-118308333D02*
X136481666Y-118308333D01*
X136624523Y-118355952D01*
X136719761Y-118451190D01*
X136767380Y-118594047D01*
X136767380Y-118689285D01*
X136767380Y-117260714D02*
X136291190Y-117594047D01*
X136767380Y-117832142D02*
X135767380Y-117832142D01*
X135767380Y-117451190D01*
X135815000Y-117355952D01*
X135862619Y-117308333D01*
X135957857Y-117260714D01*
X136100714Y-117260714D01*
X136195952Y-117308333D01*
X136243571Y-117355952D01*
X136291190Y-117451190D01*
X136291190Y-117832142D01*
X135862619Y-116879761D02*
X135815000Y-116832142D01*
X135767380Y-116736904D01*
X135767380Y-116498809D01*
X135815000Y-116403571D01*
X135862619Y-116355952D01*
X135957857Y-116308333D01*
X136053095Y-116308333D01*
X136195952Y-116355952D01*
X136767380Y-116927380D01*
X136767380Y-116308333D01*
X135961666Y-23792380D02*
X135961666Y-24601904D01*
X136009285Y-24697142D01*
X136056904Y-24744761D01*
X136152142Y-24792380D01*
X136342619Y-24792380D01*
X136437857Y-24744761D01*
X136485476Y-24697142D01*
X136533095Y-24601904D01*
X136533095Y-23792380D01*
X137009285Y-24792380D02*
X137009285Y-23792380D01*
X137247380Y-23792380D01*
X137390238Y-23840000D01*
X137485476Y-23935238D01*
X137533095Y-24030476D01*
X137580714Y-24220952D01*
X137580714Y-24363809D01*
X137533095Y-24554285D01*
X137485476Y-24649523D01*
X137390238Y-24744761D01*
X137247380Y-24792380D01*
X137009285Y-24792380D01*
X138009285Y-24792380D02*
X138009285Y-23792380D01*
X138342619Y-24506666D01*
X138675952Y-23792380D01*
X138675952Y-24792380D01*
X139104523Y-23887619D02*
X139152142Y-23840000D01*
X139247380Y-23792380D01*
X139485476Y-23792380D01*
X139580714Y-23840000D01*
X139628333Y-23887619D01*
X139675952Y-23982857D01*
X139675952Y-24078095D01*
X139628333Y-24220952D01*
X139056904Y-24792380D01*
X139675952Y-24792380D01*
X135961666Y-47287380D02*
X135961666Y-48096904D01*
X136009285Y-48192142D01*
X136056904Y-48239761D01*
X136152142Y-48287380D01*
X136342619Y-48287380D01*
X136437857Y-48239761D01*
X136485476Y-48192142D01*
X136533095Y-48096904D01*
X136533095Y-47287380D01*
X137009285Y-48287380D02*
X137009285Y-47287380D01*
X137247380Y-47287380D01*
X137390238Y-47335000D01*
X137485476Y-47430238D01*
X137533095Y-47525476D01*
X137580714Y-47715952D01*
X137580714Y-47858809D01*
X137533095Y-48049285D01*
X137485476Y-48144523D01*
X137390238Y-48239761D01*
X137247380Y-48287380D01*
X137009285Y-48287380D01*
X138009285Y-48287380D02*
X138009285Y-47287380D01*
X138342619Y-48001666D01*
X138675952Y-47287380D01*
X138675952Y-48287380D01*
X139675952Y-48287380D02*
X139104523Y-48287380D01*
X139390238Y-48287380D02*
X139390238Y-47287380D01*
X139295000Y-47430238D01*
X139199761Y-47525476D01*
X139104523Y-47573095D01*
X40013095Y-118622380D02*
X40013095Y-119431904D01*
X40060714Y-119527142D01*
X40108333Y-119574761D01*
X40203571Y-119622380D01*
X40394047Y-119622380D01*
X40489285Y-119574761D01*
X40536904Y-119527142D01*
X40584523Y-119431904D01*
X40584523Y-118622380D01*
X41632142Y-119527142D02*
X41584523Y-119574761D01*
X41441666Y-119622380D01*
X41346428Y-119622380D01*
X41203571Y-119574761D01*
X41108333Y-119479523D01*
X41060714Y-119384285D01*
X41013095Y-119193809D01*
X41013095Y-119050952D01*
X41060714Y-118860476D01*
X41108333Y-118765238D01*
X41203571Y-118670000D01*
X41346428Y-118622380D01*
X41441666Y-118622380D01*
X41584523Y-118670000D01*
X41632142Y-118717619D01*
X42584523Y-119622380D02*
X42013095Y-119622380D01*
X42298809Y-119622380D02*
X42298809Y-118622380D01*
X42203571Y-118765238D01*
X42108333Y-118860476D01*
X42013095Y-118908095D01*
X88908095Y-96182380D02*
X88908095Y-96991904D01*
X88955714Y-97087142D01*
X89003333Y-97134761D01*
X89098571Y-97182380D01*
X89289047Y-97182380D01*
X89384285Y-97134761D01*
X89431904Y-97087142D01*
X89479523Y-96991904D01*
X89479523Y-96182380D01*
X90527142Y-97087142D02*
X90479523Y-97134761D01*
X90336666Y-97182380D01*
X90241428Y-97182380D01*
X90098571Y-97134761D01*
X90003333Y-97039523D01*
X89955714Y-96944285D01*
X89908095Y-96753809D01*
X89908095Y-96610952D01*
X89955714Y-96420476D01*
X90003333Y-96325238D01*
X90098571Y-96230000D01*
X90241428Y-96182380D01*
X90336666Y-96182380D01*
X90479523Y-96230000D01*
X90527142Y-96277619D01*
X91384285Y-96182380D02*
X91193809Y-96182380D01*
X91098571Y-96230000D01*
X91050952Y-96277619D01*
X90955714Y-96420476D01*
X90908095Y-96610952D01*
X90908095Y-96991904D01*
X90955714Y-97087142D01*
X91003333Y-97134761D01*
X91098571Y-97182380D01*
X91289047Y-97182380D01*
X91384285Y-97134761D01*
X91431904Y-97087142D01*
X91479523Y-96991904D01*
X91479523Y-96753809D01*
X91431904Y-96658571D01*
X91384285Y-96610952D01*
X91289047Y-96563333D01*
X91098571Y-96563333D01*
X91003333Y-96610952D01*
X90955714Y-96658571D01*
X90908095Y-96753809D01*
X88908095Y-65702380D02*
X88908095Y-66511904D01*
X88955714Y-66607142D01*
X89003333Y-66654761D01*
X89098571Y-66702380D01*
X89289047Y-66702380D01*
X89384285Y-66654761D01*
X89431904Y-66607142D01*
X89479523Y-66511904D01*
X89479523Y-65702380D01*
X90527142Y-66607142D02*
X90479523Y-66654761D01*
X90336666Y-66702380D01*
X90241428Y-66702380D01*
X90098571Y-66654761D01*
X90003333Y-66559523D01*
X89955714Y-66464285D01*
X89908095Y-66273809D01*
X89908095Y-66130952D01*
X89955714Y-65940476D01*
X90003333Y-65845238D01*
X90098571Y-65750000D01*
X90241428Y-65702380D01*
X90336666Y-65702380D01*
X90479523Y-65750000D01*
X90527142Y-65797619D01*
X91431904Y-65702380D02*
X90955714Y-65702380D01*
X90908095Y-66178571D01*
X90955714Y-66130952D01*
X91050952Y-66083333D01*
X91289047Y-66083333D01*
X91384285Y-66130952D01*
X91431904Y-66178571D01*
X91479523Y-66273809D01*
X91479523Y-66511904D01*
X91431904Y-66607142D01*
X91384285Y-66654761D01*
X91289047Y-66702380D01*
X91050952Y-66702380D01*
X90955714Y-66654761D01*
X90908095Y-66607142D01*
X40013095Y-88142380D02*
X40013095Y-88951904D01*
X40060714Y-89047142D01*
X40108333Y-89094761D01*
X40203571Y-89142380D01*
X40394047Y-89142380D01*
X40489285Y-89094761D01*
X40536904Y-89047142D01*
X40584523Y-88951904D01*
X40584523Y-88142380D01*
X41632142Y-89047142D02*
X41584523Y-89094761D01*
X41441666Y-89142380D01*
X41346428Y-89142380D01*
X41203571Y-89094761D01*
X41108333Y-88999523D01*
X41060714Y-88904285D01*
X41013095Y-88713809D01*
X41013095Y-88570952D01*
X41060714Y-88380476D01*
X41108333Y-88285238D01*
X41203571Y-88190000D01*
X41346428Y-88142380D01*
X41441666Y-88142380D01*
X41584523Y-88190000D01*
X41632142Y-88237619D01*
X42013095Y-88237619D02*
X42060714Y-88190000D01*
X42155952Y-88142380D01*
X42394047Y-88142380D01*
X42489285Y-88190000D01*
X42536904Y-88237619D01*
X42584523Y-88332857D01*
X42584523Y-88428095D01*
X42536904Y-88570952D01*
X41965476Y-89142380D01*
X42584523Y-89142380D01*
X88908095Y-35222380D02*
X88908095Y-36031904D01*
X88955714Y-36127142D01*
X89003333Y-36174761D01*
X89098571Y-36222380D01*
X89289047Y-36222380D01*
X89384285Y-36174761D01*
X89431904Y-36127142D01*
X89479523Y-36031904D01*
X89479523Y-35222380D01*
X90527142Y-36127142D02*
X90479523Y-36174761D01*
X90336666Y-36222380D01*
X90241428Y-36222380D01*
X90098571Y-36174761D01*
X90003333Y-36079523D01*
X89955714Y-35984285D01*
X89908095Y-35793809D01*
X89908095Y-35650952D01*
X89955714Y-35460476D01*
X90003333Y-35365238D01*
X90098571Y-35270000D01*
X90241428Y-35222380D01*
X90336666Y-35222380D01*
X90479523Y-35270000D01*
X90527142Y-35317619D01*
X91384285Y-35555714D02*
X91384285Y-36222380D01*
X91146190Y-35174761D02*
X90908095Y-35889047D01*
X91527142Y-35889047D01*
X40013095Y-57662380D02*
X40013095Y-58471904D01*
X40060714Y-58567142D01*
X40108333Y-58614761D01*
X40203571Y-58662380D01*
X40394047Y-58662380D01*
X40489285Y-58614761D01*
X40536904Y-58567142D01*
X40584523Y-58471904D01*
X40584523Y-57662380D01*
X41632142Y-58567142D02*
X41584523Y-58614761D01*
X41441666Y-58662380D01*
X41346428Y-58662380D01*
X41203571Y-58614761D01*
X41108333Y-58519523D01*
X41060714Y-58424285D01*
X41013095Y-58233809D01*
X41013095Y-58090952D01*
X41060714Y-57900476D01*
X41108333Y-57805238D01*
X41203571Y-57710000D01*
X41346428Y-57662380D01*
X41441666Y-57662380D01*
X41584523Y-57710000D01*
X41632142Y-57757619D01*
X41965476Y-57662380D02*
X42584523Y-57662380D01*
X42251190Y-58043333D01*
X42394047Y-58043333D01*
X42489285Y-58090952D01*
X42536904Y-58138571D01*
X42584523Y-58233809D01*
X42584523Y-58471904D01*
X42536904Y-58567142D01*
X42489285Y-58614761D01*
X42394047Y-58662380D01*
X42108333Y-58662380D01*
X42013095Y-58614761D01*
X41965476Y-58567142D01*
X77573333Y-93642380D02*
X77573333Y-94451904D01*
X77620952Y-94547142D01*
X77668571Y-94594761D01*
X77763809Y-94642380D01*
X77954285Y-94642380D01*
X78049523Y-94594761D01*
X78097142Y-94547142D01*
X78144761Y-94451904D01*
X78144761Y-93642380D01*
X79097142Y-94642380D02*
X78620952Y-94642380D01*
X78620952Y-93642380D01*
X79859047Y-93642380D02*
X79668571Y-93642380D01*
X79573333Y-93690000D01*
X79525714Y-93737619D01*
X79430476Y-93880476D01*
X79382857Y-94070952D01*
X79382857Y-94451904D01*
X79430476Y-94547142D01*
X79478095Y-94594761D01*
X79573333Y-94642380D01*
X79763809Y-94642380D01*
X79859047Y-94594761D01*
X79906666Y-94547142D01*
X79954285Y-94451904D01*
X79954285Y-94213809D01*
X79906666Y-94118571D01*
X79859047Y-94070952D01*
X79763809Y-94023333D01*
X79573333Y-94023333D01*
X79478095Y-94070952D01*
X79430476Y-94118571D01*
X79382857Y-94213809D01*
X77573333Y-63162380D02*
X77573333Y-63971904D01*
X77620952Y-64067142D01*
X77668571Y-64114761D01*
X77763809Y-64162380D01*
X77954285Y-64162380D01*
X78049523Y-64114761D01*
X78097142Y-64067142D01*
X78144761Y-63971904D01*
X78144761Y-63162380D01*
X79097142Y-64162380D02*
X78620952Y-64162380D01*
X78620952Y-63162380D01*
X79906666Y-63162380D02*
X79430476Y-63162380D01*
X79382857Y-63638571D01*
X79430476Y-63590952D01*
X79525714Y-63543333D01*
X79763809Y-63543333D01*
X79859047Y-63590952D01*
X79906666Y-63638571D01*
X79954285Y-63733809D01*
X79954285Y-63971904D01*
X79906666Y-64067142D01*
X79859047Y-64114761D01*
X79763809Y-64162380D01*
X79525714Y-64162380D01*
X79430476Y-64114761D01*
X79382857Y-64067142D01*
X77573333Y-32682380D02*
X77573333Y-33491904D01*
X77620952Y-33587142D01*
X77668571Y-33634761D01*
X77763809Y-33682380D01*
X77954285Y-33682380D01*
X78049523Y-33634761D01*
X78097142Y-33587142D01*
X78144761Y-33491904D01*
X78144761Y-32682380D01*
X79097142Y-33682380D02*
X78620952Y-33682380D01*
X78620952Y-32682380D01*
X79859047Y-33015714D02*
X79859047Y-33682380D01*
X79620952Y-32634761D02*
X79382857Y-33349047D01*
X80001904Y-33349047D01*
X51538333Y-60202380D02*
X51538333Y-61011904D01*
X51585952Y-61107142D01*
X51633571Y-61154761D01*
X51728809Y-61202380D01*
X51919285Y-61202380D01*
X52014523Y-61154761D01*
X52062142Y-61107142D01*
X52109761Y-61011904D01*
X52109761Y-60202380D01*
X53062142Y-61202380D02*
X52585952Y-61202380D01*
X52585952Y-60202380D01*
X53300238Y-60202380D02*
X53919285Y-60202380D01*
X53585952Y-60583333D01*
X53728809Y-60583333D01*
X53824047Y-60630952D01*
X53871666Y-60678571D01*
X53919285Y-60773809D01*
X53919285Y-61011904D01*
X53871666Y-61107142D01*
X53824047Y-61154761D01*
X53728809Y-61202380D01*
X53443095Y-61202380D01*
X53347857Y-61154761D01*
X53300238Y-61107142D01*
X51538333Y-90682380D02*
X51538333Y-91491904D01*
X51585952Y-91587142D01*
X51633571Y-91634761D01*
X51728809Y-91682380D01*
X51919285Y-91682380D01*
X52014523Y-91634761D01*
X52062142Y-91587142D01*
X52109761Y-91491904D01*
X52109761Y-90682380D01*
X53062142Y-91682380D02*
X52585952Y-91682380D01*
X52585952Y-90682380D01*
X53347857Y-90777619D02*
X53395476Y-90730000D01*
X53490714Y-90682380D01*
X53728809Y-90682380D01*
X53824047Y-90730000D01*
X53871666Y-90777619D01*
X53919285Y-90872857D01*
X53919285Y-90968095D01*
X53871666Y-91110952D01*
X53300238Y-91682380D01*
X53919285Y-91682380D01*
X51538333Y-121162380D02*
X51538333Y-121971904D01*
X51585952Y-122067142D01*
X51633571Y-122114761D01*
X51728809Y-122162380D01*
X51919285Y-122162380D01*
X52014523Y-122114761D01*
X52062142Y-122067142D01*
X52109761Y-121971904D01*
X52109761Y-121162380D01*
X53062142Y-122162380D02*
X52585952Y-122162380D01*
X52585952Y-121162380D01*
X53919285Y-122162380D02*
X53347857Y-122162380D01*
X53633571Y-122162380D02*
X53633571Y-121162380D01*
X53538333Y-121305238D01*
X53443095Y-121400476D01*
X53347857Y-121448095D01*
X156582619Y-106640238D02*
X156535000Y-106735476D01*
X156439761Y-106830714D01*
X156296904Y-106973571D01*
X156249285Y-107068809D01*
X156249285Y-107164047D01*
X156487380Y-107116428D02*
X156439761Y-107211666D01*
X156344523Y-107306904D01*
X156154047Y-107354523D01*
X155820714Y-107354523D01*
X155630238Y-107306904D01*
X155535000Y-107211666D01*
X155487380Y-107116428D01*
X155487380Y-106925952D01*
X155535000Y-106830714D01*
X155630238Y-106735476D01*
X155820714Y-106687857D01*
X156154047Y-106687857D01*
X156344523Y-106735476D01*
X156439761Y-106830714D01*
X156487380Y-106925952D01*
X156487380Y-107116428D01*
X156487380Y-105687857D02*
X156011190Y-106021190D01*
X156487380Y-106259285D02*
X155487380Y-106259285D01*
X155487380Y-105878333D01*
X155535000Y-105783095D01*
X155582619Y-105735476D01*
X155677857Y-105687857D01*
X155820714Y-105687857D01*
X155915952Y-105735476D01*
X155963571Y-105783095D01*
X156011190Y-105878333D01*
X156011190Y-106259285D01*
X155487380Y-104783095D02*
X155487380Y-105259285D01*
X155963571Y-105306904D01*
X155915952Y-105259285D01*
X155868333Y-105164047D01*
X155868333Y-104925952D01*
X155915952Y-104830714D01*
X155963571Y-104783095D01*
X156058809Y-104735476D01*
X156296904Y-104735476D01*
X156392142Y-104783095D01*
X156439761Y-104830714D01*
X156487380Y-104925952D01*
X156487380Y-105164047D01*
X156439761Y-105259285D01*
X156392142Y-105306904D01*
X121022619Y-107116428D02*
X120975000Y-107211666D01*
X120879761Y-107306904D01*
X120736904Y-107449761D01*
X120689285Y-107545000D01*
X120689285Y-107640238D01*
X120927380Y-107592619D02*
X120879761Y-107687857D01*
X120784523Y-107783095D01*
X120594047Y-107830714D01*
X120260714Y-107830714D01*
X120070238Y-107783095D01*
X119975000Y-107687857D01*
X119927380Y-107592619D01*
X119927380Y-107402142D01*
X119975000Y-107306904D01*
X120070238Y-107211666D01*
X120260714Y-107164047D01*
X120594047Y-107164047D01*
X120784523Y-107211666D01*
X120879761Y-107306904D01*
X120927380Y-107402142D01*
X120927380Y-107592619D01*
X120927380Y-106164047D02*
X120451190Y-106497380D01*
X120927380Y-106735476D02*
X119927380Y-106735476D01*
X119927380Y-106354523D01*
X119975000Y-106259285D01*
X120022619Y-106211666D01*
X120117857Y-106164047D01*
X120260714Y-106164047D01*
X120355952Y-106211666D01*
X120403571Y-106259285D01*
X120451190Y-106354523D01*
X120451190Y-106735476D01*
X120927380Y-105211666D02*
X120927380Y-105783095D01*
X120927380Y-105497380D02*
X119927380Y-105497380D01*
X120070238Y-105592619D01*
X120165476Y-105687857D01*
X120213095Y-105783095D01*
X120022619Y-104830714D02*
X119975000Y-104783095D01*
X119927380Y-104687857D01*
X119927380Y-104449761D01*
X119975000Y-104354523D01*
X120022619Y-104306904D01*
X120117857Y-104259285D01*
X120213095Y-104259285D01*
X120355952Y-104306904D01*
X120927380Y-104878333D01*
X120927380Y-104259285D01*
X126102619Y-107116428D02*
X126055000Y-107211666D01*
X125959761Y-107306904D01*
X125816904Y-107449761D01*
X125769285Y-107545000D01*
X125769285Y-107640238D01*
X126007380Y-107592619D02*
X125959761Y-107687857D01*
X125864523Y-107783095D01*
X125674047Y-107830714D01*
X125340714Y-107830714D01*
X125150238Y-107783095D01*
X125055000Y-107687857D01*
X125007380Y-107592619D01*
X125007380Y-107402142D01*
X125055000Y-107306904D01*
X125150238Y-107211666D01*
X125340714Y-107164047D01*
X125674047Y-107164047D01*
X125864523Y-107211666D01*
X125959761Y-107306904D01*
X126007380Y-107402142D01*
X126007380Y-107592619D01*
X126007380Y-106164047D02*
X125531190Y-106497380D01*
X126007380Y-106735476D02*
X125007380Y-106735476D01*
X125007380Y-106354523D01*
X125055000Y-106259285D01*
X125102619Y-106211666D01*
X125197857Y-106164047D01*
X125340714Y-106164047D01*
X125435952Y-106211666D01*
X125483571Y-106259285D01*
X125531190Y-106354523D01*
X125531190Y-106735476D01*
X126007380Y-105211666D02*
X126007380Y-105783095D01*
X126007380Y-105497380D02*
X125007380Y-105497380D01*
X125150238Y-105592619D01*
X125245476Y-105687857D01*
X125293095Y-105783095D01*
X126007380Y-104259285D02*
X126007380Y-104830714D01*
X126007380Y-104545000D02*
X125007380Y-104545000D01*
X125150238Y-104640238D01*
X125245476Y-104735476D01*
X125293095Y-104830714D01*
X131182619Y-107116428D02*
X131135000Y-107211666D01*
X131039761Y-107306904D01*
X130896904Y-107449761D01*
X130849285Y-107545000D01*
X130849285Y-107640238D01*
X131087380Y-107592619D02*
X131039761Y-107687857D01*
X130944523Y-107783095D01*
X130754047Y-107830714D01*
X130420714Y-107830714D01*
X130230238Y-107783095D01*
X130135000Y-107687857D01*
X130087380Y-107592619D01*
X130087380Y-107402142D01*
X130135000Y-107306904D01*
X130230238Y-107211666D01*
X130420714Y-107164047D01*
X130754047Y-107164047D01*
X130944523Y-107211666D01*
X131039761Y-107306904D01*
X131087380Y-107402142D01*
X131087380Y-107592619D01*
X131087380Y-106164047D02*
X130611190Y-106497380D01*
X131087380Y-106735476D02*
X130087380Y-106735476D01*
X130087380Y-106354523D01*
X130135000Y-106259285D01*
X130182619Y-106211666D01*
X130277857Y-106164047D01*
X130420714Y-106164047D01*
X130515952Y-106211666D01*
X130563571Y-106259285D01*
X130611190Y-106354523D01*
X130611190Y-106735476D01*
X131087380Y-105211666D02*
X131087380Y-105783095D01*
X131087380Y-105497380D02*
X130087380Y-105497380D01*
X130230238Y-105592619D01*
X130325476Y-105687857D01*
X130373095Y-105783095D01*
X130087380Y-104592619D02*
X130087380Y-104497380D01*
X130135000Y-104402142D01*
X130182619Y-104354523D01*
X130277857Y-104306904D01*
X130468333Y-104259285D01*
X130706428Y-104259285D01*
X130896904Y-104306904D01*
X130992142Y-104354523D01*
X131039761Y-104402142D01*
X131087380Y-104497380D01*
X131087380Y-104592619D01*
X131039761Y-104687857D01*
X130992142Y-104735476D01*
X130896904Y-104783095D01*
X130706428Y-104830714D01*
X130468333Y-104830714D01*
X130277857Y-104783095D01*
X130182619Y-104735476D01*
X130135000Y-104687857D01*
X130087380Y-104592619D01*
X141342619Y-106640238D02*
X141295000Y-106735476D01*
X141199761Y-106830714D01*
X141056904Y-106973571D01*
X141009285Y-107068809D01*
X141009285Y-107164047D01*
X141247380Y-107116428D02*
X141199761Y-107211666D01*
X141104523Y-107306904D01*
X140914047Y-107354523D01*
X140580714Y-107354523D01*
X140390238Y-107306904D01*
X140295000Y-107211666D01*
X140247380Y-107116428D01*
X140247380Y-106925952D01*
X140295000Y-106830714D01*
X140390238Y-106735476D01*
X140580714Y-106687857D01*
X140914047Y-106687857D01*
X141104523Y-106735476D01*
X141199761Y-106830714D01*
X141247380Y-106925952D01*
X141247380Y-107116428D01*
X141247380Y-105687857D02*
X140771190Y-106021190D01*
X141247380Y-106259285D02*
X140247380Y-106259285D01*
X140247380Y-105878333D01*
X140295000Y-105783095D01*
X140342619Y-105735476D01*
X140437857Y-105687857D01*
X140580714Y-105687857D01*
X140675952Y-105735476D01*
X140723571Y-105783095D01*
X140771190Y-105878333D01*
X140771190Y-106259285D01*
X140675952Y-105116428D02*
X140628333Y-105211666D01*
X140580714Y-105259285D01*
X140485476Y-105306904D01*
X140437857Y-105306904D01*
X140342619Y-105259285D01*
X140295000Y-105211666D01*
X140247380Y-105116428D01*
X140247380Y-104925952D01*
X140295000Y-104830714D01*
X140342619Y-104783095D01*
X140437857Y-104735476D01*
X140485476Y-104735476D01*
X140580714Y-104783095D01*
X140628333Y-104830714D01*
X140675952Y-104925952D01*
X140675952Y-105116428D01*
X140723571Y-105211666D01*
X140771190Y-105259285D01*
X140866428Y-105306904D01*
X141056904Y-105306904D01*
X141152142Y-105259285D01*
X141199761Y-105211666D01*
X141247380Y-105116428D01*
X141247380Y-104925952D01*
X141199761Y-104830714D01*
X141152142Y-104783095D01*
X141056904Y-104735476D01*
X140866428Y-104735476D01*
X140771190Y-104783095D01*
X140723571Y-104830714D01*
X140675952Y-104925952D01*
X146422619Y-106640238D02*
X146375000Y-106735476D01*
X146279761Y-106830714D01*
X146136904Y-106973571D01*
X146089285Y-107068809D01*
X146089285Y-107164047D01*
X146327380Y-107116428D02*
X146279761Y-107211666D01*
X146184523Y-107306904D01*
X145994047Y-107354523D01*
X145660714Y-107354523D01*
X145470238Y-107306904D01*
X145375000Y-107211666D01*
X145327380Y-107116428D01*
X145327380Y-106925952D01*
X145375000Y-106830714D01*
X145470238Y-106735476D01*
X145660714Y-106687857D01*
X145994047Y-106687857D01*
X146184523Y-106735476D01*
X146279761Y-106830714D01*
X146327380Y-106925952D01*
X146327380Y-107116428D01*
X146327380Y-105687857D02*
X145851190Y-106021190D01*
X146327380Y-106259285D02*
X145327380Y-106259285D01*
X145327380Y-105878333D01*
X145375000Y-105783095D01*
X145422619Y-105735476D01*
X145517857Y-105687857D01*
X145660714Y-105687857D01*
X145755952Y-105735476D01*
X145803571Y-105783095D01*
X145851190Y-105878333D01*
X145851190Y-106259285D01*
X145327380Y-105354523D02*
X145327380Y-104687857D01*
X146327380Y-105116428D01*
X136262619Y-106640238D02*
X136215000Y-106735476D01*
X136119761Y-106830714D01*
X135976904Y-106973571D01*
X135929285Y-107068809D01*
X135929285Y-107164047D01*
X136167380Y-107116428D02*
X136119761Y-107211666D01*
X136024523Y-107306904D01*
X135834047Y-107354523D01*
X135500714Y-107354523D01*
X135310238Y-107306904D01*
X135215000Y-107211666D01*
X135167380Y-107116428D01*
X135167380Y-106925952D01*
X135215000Y-106830714D01*
X135310238Y-106735476D01*
X135500714Y-106687857D01*
X135834047Y-106687857D01*
X136024523Y-106735476D01*
X136119761Y-106830714D01*
X136167380Y-106925952D01*
X136167380Y-107116428D01*
X136167380Y-105687857D02*
X135691190Y-106021190D01*
X136167380Y-106259285D02*
X135167380Y-106259285D01*
X135167380Y-105878333D01*
X135215000Y-105783095D01*
X135262619Y-105735476D01*
X135357857Y-105687857D01*
X135500714Y-105687857D01*
X135595952Y-105735476D01*
X135643571Y-105783095D01*
X135691190Y-105878333D01*
X135691190Y-106259285D01*
X136167380Y-105211666D02*
X136167380Y-105021190D01*
X136119761Y-104925952D01*
X136072142Y-104878333D01*
X135929285Y-104783095D01*
X135738809Y-104735476D01*
X135357857Y-104735476D01*
X135262619Y-104783095D01*
X135215000Y-104830714D01*
X135167380Y-104925952D01*
X135167380Y-105116428D01*
X135215000Y-105211666D01*
X135262619Y-105259285D01*
X135357857Y-105306904D01*
X135595952Y-105306904D01*
X135691190Y-105259285D01*
X135738809Y-105211666D01*
X135786428Y-105116428D01*
X135786428Y-104925952D01*
X135738809Y-104830714D01*
X135691190Y-104783095D01*
X135595952Y-104735476D01*
X161662619Y-106640238D02*
X161615000Y-106735476D01*
X161519761Y-106830714D01*
X161376904Y-106973571D01*
X161329285Y-107068809D01*
X161329285Y-107164047D01*
X161567380Y-107116428D02*
X161519761Y-107211666D01*
X161424523Y-107306904D01*
X161234047Y-107354523D01*
X160900714Y-107354523D01*
X160710238Y-107306904D01*
X160615000Y-107211666D01*
X160567380Y-107116428D01*
X160567380Y-106925952D01*
X160615000Y-106830714D01*
X160710238Y-106735476D01*
X160900714Y-106687857D01*
X161234047Y-106687857D01*
X161424523Y-106735476D01*
X161519761Y-106830714D01*
X161567380Y-106925952D01*
X161567380Y-107116428D01*
X161567380Y-105687857D02*
X161091190Y-106021190D01*
X161567380Y-106259285D02*
X160567380Y-106259285D01*
X160567380Y-105878333D01*
X160615000Y-105783095D01*
X160662619Y-105735476D01*
X160757857Y-105687857D01*
X160900714Y-105687857D01*
X160995952Y-105735476D01*
X161043571Y-105783095D01*
X161091190Y-105878333D01*
X161091190Y-106259285D01*
X160900714Y-104830714D02*
X161567380Y-104830714D01*
X160519761Y-105068809D02*
X161234047Y-105306904D01*
X161234047Y-104687857D01*
X166742619Y-106640238D02*
X166695000Y-106735476D01*
X166599761Y-106830714D01*
X166456904Y-106973571D01*
X166409285Y-107068809D01*
X166409285Y-107164047D01*
X166647380Y-107116428D02*
X166599761Y-107211666D01*
X166504523Y-107306904D01*
X166314047Y-107354523D01*
X165980714Y-107354523D01*
X165790238Y-107306904D01*
X165695000Y-107211666D01*
X165647380Y-107116428D01*
X165647380Y-106925952D01*
X165695000Y-106830714D01*
X165790238Y-106735476D01*
X165980714Y-106687857D01*
X166314047Y-106687857D01*
X166504523Y-106735476D01*
X166599761Y-106830714D01*
X166647380Y-106925952D01*
X166647380Y-107116428D01*
X166647380Y-105687857D02*
X166171190Y-106021190D01*
X166647380Y-106259285D02*
X165647380Y-106259285D01*
X165647380Y-105878333D01*
X165695000Y-105783095D01*
X165742619Y-105735476D01*
X165837857Y-105687857D01*
X165980714Y-105687857D01*
X166075952Y-105735476D01*
X166123571Y-105783095D01*
X166171190Y-105878333D01*
X166171190Y-106259285D01*
X165647380Y-105354523D02*
X165647380Y-104735476D01*
X166028333Y-105068809D01*
X166028333Y-104925952D01*
X166075952Y-104830714D01*
X166123571Y-104783095D01*
X166218809Y-104735476D01*
X166456904Y-104735476D01*
X166552142Y-104783095D01*
X166599761Y-104830714D01*
X166647380Y-104925952D01*
X166647380Y-105211666D01*
X166599761Y-105306904D01*
X166552142Y-105354523D01*
X171822619Y-106640238D02*
X171775000Y-106735476D01*
X171679761Y-106830714D01*
X171536904Y-106973571D01*
X171489285Y-107068809D01*
X171489285Y-107164047D01*
X171727380Y-107116428D02*
X171679761Y-107211666D01*
X171584523Y-107306904D01*
X171394047Y-107354523D01*
X171060714Y-107354523D01*
X170870238Y-107306904D01*
X170775000Y-107211666D01*
X170727380Y-107116428D01*
X170727380Y-106925952D01*
X170775000Y-106830714D01*
X170870238Y-106735476D01*
X171060714Y-106687857D01*
X171394047Y-106687857D01*
X171584523Y-106735476D01*
X171679761Y-106830714D01*
X171727380Y-106925952D01*
X171727380Y-107116428D01*
X171727380Y-105687857D02*
X171251190Y-106021190D01*
X171727380Y-106259285D02*
X170727380Y-106259285D01*
X170727380Y-105878333D01*
X170775000Y-105783095D01*
X170822619Y-105735476D01*
X170917857Y-105687857D01*
X171060714Y-105687857D01*
X171155952Y-105735476D01*
X171203571Y-105783095D01*
X171251190Y-105878333D01*
X171251190Y-106259285D01*
X170822619Y-105306904D02*
X170775000Y-105259285D01*
X170727380Y-105164047D01*
X170727380Y-104925952D01*
X170775000Y-104830714D01*
X170822619Y-104783095D01*
X170917857Y-104735476D01*
X171013095Y-104735476D01*
X171155952Y-104783095D01*
X171727380Y-105354523D01*
X171727380Y-104735476D01*
X151502619Y-106640238D02*
X151455000Y-106735476D01*
X151359761Y-106830714D01*
X151216904Y-106973571D01*
X151169285Y-107068809D01*
X151169285Y-107164047D01*
X151407380Y-107116428D02*
X151359761Y-107211666D01*
X151264523Y-107306904D01*
X151074047Y-107354523D01*
X150740714Y-107354523D01*
X150550238Y-107306904D01*
X150455000Y-107211666D01*
X150407380Y-107116428D01*
X150407380Y-106925952D01*
X150455000Y-106830714D01*
X150550238Y-106735476D01*
X150740714Y-106687857D01*
X151074047Y-106687857D01*
X151264523Y-106735476D01*
X151359761Y-106830714D01*
X151407380Y-106925952D01*
X151407380Y-107116428D01*
X151407380Y-105687857D02*
X150931190Y-106021190D01*
X151407380Y-106259285D02*
X150407380Y-106259285D01*
X150407380Y-105878333D01*
X150455000Y-105783095D01*
X150502619Y-105735476D01*
X150597857Y-105687857D01*
X150740714Y-105687857D01*
X150835952Y-105735476D01*
X150883571Y-105783095D01*
X150931190Y-105878333D01*
X150931190Y-106259285D01*
X150407380Y-104830714D02*
X150407380Y-105021190D01*
X150455000Y-105116428D01*
X150502619Y-105164047D01*
X150645476Y-105259285D01*
X150835952Y-105306904D01*
X151216904Y-105306904D01*
X151312142Y-105259285D01*
X151359761Y-105211666D01*
X151407380Y-105116428D01*
X151407380Y-104925952D01*
X151359761Y-104830714D01*
X151312142Y-104783095D01*
X151216904Y-104735476D01*
X150978809Y-104735476D01*
X150883571Y-104783095D01*
X150835952Y-104830714D01*
X150788333Y-104925952D01*
X150788333Y-105116428D01*
X150835952Y-105211666D01*
X150883571Y-105259285D01*
X150978809Y-105306904D01*
X176902619Y-106640238D02*
X176855000Y-106735476D01*
X176759761Y-106830714D01*
X176616904Y-106973571D01*
X176569285Y-107068809D01*
X176569285Y-107164047D01*
X176807380Y-107116428D02*
X176759761Y-107211666D01*
X176664523Y-107306904D01*
X176474047Y-107354523D01*
X176140714Y-107354523D01*
X175950238Y-107306904D01*
X175855000Y-107211666D01*
X175807380Y-107116428D01*
X175807380Y-106925952D01*
X175855000Y-106830714D01*
X175950238Y-106735476D01*
X176140714Y-106687857D01*
X176474047Y-106687857D01*
X176664523Y-106735476D01*
X176759761Y-106830714D01*
X176807380Y-106925952D01*
X176807380Y-107116428D01*
X176807380Y-105687857D02*
X176331190Y-106021190D01*
X176807380Y-106259285D02*
X175807380Y-106259285D01*
X175807380Y-105878333D01*
X175855000Y-105783095D01*
X175902619Y-105735476D01*
X175997857Y-105687857D01*
X176140714Y-105687857D01*
X176235952Y-105735476D01*
X176283571Y-105783095D01*
X176331190Y-105878333D01*
X176331190Y-106259285D01*
X176807380Y-104735476D02*
X176807380Y-105306904D01*
X176807380Y-105021190D02*
X175807380Y-105021190D01*
X175950238Y-105116428D01*
X176045476Y-105211666D01*
X176093095Y-105306904D01*
X29337142Y-39172380D02*
X29003809Y-38696190D01*
X28765714Y-39172380D02*
X28765714Y-38172380D01*
X29146666Y-38172380D01*
X29241904Y-38220000D01*
X29289523Y-38267619D01*
X29337142Y-38362857D01*
X29337142Y-38505714D01*
X29289523Y-38600952D01*
X29241904Y-38648571D01*
X29146666Y-38696190D01*
X28765714Y-38696190D01*
X30337142Y-39077142D02*
X30289523Y-39124761D01*
X30146666Y-39172380D01*
X30051428Y-39172380D01*
X29908571Y-39124761D01*
X29813333Y-39029523D01*
X29765714Y-38934285D01*
X29718095Y-38743809D01*
X29718095Y-38600952D01*
X29765714Y-38410476D01*
X29813333Y-38315238D01*
X29908571Y-38220000D01*
X30051428Y-38172380D01*
X30146666Y-38172380D01*
X30289523Y-38220000D01*
X30337142Y-38267619D01*
X30718095Y-38267619D02*
X30765714Y-38220000D01*
X30860952Y-38172380D01*
X31099047Y-38172380D01*
X31194285Y-38220000D01*
X31241904Y-38267619D01*
X31289523Y-38362857D01*
X31289523Y-38458095D01*
X31241904Y-38600952D01*
X30670476Y-39172380D01*
X31289523Y-39172380D01*
X31622857Y-38172380D02*
X32241904Y-38172380D01*
X31908571Y-38553333D01*
X32051428Y-38553333D01*
X32146666Y-38600952D01*
X32194285Y-38648571D01*
X32241904Y-38743809D01*
X32241904Y-38981904D01*
X32194285Y-39077142D01*
X32146666Y-39124761D01*
X32051428Y-39172380D01*
X31765714Y-39172380D01*
X31670476Y-39124761D01*
X31622857Y-39077142D01*
X29337142Y-67112380D02*
X29003809Y-66636190D01*
X28765714Y-67112380D02*
X28765714Y-66112380D01*
X29146666Y-66112380D01*
X29241904Y-66160000D01*
X29289523Y-66207619D01*
X29337142Y-66302857D01*
X29337142Y-66445714D01*
X29289523Y-66540952D01*
X29241904Y-66588571D01*
X29146666Y-66636190D01*
X28765714Y-66636190D01*
X30337142Y-67017142D02*
X30289523Y-67064761D01*
X30146666Y-67112380D01*
X30051428Y-67112380D01*
X29908571Y-67064761D01*
X29813333Y-66969523D01*
X29765714Y-66874285D01*
X29718095Y-66683809D01*
X29718095Y-66540952D01*
X29765714Y-66350476D01*
X29813333Y-66255238D01*
X29908571Y-66160000D01*
X30051428Y-66112380D01*
X30146666Y-66112380D01*
X30289523Y-66160000D01*
X30337142Y-66207619D01*
X31289523Y-67112380D02*
X30718095Y-67112380D01*
X31003809Y-67112380D02*
X31003809Y-66112380D01*
X30908571Y-66255238D01*
X30813333Y-66350476D01*
X30718095Y-66398095D01*
X32146666Y-66112380D02*
X31956190Y-66112380D01*
X31860952Y-66160000D01*
X31813333Y-66207619D01*
X31718095Y-66350476D01*
X31670476Y-66540952D01*
X31670476Y-66921904D01*
X31718095Y-67017142D01*
X31765714Y-67064761D01*
X31860952Y-67112380D01*
X32051428Y-67112380D01*
X32146666Y-67064761D01*
X32194285Y-67017142D01*
X32241904Y-66921904D01*
X32241904Y-66683809D01*
X32194285Y-66588571D01*
X32146666Y-66540952D01*
X32051428Y-66493333D01*
X31860952Y-66493333D01*
X31765714Y-66540952D01*
X31718095Y-66588571D01*
X31670476Y-66683809D01*
X29337142Y-54412380D02*
X29003809Y-53936190D01*
X28765714Y-54412380D02*
X28765714Y-53412380D01*
X29146666Y-53412380D01*
X29241904Y-53460000D01*
X29289523Y-53507619D01*
X29337142Y-53602857D01*
X29337142Y-53745714D01*
X29289523Y-53840952D01*
X29241904Y-53888571D01*
X29146666Y-53936190D01*
X28765714Y-53936190D01*
X30337142Y-54317142D02*
X30289523Y-54364761D01*
X30146666Y-54412380D01*
X30051428Y-54412380D01*
X29908571Y-54364761D01*
X29813333Y-54269523D01*
X29765714Y-54174285D01*
X29718095Y-53983809D01*
X29718095Y-53840952D01*
X29765714Y-53650476D01*
X29813333Y-53555238D01*
X29908571Y-53460000D01*
X30051428Y-53412380D01*
X30146666Y-53412380D01*
X30289523Y-53460000D01*
X30337142Y-53507619D01*
X31289523Y-54412380D02*
X30718095Y-54412380D01*
X31003809Y-54412380D02*
X31003809Y-53412380D01*
X30908571Y-53555238D01*
X30813333Y-53650476D01*
X30718095Y-53698095D01*
X31622857Y-53412380D02*
X32289523Y-53412380D01*
X31860952Y-54412380D01*
X29337142Y-51872380D02*
X29003809Y-51396190D01*
X28765714Y-51872380D02*
X28765714Y-50872380D01*
X29146666Y-50872380D01*
X29241904Y-50920000D01*
X29289523Y-50967619D01*
X29337142Y-51062857D01*
X29337142Y-51205714D01*
X29289523Y-51300952D01*
X29241904Y-51348571D01*
X29146666Y-51396190D01*
X28765714Y-51396190D01*
X30337142Y-51777142D02*
X30289523Y-51824761D01*
X30146666Y-51872380D01*
X30051428Y-51872380D01*
X29908571Y-51824761D01*
X29813333Y-51729523D01*
X29765714Y-51634285D01*
X29718095Y-51443809D01*
X29718095Y-51300952D01*
X29765714Y-51110476D01*
X29813333Y-51015238D01*
X29908571Y-50920000D01*
X30051428Y-50872380D01*
X30146666Y-50872380D01*
X30289523Y-50920000D01*
X30337142Y-50967619D01*
X31289523Y-51872380D02*
X30718095Y-51872380D01*
X31003809Y-51872380D02*
X31003809Y-50872380D01*
X30908571Y-51015238D01*
X30813333Y-51110476D01*
X30718095Y-51158095D01*
X31860952Y-51300952D02*
X31765714Y-51253333D01*
X31718095Y-51205714D01*
X31670476Y-51110476D01*
X31670476Y-51062857D01*
X31718095Y-50967619D01*
X31765714Y-50920000D01*
X31860952Y-50872380D01*
X32051428Y-50872380D01*
X32146666Y-50920000D01*
X32194285Y-50967619D01*
X32241904Y-51062857D01*
X32241904Y-51110476D01*
X32194285Y-51205714D01*
X32146666Y-51253333D01*
X32051428Y-51300952D01*
X31860952Y-51300952D01*
X31765714Y-51348571D01*
X31718095Y-51396190D01*
X31670476Y-51491428D01*
X31670476Y-51681904D01*
X31718095Y-51777142D01*
X31765714Y-51824761D01*
X31860952Y-51872380D01*
X32051428Y-51872380D01*
X32146666Y-51824761D01*
X32194285Y-51777142D01*
X32241904Y-51681904D01*
X32241904Y-51491428D01*
X32194285Y-51396190D01*
X32146666Y-51348571D01*
X32051428Y-51300952D01*
X29337142Y-49332380D02*
X29003809Y-48856190D01*
X28765714Y-49332380D02*
X28765714Y-48332380D01*
X29146666Y-48332380D01*
X29241904Y-48380000D01*
X29289523Y-48427619D01*
X29337142Y-48522857D01*
X29337142Y-48665714D01*
X29289523Y-48760952D01*
X29241904Y-48808571D01*
X29146666Y-48856190D01*
X28765714Y-48856190D01*
X30337142Y-49237142D02*
X30289523Y-49284761D01*
X30146666Y-49332380D01*
X30051428Y-49332380D01*
X29908571Y-49284761D01*
X29813333Y-49189523D01*
X29765714Y-49094285D01*
X29718095Y-48903809D01*
X29718095Y-48760952D01*
X29765714Y-48570476D01*
X29813333Y-48475238D01*
X29908571Y-48380000D01*
X30051428Y-48332380D01*
X30146666Y-48332380D01*
X30289523Y-48380000D01*
X30337142Y-48427619D01*
X31289523Y-49332380D02*
X30718095Y-49332380D01*
X31003809Y-49332380D02*
X31003809Y-48332380D01*
X30908571Y-48475238D01*
X30813333Y-48570476D01*
X30718095Y-48618095D01*
X31765714Y-49332380D02*
X31956190Y-49332380D01*
X32051428Y-49284761D01*
X32099047Y-49237142D01*
X32194285Y-49094285D01*
X32241904Y-48903809D01*
X32241904Y-48522857D01*
X32194285Y-48427619D01*
X32146666Y-48380000D01*
X32051428Y-48332380D01*
X31860952Y-48332380D01*
X31765714Y-48380000D01*
X31718095Y-48427619D01*
X31670476Y-48522857D01*
X31670476Y-48760952D01*
X31718095Y-48856190D01*
X31765714Y-48903809D01*
X31860952Y-48951428D01*
X32051428Y-48951428D01*
X32146666Y-48903809D01*
X32194285Y-48856190D01*
X32241904Y-48760952D01*
X29337142Y-46792380D02*
X29003809Y-46316190D01*
X28765714Y-46792380D02*
X28765714Y-45792380D01*
X29146666Y-45792380D01*
X29241904Y-45840000D01*
X29289523Y-45887619D01*
X29337142Y-45982857D01*
X29337142Y-46125714D01*
X29289523Y-46220952D01*
X29241904Y-46268571D01*
X29146666Y-46316190D01*
X28765714Y-46316190D01*
X30337142Y-46697142D02*
X30289523Y-46744761D01*
X30146666Y-46792380D01*
X30051428Y-46792380D01*
X29908571Y-46744761D01*
X29813333Y-46649523D01*
X29765714Y-46554285D01*
X29718095Y-46363809D01*
X29718095Y-46220952D01*
X29765714Y-46030476D01*
X29813333Y-45935238D01*
X29908571Y-45840000D01*
X30051428Y-45792380D01*
X30146666Y-45792380D01*
X30289523Y-45840000D01*
X30337142Y-45887619D01*
X30718095Y-45887619D02*
X30765714Y-45840000D01*
X30860952Y-45792380D01*
X31099047Y-45792380D01*
X31194285Y-45840000D01*
X31241904Y-45887619D01*
X31289523Y-45982857D01*
X31289523Y-46078095D01*
X31241904Y-46220952D01*
X30670476Y-46792380D01*
X31289523Y-46792380D01*
X31908571Y-45792380D02*
X32003809Y-45792380D01*
X32099047Y-45840000D01*
X32146666Y-45887619D01*
X32194285Y-45982857D01*
X32241904Y-46173333D01*
X32241904Y-46411428D01*
X32194285Y-46601904D01*
X32146666Y-46697142D01*
X32099047Y-46744761D01*
X32003809Y-46792380D01*
X31908571Y-46792380D01*
X31813333Y-46744761D01*
X31765714Y-46697142D01*
X31718095Y-46601904D01*
X31670476Y-46411428D01*
X31670476Y-46173333D01*
X31718095Y-45982857D01*
X31765714Y-45887619D01*
X31813333Y-45840000D01*
X31908571Y-45792380D01*
X29337142Y-44252380D02*
X29003809Y-43776190D01*
X28765714Y-44252380D02*
X28765714Y-43252380D01*
X29146666Y-43252380D01*
X29241904Y-43300000D01*
X29289523Y-43347619D01*
X29337142Y-43442857D01*
X29337142Y-43585714D01*
X29289523Y-43680952D01*
X29241904Y-43728571D01*
X29146666Y-43776190D01*
X28765714Y-43776190D01*
X30337142Y-44157142D02*
X30289523Y-44204761D01*
X30146666Y-44252380D01*
X30051428Y-44252380D01*
X29908571Y-44204761D01*
X29813333Y-44109523D01*
X29765714Y-44014285D01*
X29718095Y-43823809D01*
X29718095Y-43680952D01*
X29765714Y-43490476D01*
X29813333Y-43395238D01*
X29908571Y-43300000D01*
X30051428Y-43252380D01*
X30146666Y-43252380D01*
X30289523Y-43300000D01*
X30337142Y-43347619D01*
X30718095Y-43347619D02*
X30765714Y-43300000D01*
X30860952Y-43252380D01*
X31099047Y-43252380D01*
X31194285Y-43300000D01*
X31241904Y-43347619D01*
X31289523Y-43442857D01*
X31289523Y-43538095D01*
X31241904Y-43680952D01*
X30670476Y-44252380D01*
X31289523Y-44252380D01*
X32241904Y-44252380D02*
X31670476Y-44252380D01*
X31956190Y-44252380D02*
X31956190Y-43252380D01*
X31860952Y-43395238D01*
X31765714Y-43490476D01*
X31670476Y-43538095D01*
X29337142Y-41712380D02*
X29003809Y-41236190D01*
X28765714Y-41712380D02*
X28765714Y-40712380D01*
X29146666Y-40712380D01*
X29241904Y-40760000D01*
X29289523Y-40807619D01*
X29337142Y-40902857D01*
X29337142Y-41045714D01*
X29289523Y-41140952D01*
X29241904Y-41188571D01*
X29146666Y-41236190D01*
X28765714Y-41236190D01*
X30337142Y-41617142D02*
X30289523Y-41664761D01*
X30146666Y-41712380D01*
X30051428Y-41712380D01*
X29908571Y-41664761D01*
X29813333Y-41569523D01*
X29765714Y-41474285D01*
X29718095Y-41283809D01*
X29718095Y-41140952D01*
X29765714Y-40950476D01*
X29813333Y-40855238D01*
X29908571Y-40760000D01*
X30051428Y-40712380D01*
X30146666Y-40712380D01*
X30289523Y-40760000D01*
X30337142Y-40807619D01*
X30718095Y-40807619D02*
X30765714Y-40760000D01*
X30860952Y-40712380D01*
X31099047Y-40712380D01*
X31194285Y-40760000D01*
X31241904Y-40807619D01*
X31289523Y-40902857D01*
X31289523Y-40998095D01*
X31241904Y-41140952D01*
X30670476Y-41712380D01*
X31289523Y-41712380D01*
X31670476Y-40807619D02*
X31718095Y-40760000D01*
X31813333Y-40712380D01*
X32051428Y-40712380D01*
X32146666Y-40760000D01*
X32194285Y-40807619D01*
X32241904Y-40902857D01*
X32241904Y-40998095D01*
X32194285Y-41140952D01*
X31622857Y-41712380D01*
X32241904Y-41712380D01*
X174457380Y-98321666D02*
X173981190Y-98655000D01*
X174457380Y-98893095D02*
X173457380Y-98893095D01*
X173457380Y-98512142D01*
X173505000Y-98416904D01*
X173552619Y-98369285D01*
X173647857Y-98321666D01*
X173790714Y-98321666D01*
X173885952Y-98369285D01*
X173933571Y-98416904D01*
X173981190Y-98512142D01*
X173981190Y-98893095D01*
X174457380Y-97321666D02*
X173981190Y-97655000D01*
X174457380Y-97893095D02*
X173457380Y-97893095D01*
X173457380Y-97512142D01*
X173505000Y-97416904D01*
X173552619Y-97369285D01*
X173647857Y-97321666D01*
X173790714Y-97321666D01*
X173885952Y-97369285D01*
X173933571Y-97416904D01*
X173981190Y-97512142D01*
X173981190Y-97893095D01*
X173933571Y-96559761D02*
X173981190Y-96416904D01*
X174028809Y-96369285D01*
X174124047Y-96321666D01*
X174266904Y-96321666D01*
X174362142Y-96369285D01*
X174409761Y-96416904D01*
X174457380Y-96512142D01*
X174457380Y-96893095D01*
X173457380Y-96893095D01*
X173457380Y-96559761D01*
X173505000Y-96464523D01*
X173552619Y-96416904D01*
X173647857Y-96369285D01*
X173743095Y-96369285D01*
X173838333Y-96416904D01*
X173885952Y-96464523D01*
X173933571Y-96559761D01*
X173933571Y-96893095D01*
X174457380Y-95369285D02*
X174457380Y-95940714D01*
X174457380Y-95655000D02*
X173457380Y-95655000D01*
X173600238Y-95750238D01*
X173695476Y-95845476D01*
X173743095Y-95940714D01*
X29337142Y-36632380D02*
X29003809Y-36156190D01*
X28765714Y-36632380D02*
X28765714Y-35632380D01*
X29146666Y-35632380D01*
X29241904Y-35680000D01*
X29289523Y-35727619D01*
X29337142Y-35822857D01*
X29337142Y-35965714D01*
X29289523Y-36060952D01*
X29241904Y-36108571D01*
X29146666Y-36156190D01*
X28765714Y-36156190D01*
X30337142Y-36537142D02*
X30289523Y-36584761D01*
X30146666Y-36632380D01*
X30051428Y-36632380D01*
X29908571Y-36584761D01*
X29813333Y-36489523D01*
X29765714Y-36394285D01*
X29718095Y-36203809D01*
X29718095Y-36060952D01*
X29765714Y-35870476D01*
X29813333Y-35775238D01*
X29908571Y-35680000D01*
X30051428Y-35632380D01*
X30146666Y-35632380D01*
X30289523Y-35680000D01*
X30337142Y-35727619D01*
X30718095Y-35727619D02*
X30765714Y-35680000D01*
X30860952Y-35632380D01*
X31099047Y-35632380D01*
X31194285Y-35680000D01*
X31241904Y-35727619D01*
X31289523Y-35822857D01*
X31289523Y-35918095D01*
X31241904Y-36060952D01*
X30670476Y-36632380D01*
X31289523Y-36632380D01*
X32146666Y-35965714D02*
X32146666Y-36632380D01*
X31908571Y-35584761D02*
X31670476Y-36299047D01*
X32289523Y-36299047D01*
X29337142Y-74732380D02*
X29003809Y-74256190D01*
X28765714Y-74732380D02*
X28765714Y-73732380D01*
X29146666Y-73732380D01*
X29241904Y-73780000D01*
X29289523Y-73827619D01*
X29337142Y-73922857D01*
X29337142Y-74065714D01*
X29289523Y-74160952D01*
X29241904Y-74208571D01*
X29146666Y-74256190D01*
X28765714Y-74256190D01*
X30337142Y-74637142D02*
X30289523Y-74684761D01*
X30146666Y-74732380D01*
X30051428Y-74732380D01*
X29908571Y-74684761D01*
X29813333Y-74589523D01*
X29765714Y-74494285D01*
X29718095Y-74303809D01*
X29718095Y-74160952D01*
X29765714Y-73970476D01*
X29813333Y-73875238D01*
X29908571Y-73780000D01*
X30051428Y-73732380D01*
X30146666Y-73732380D01*
X30289523Y-73780000D01*
X30337142Y-73827619D01*
X31289523Y-74732380D02*
X30718095Y-74732380D01*
X31003809Y-74732380D02*
X31003809Y-73732380D01*
X30908571Y-73875238D01*
X30813333Y-73970476D01*
X30718095Y-74018095D01*
X31622857Y-73732380D02*
X32241904Y-73732380D01*
X31908571Y-74113333D01*
X32051428Y-74113333D01*
X32146666Y-74160952D01*
X32194285Y-74208571D01*
X32241904Y-74303809D01*
X32241904Y-74541904D01*
X32194285Y-74637142D01*
X32146666Y-74684761D01*
X32051428Y-74732380D01*
X31765714Y-74732380D01*
X31670476Y-74684761D01*
X31622857Y-74637142D01*
X29337142Y-72192380D02*
X29003809Y-71716190D01*
X28765714Y-72192380D02*
X28765714Y-71192380D01*
X29146666Y-71192380D01*
X29241904Y-71240000D01*
X29289523Y-71287619D01*
X29337142Y-71382857D01*
X29337142Y-71525714D01*
X29289523Y-71620952D01*
X29241904Y-71668571D01*
X29146666Y-71716190D01*
X28765714Y-71716190D01*
X30337142Y-72097142D02*
X30289523Y-72144761D01*
X30146666Y-72192380D01*
X30051428Y-72192380D01*
X29908571Y-72144761D01*
X29813333Y-72049523D01*
X29765714Y-71954285D01*
X29718095Y-71763809D01*
X29718095Y-71620952D01*
X29765714Y-71430476D01*
X29813333Y-71335238D01*
X29908571Y-71240000D01*
X30051428Y-71192380D01*
X30146666Y-71192380D01*
X30289523Y-71240000D01*
X30337142Y-71287619D01*
X31289523Y-72192380D02*
X30718095Y-72192380D01*
X31003809Y-72192380D02*
X31003809Y-71192380D01*
X30908571Y-71335238D01*
X30813333Y-71430476D01*
X30718095Y-71478095D01*
X32146666Y-71525714D02*
X32146666Y-72192380D01*
X31908571Y-71144761D02*
X31670476Y-71859047D01*
X32289523Y-71859047D01*
X29337142Y-77272380D02*
X29003809Y-76796190D01*
X28765714Y-77272380D02*
X28765714Y-76272380D01*
X29146666Y-76272380D01*
X29241904Y-76320000D01*
X29289523Y-76367619D01*
X29337142Y-76462857D01*
X29337142Y-76605714D01*
X29289523Y-76700952D01*
X29241904Y-76748571D01*
X29146666Y-76796190D01*
X28765714Y-76796190D01*
X30337142Y-77177142D02*
X30289523Y-77224761D01*
X30146666Y-77272380D01*
X30051428Y-77272380D01*
X29908571Y-77224761D01*
X29813333Y-77129523D01*
X29765714Y-77034285D01*
X29718095Y-76843809D01*
X29718095Y-76700952D01*
X29765714Y-76510476D01*
X29813333Y-76415238D01*
X29908571Y-76320000D01*
X30051428Y-76272380D01*
X30146666Y-76272380D01*
X30289523Y-76320000D01*
X30337142Y-76367619D01*
X31289523Y-77272380D02*
X30718095Y-77272380D01*
X31003809Y-77272380D02*
X31003809Y-76272380D01*
X30908571Y-76415238D01*
X30813333Y-76510476D01*
X30718095Y-76558095D01*
X31670476Y-76367619D02*
X31718095Y-76320000D01*
X31813333Y-76272380D01*
X32051428Y-76272380D01*
X32146666Y-76320000D01*
X32194285Y-76367619D01*
X32241904Y-76462857D01*
X32241904Y-76558095D01*
X32194285Y-76700952D01*
X31622857Y-77272380D01*
X32241904Y-77272380D01*
X29337142Y-79812380D02*
X29003809Y-79336190D01*
X28765714Y-79812380D02*
X28765714Y-78812380D01*
X29146666Y-78812380D01*
X29241904Y-78860000D01*
X29289523Y-78907619D01*
X29337142Y-79002857D01*
X29337142Y-79145714D01*
X29289523Y-79240952D01*
X29241904Y-79288571D01*
X29146666Y-79336190D01*
X28765714Y-79336190D01*
X30337142Y-79717142D02*
X30289523Y-79764761D01*
X30146666Y-79812380D01*
X30051428Y-79812380D01*
X29908571Y-79764761D01*
X29813333Y-79669523D01*
X29765714Y-79574285D01*
X29718095Y-79383809D01*
X29718095Y-79240952D01*
X29765714Y-79050476D01*
X29813333Y-78955238D01*
X29908571Y-78860000D01*
X30051428Y-78812380D01*
X30146666Y-78812380D01*
X30289523Y-78860000D01*
X30337142Y-78907619D01*
X31289523Y-79812380D02*
X30718095Y-79812380D01*
X31003809Y-79812380D02*
X31003809Y-78812380D01*
X30908571Y-78955238D01*
X30813333Y-79050476D01*
X30718095Y-79098095D01*
X32241904Y-79812380D02*
X31670476Y-79812380D01*
X31956190Y-79812380D02*
X31956190Y-78812380D01*
X31860952Y-78955238D01*
X31765714Y-79050476D01*
X31670476Y-79098095D01*
X29337142Y-82352380D02*
X29003809Y-81876190D01*
X28765714Y-82352380D02*
X28765714Y-81352380D01*
X29146666Y-81352380D01*
X29241904Y-81400000D01*
X29289523Y-81447619D01*
X29337142Y-81542857D01*
X29337142Y-81685714D01*
X29289523Y-81780952D01*
X29241904Y-81828571D01*
X29146666Y-81876190D01*
X28765714Y-81876190D01*
X30337142Y-82257142D02*
X30289523Y-82304761D01*
X30146666Y-82352380D01*
X30051428Y-82352380D01*
X29908571Y-82304761D01*
X29813333Y-82209523D01*
X29765714Y-82114285D01*
X29718095Y-81923809D01*
X29718095Y-81780952D01*
X29765714Y-81590476D01*
X29813333Y-81495238D01*
X29908571Y-81400000D01*
X30051428Y-81352380D01*
X30146666Y-81352380D01*
X30289523Y-81400000D01*
X30337142Y-81447619D01*
X31289523Y-82352380D02*
X30718095Y-82352380D01*
X31003809Y-82352380D02*
X31003809Y-81352380D01*
X30908571Y-81495238D01*
X30813333Y-81590476D01*
X30718095Y-81638095D01*
X31908571Y-81352380D02*
X32003809Y-81352380D01*
X32099047Y-81400000D01*
X32146666Y-81447619D01*
X32194285Y-81542857D01*
X32241904Y-81733333D01*
X32241904Y-81971428D01*
X32194285Y-82161904D01*
X32146666Y-82257142D01*
X32099047Y-82304761D01*
X32003809Y-82352380D01*
X31908571Y-82352380D01*
X31813333Y-82304761D01*
X31765714Y-82257142D01*
X31718095Y-82161904D01*
X31670476Y-81971428D01*
X31670476Y-81733333D01*
X31718095Y-81542857D01*
X31765714Y-81447619D01*
X31813333Y-81400000D01*
X31908571Y-81352380D01*
X29813333Y-84892380D02*
X29480000Y-84416190D01*
X29241904Y-84892380D02*
X29241904Y-83892380D01*
X29622857Y-83892380D01*
X29718095Y-83940000D01*
X29765714Y-83987619D01*
X29813333Y-84082857D01*
X29813333Y-84225714D01*
X29765714Y-84320952D01*
X29718095Y-84368571D01*
X29622857Y-84416190D01*
X29241904Y-84416190D01*
X30813333Y-84797142D02*
X30765714Y-84844761D01*
X30622857Y-84892380D01*
X30527619Y-84892380D01*
X30384761Y-84844761D01*
X30289523Y-84749523D01*
X30241904Y-84654285D01*
X30194285Y-84463809D01*
X30194285Y-84320952D01*
X30241904Y-84130476D01*
X30289523Y-84035238D01*
X30384761Y-83940000D01*
X30527619Y-83892380D01*
X30622857Y-83892380D01*
X30765714Y-83940000D01*
X30813333Y-83987619D01*
X31289523Y-84892380D02*
X31480000Y-84892380D01*
X31575238Y-84844761D01*
X31622857Y-84797142D01*
X31718095Y-84654285D01*
X31765714Y-84463809D01*
X31765714Y-84082857D01*
X31718095Y-83987619D01*
X31670476Y-83940000D01*
X31575238Y-83892380D01*
X31384761Y-83892380D01*
X31289523Y-83940000D01*
X31241904Y-83987619D01*
X31194285Y-84082857D01*
X31194285Y-84320952D01*
X31241904Y-84416190D01*
X31289523Y-84463809D01*
X31384761Y-84511428D01*
X31575238Y-84511428D01*
X31670476Y-84463809D01*
X31718095Y-84416190D01*
X31765714Y-84320952D01*
X29337142Y-69652380D02*
X29003809Y-69176190D01*
X28765714Y-69652380D02*
X28765714Y-68652380D01*
X29146666Y-68652380D01*
X29241904Y-68700000D01*
X29289523Y-68747619D01*
X29337142Y-68842857D01*
X29337142Y-68985714D01*
X29289523Y-69080952D01*
X29241904Y-69128571D01*
X29146666Y-69176190D01*
X28765714Y-69176190D01*
X30337142Y-69557142D02*
X30289523Y-69604761D01*
X30146666Y-69652380D01*
X30051428Y-69652380D01*
X29908571Y-69604761D01*
X29813333Y-69509523D01*
X29765714Y-69414285D01*
X29718095Y-69223809D01*
X29718095Y-69080952D01*
X29765714Y-68890476D01*
X29813333Y-68795238D01*
X29908571Y-68700000D01*
X30051428Y-68652380D01*
X30146666Y-68652380D01*
X30289523Y-68700000D01*
X30337142Y-68747619D01*
X31289523Y-69652380D02*
X30718095Y-69652380D01*
X31003809Y-69652380D02*
X31003809Y-68652380D01*
X30908571Y-68795238D01*
X30813333Y-68890476D01*
X30718095Y-68938095D01*
X32194285Y-68652380D02*
X31718095Y-68652380D01*
X31670476Y-69128571D01*
X31718095Y-69080952D01*
X31813333Y-69033333D01*
X32051428Y-69033333D01*
X32146666Y-69080952D01*
X32194285Y-69128571D01*
X32241904Y-69223809D01*
X32241904Y-69461904D01*
X32194285Y-69557142D01*
X32146666Y-69604761D01*
X32051428Y-69652380D01*
X31813333Y-69652380D01*
X31718095Y-69604761D01*
X31670476Y-69557142D01*
X99822142Y-103972380D02*
X99488809Y-103496190D01*
X99250714Y-103972380D02*
X99250714Y-102972380D01*
X99631666Y-102972380D01*
X99726904Y-103020000D01*
X99774523Y-103067619D01*
X99822142Y-103162857D01*
X99822142Y-103305714D01*
X99774523Y-103400952D01*
X99726904Y-103448571D01*
X99631666Y-103496190D01*
X99250714Y-103496190D01*
X100822142Y-103877142D02*
X100774523Y-103924761D01*
X100631666Y-103972380D01*
X100536428Y-103972380D01*
X100393571Y-103924761D01*
X100298333Y-103829523D01*
X100250714Y-103734285D01*
X100203095Y-103543809D01*
X100203095Y-103400952D01*
X100250714Y-103210476D01*
X100298333Y-103115238D01*
X100393571Y-103020000D01*
X100536428Y-102972380D01*
X100631666Y-102972380D01*
X100774523Y-103020000D01*
X100822142Y-103067619D01*
X101679285Y-103305714D02*
X101679285Y-103972380D01*
X101441190Y-102924761D02*
X101203095Y-103639047D01*
X101822142Y-103639047D01*
X102155476Y-103067619D02*
X102203095Y-103020000D01*
X102298333Y-102972380D01*
X102536428Y-102972380D01*
X102631666Y-103020000D01*
X102679285Y-103067619D01*
X102726904Y-103162857D01*
X102726904Y-103258095D01*
X102679285Y-103400952D01*
X102107857Y-103972380D01*
X102726904Y-103972380D01*
X159217380Y-98321666D02*
X158741190Y-98655000D01*
X159217380Y-98893095D02*
X158217380Y-98893095D01*
X158217380Y-98512142D01*
X158265000Y-98416904D01*
X158312619Y-98369285D01*
X158407857Y-98321666D01*
X158550714Y-98321666D01*
X158645952Y-98369285D01*
X158693571Y-98416904D01*
X158741190Y-98512142D01*
X158741190Y-98893095D01*
X159217380Y-97321666D02*
X158741190Y-97655000D01*
X159217380Y-97893095D02*
X158217380Y-97893095D01*
X158217380Y-97512142D01*
X158265000Y-97416904D01*
X158312619Y-97369285D01*
X158407857Y-97321666D01*
X158550714Y-97321666D01*
X158645952Y-97369285D01*
X158693571Y-97416904D01*
X158741190Y-97512142D01*
X158741190Y-97893095D01*
X158693571Y-96559761D02*
X158741190Y-96416904D01*
X158788809Y-96369285D01*
X158884047Y-96321666D01*
X159026904Y-96321666D01*
X159122142Y-96369285D01*
X159169761Y-96416904D01*
X159217380Y-96512142D01*
X159217380Y-96893095D01*
X158217380Y-96893095D01*
X158217380Y-96559761D01*
X158265000Y-96464523D01*
X158312619Y-96416904D01*
X158407857Y-96369285D01*
X158503095Y-96369285D01*
X158598333Y-96416904D01*
X158645952Y-96464523D01*
X158693571Y-96559761D01*
X158693571Y-96893095D01*
X158550714Y-95464523D02*
X159217380Y-95464523D01*
X158169761Y-95702619D02*
X158884047Y-95940714D01*
X158884047Y-95321666D01*
X29813333Y-105212380D02*
X29480000Y-104736190D01*
X29241904Y-105212380D02*
X29241904Y-104212380D01*
X29622857Y-104212380D01*
X29718095Y-104260000D01*
X29765714Y-104307619D01*
X29813333Y-104402857D01*
X29813333Y-104545714D01*
X29765714Y-104640952D01*
X29718095Y-104688571D01*
X29622857Y-104736190D01*
X29241904Y-104736190D01*
X30813333Y-105117142D02*
X30765714Y-105164761D01*
X30622857Y-105212380D01*
X30527619Y-105212380D01*
X30384761Y-105164761D01*
X30289523Y-105069523D01*
X30241904Y-104974285D01*
X30194285Y-104783809D01*
X30194285Y-104640952D01*
X30241904Y-104450476D01*
X30289523Y-104355238D01*
X30384761Y-104260000D01*
X30527619Y-104212380D01*
X30622857Y-104212380D01*
X30765714Y-104260000D01*
X30813333Y-104307619D01*
X31718095Y-104212380D02*
X31241904Y-104212380D01*
X31194285Y-104688571D01*
X31241904Y-104640952D01*
X31337142Y-104593333D01*
X31575238Y-104593333D01*
X31670476Y-104640952D01*
X31718095Y-104688571D01*
X31765714Y-104783809D01*
X31765714Y-105021904D01*
X31718095Y-105117142D01*
X31670476Y-105164761D01*
X31575238Y-105212380D01*
X31337142Y-105212380D01*
X31241904Y-105164761D01*
X31194285Y-105117142D01*
X29813333Y-107752380D02*
X29480000Y-107276190D01*
X29241904Y-107752380D02*
X29241904Y-106752380D01*
X29622857Y-106752380D01*
X29718095Y-106800000D01*
X29765714Y-106847619D01*
X29813333Y-106942857D01*
X29813333Y-107085714D01*
X29765714Y-107180952D01*
X29718095Y-107228571D01*
X29622857Y-107276190D01*
X29241904Y-107276190D01*
X30813333Y-107657142D02*
X30765714Y-107704761D01*
X30622857Y-107752380D01*
X30527619Y-107752380D01*
X30384761Y-107704761D01*
X30289523Y-107609523D01*
X30241904Y-107514285D01*
X30194285Y-107323809D01*
X30194285Y-107180952D01*
X30241904Y-106990476D01*
X30289523Y-106895238D01*
X30384761Y-106800000D01*
X30527619Y-106752380D01*
X30622857Y-106752380D01*
X30765714Y-106800000D01*
X30813333Y-106847619D01*
X31670476Y-107085714D02*
X31670476Y-107752380D01*
X31432380Y-106704761D02*
X31194285Y-107419047D01*
X31813333Y-107419047D01*
X29813333Y-110292380D02*
X29480000Y-109816190D01*
X29241904Y-110292380D02*
X29241904Y-109292380D01*
X29622857Y-109292380D01*
X29718095Y-109340000D01*
X29765714Y-109387619D01*
X29813333Y-109482857D01*
X29813333Y-109625714D01*
X29765714Y-109720952D01*
X29718095Y-109768571D01*
X29622857Y-109816190D01*
X29241904Y-109816190D01*
X30813333Y-110197142D02*
X30765714Y-110244761D01*
X30622857Y-110292380D01*
X30527619Y-110292380D01*
X30384761Y-110244761D01*
X30289523Y-110149523D01*
X30241904Y-110054285D01*
X30194285Y-109863809D01*
X30194285Y-109720952D01*
X30241904Y-109530476D01*
X30289523Y-109435238D01*
X30384761Y-109340000D01*
X30527619Y-109292380D01*
X30622857Y-109292380D01*
X30765714Y-109340000D01*
X30813333Y-109387619D01*
X31146666Y-109292380D02*
X31765714Y-109292380D01*
X31432380Y-109673333D01*
X31575238Y-109673333D01*
X31670476Y-109720952D01*
X31718095Y-109768571D01*
X31765714Y-109863809D01*
X31765714Y-110101904D01*
X31718095Y-110197142D01*
X31670476Y-110244761D01*
X31575238Y-110292380D01*
X31289523Y-110292380D01*
X31194285Y-110244761D01*
X31146666Y-110197142D01*
X29813333Y-112832380D02*
X29480000Y-112356190D01*
X29241904Y-112832380D02*
X29241904Y-111832380D01*
X29622857Y-111832380D01*
X29718095Y-111880000D01*
X29765714Y-111927619D01*
X29813333Y-112022857D01*
X29813333Y-112165714D01*
X29765714Y-112260952D01*
X29718095Y-112308571D01*
X29622857Y-112356190D01*
X29241904Y-112356190D01*
X30813333Y-112737142D02*
X30765714Y-112784761D01*
X30622857Y-112832380D01*
X30527619Y-112832380D01*
X30384761Y-112784761D01*
X30289523Y-112689523D01*
X30241904Y-112594285D01*
X30194285Y-112403809D01*
X30194285Y-112260952D01*
X30241904Y-112070476D01*
X30289523Y-111975238D01*
X30384761Y-111880000D01*
X30527619Y-111832380D01*
X30622857Y-111832380D01*
X30765714Y-111880000D01*
X30813333Y-111927619D01*
X31194285Y-111927619D02*
X31241904Y-111880000D01*
X31337142Y-111832380D01*
X31575238Y-111832380D01*
X31670476Y-111880000D01*
X31718095Y-111927619D01*
X31765714Y-112022857D01*
X31765714Y-112118095D01*
X31718095Y-112260952D01*
X31146666Y-112832380D01*
X31765714Y-112832380D01*
X29813333Y-115372380D02*
X29480000Y-114896190D01*
X29241904Y-115372380D02*
X29241904Y-114372380D01*
X29622857Y-114372380D01*
X29718095Y-114420000D01*
X29765714Y-114467619D01*
X29813333Y-114562857D01*
X29813333Y-114705714D01*
X29765714Y-114800952D01*
X29718095Y-114848571D01*
X29622857Y-114896190D01*
X29241904Y-114896190D01*
X30813333Y-115277142D02*
X30765714Y-115324761D01*
X30622857Y-115372380D01*
X30527619Y-115372380D01*
X30384761Y-115324761D01*
X30289523Y-115229523D01*
X30241904Y-115134285D01*
X30194285Y-114943809D01*
X30194285Y-114800952D01*
X30241904Y-114610476D01*
X30289523Y-114515238D01*
X30384761Y-114420000D01*
X30527619Y-114372380D01*
X30622857Y-114372380D01*
X30765714Y-114420000D01*
X30813333Y-114467619D01*
X31765714Y-115372380D02*
X31194285Y-115372380D01*
X31480000Y-115372380D02*
X31480000Y-114372380D01*
X31384761Y-114515238D01*
X31289523Y-114610476D01*
X31194285Y-114658095D01*
X99822142Y-40472380D02*
X99488809Y-39996190D01*
X99250714Y-40472380D02*
X99250714Y-39472380D01*
X99631666Y-39472380D01*
X99726904Y-39520000D01*
X99774523Y-39567619D01*
X99822142Y-39662857D01*
X99822142Y-39805714D01*
X99774523Y-39900952D01*
X99726904Y-39948571D01*
X99631666Y-39996190D01*
X99250714Y-39996190D01*
X100822142Y-40377142D02*
X100774523Y-40424761D01*
X100631666Y-40472380D01*
X100536428Y-40472380D01*
X100393571Y-40424761D01*
X100298333Y-40329523D01*
X100250714Y-40234285D01*
X100203095Y-40043809D01*
X100203095Y-39900952D01*
X100250714Y-39710476D01*
X100298333Y-39615238D01*
X100393571Y-39520000D01*
X100536428Y-39472380D01*
X100631666Y-39472380D01*
X100774523Y-39520000D01*
X100822142Y-39567619D01*
X101203095Y-39567619D02*
X101250714Y-39520000D01*
X101345952Y-39472380D01*
X101584047Y-39472380D01*
X101679285Y-39520000D01*
X101726904Y-39567619D01*
X101774523Y-39662857D01*
X101774523Y-39758095D01*
X101726904Y-39900952D01*
X101155476Y-40472380D01*
X101774523Y-40472380D01*
X102679285Y-39472380D02*
X102203095Y-39472380D01*
X102155476Y-39948571D01*
X102203095Y-39900952D01*
X102298333Y-39853333D01*
X102536428Y-39853333D01*
X102631666Y-39900952D01*
X102679285Y-39948571D01*
X102726904Y-40043809D01*
X102726904Y-40281904D01*
X102679285Y-40377142D01*
X102631666Y-40424761D01*
X102536428Y-40472380D01*
X102298333Y-40472380D01*
X102203095Y-40424761D01*
X102155476Y-40377142D01*
X29813333Y-97592380D02*
X29480000Y-97116190D01*
X29241904Y-97592380D02*
X29241904Y-96592380D01*
X29622857Y-96592380D01*
X29718095Y-96640000D01*
X29765714Y-96687619D01*
X29813333Y-96782857D01*
X29813333Y-96925714D01*
X29765714Y-97020952D01*
X29718095Y-97068571D01*
X29622857Y-97116190D01*
X29241904Y-97116190D01*
X30813333Y-97497142D02*
X30765714Y-97544761D01*
X30622857Y-97592380D01*
X30527619Y-97592380D01*
X30384761Y-97544761D01*
X30289523Y-97449523D01*
X30241904Y-97354285D01*
X30194285Y-97163809D01*
X30194285Y-97020952D01*
X30241904Y-96830476D01*
X30289523Y-96735238D01*
X30384761Y-96640000D01*
X30527619Y-96592380D01*
X30622857Y-96592380D01*
X30765714Y-96640000D01*
X30813333Y-96687619D01*
X31384761Y-97020952D02*
X31289523Y-96973333D01*
X31241904Y-96925714D01*
X31194285Y-96830476D01*
X31194285Y-96782857D01*
X31241904Y-96687619D01*
X31289523Y-96640000D01*
X31384761Y-96592380D01*
X31575238Y-96592380D01*
X31670476Y-96640000D01*
X31718095Y-96687619D01*
X31765714Y-96782857D01*
X31765714Y-96830476D01*
X31718095Y-96925714D01*
X31670476Y-96973333D01*
X31575238Y-97020952D01*
X31384761Y-97020952D01*
X31289523Y-97068571D01*
X31241904Y-97116190D01*
X31194285Y-97211428D01*
X31194285Y-97401904D01*
X31241904Y-97497142D01*
X31289523Y-97544761D01*
X31384761Y-97592380D01*
X31575238Y-97592380D01*
X31670476Y-97544761D01*
X31718095Y-97497142D01*
X31765714Y-97401904D01*
X31765714Y-97211428D01*
X31718095Y-97116190D01*
X31670476Y-97068571D01*
X31575238Y-97020952D01*
X29813333Y-100132380D02*
X29480000Y-99656190D01*
X29241904Y-100132380D02*
X29241904Y-99132380D01*
X29622857Y-99132380D01*
X29718095Y-99180000D01*
X29765714Y-99227619D01*
X29813333Y-99322857D01*
X29813333Y-99465714D01*
X29765714Y-99560952D01*
X29718095Y-99608571D01*
X29622857Y-99656190D01*
X29241904Y-99656190D01*
X30813333Y-100037142D02*
X30765714Y-100084761D01*
X30622857Y-100132380D01*
X30527619Y-100132380D01*
X30384761Y-100084761D01*
X30289523Y-99989523D01*
X30241904Y-99894285D01*
X30194285Y-99703809D01*
X30194285Y-99560952D01*
X30241904Y-99370476D01*
X30289523Y-99275238D01*
X30384761Y-99180000D01*
X30527619Y-99132380D01*
X30622857Y-99132380D01*
X30765714Y-99180000D01*
X30813333Y-99227619D01*
X31146666Y-99132380D02*
X31813333Y-99132380D01*
X31384761Y-100132380D01*
X154137380Y-98321666D02*
X153661190Y-98655000D01*
X154137380Y-98893095D02*
X153137380Y-98893095D01*
X153137380Y-98512142D01*
X153185000Y-98416904D01*
X153232619Y-98369285D01*
X153327857Y-98321666D01*
X153470714Y-98321666D01*
X153565952Y-98369285D01*
X153613571Y-98416904D01*
X153661190Y-98512142D01*
X153661190Y-98893095D01*
X154137380Y-97321666D02*
X153661190Y-97655000D01*
X154137380Y-97893095D02*
X153137380Y-97893095D01*
X153137380Y-97512142D01*
X153185000Y-97416904D01*
X153232619Y-97369285D01*
X153327857Y-97321666D01*
X153470714Y-97321666D01*
X153565952Y-97369285D01*
X153613571Y-97416904D01*
X153661190Y-97512142D01*
X153661190Y-97893095D01*
X153613571Y-96559761D02*
X153661190Y-96416904D01*
X153708809Y-96369285D01*
X153804047Y-96321666D01*
X153946904Y-96321666D01*
X154042142Y-96369285D01*
X154089761Y-96416904D01*
X154137380Y-96512142D01*
X154137380Y-96893095D01*
X153137380Y-96893095D01*
X153137380Y-96559761D01*
X153185000Y-96464523D01*
X153232619Y-96416904D01*
X153327857Y-96369285D01*
X153423095Y-96369285D01*
X153518333Y-96416904D01*
X153565952Y-96464523D01*
X153613571Y-96559761D01*
X153613571Y-96893095D01*
X153137380Y-95416904D02*
X153137380Y-95893095D01*
X153613571Y-95940714D01*
X153565952Y-95893095D01*
X153518333Y-95797857D01*
X153518333Y-95559761D01*
X153565952Y-95464523D01*
X153613571Y-95416904D01*
X153708809Y-95369285D01*
X153946904Y-95369285D01*
X154042142Y-95416904D01*
X154089761Y-95464523D01*
X154137380Y-95559761D01*
X154137380Y-95797857D01*
X154089761Y-95893095D01*
X154042142Y-95940714D01*
X149057380Y-98321666D02*
X148581190Y-98655000D01*
X149057380Y-98893095D02*
X148057380Y-98893095D01*
X148057380Y-98512142D01*
X148105000Y-98416904D01*
X148152619Y-98369285D01*
X148247857Y-98321666D01*
X148390714Y-98321666D01*
X148485952Y-98369285D01*
X148533571Y-98416904D01*
X148581190Y-98512142D01*
X148581190Y-98893095D01*
X149057380Y-97321666D02*
X148581190Y-97655000D01*
X149057380Y-97893095D02*
X148057380Y-97893095D01*
X148057380Y-97512142D01*
X148105000Y-97416904D01*
X148152619Y-97369285D01*
X148247857Y-97321666D01*
X148390714Y-97321666D01*
X148485952Y-97369285D01*
X148533571Y-97416904D01*
X148581190Y-97512142D01*
X148581190Y-97893095D01*
X148533571Y-96559761D02*
X148581190Y-96416904D01*
X148628809Y-96369285D01*
X148724047Y-96321666D01*
X148866904Y-96321666D01*
X148962142Y-96369285D01*
X149009761Y-96416904D01*
X149057380Y-96512142D01*
X149057380Y-96893095D01*
X148057380Y-96893095D01*
X148057380Y-96559761D01*
X148105000Y-96464523D01*
X148152619Y-96416904D01*
X148247857Y-96369285D01*
X148343095Y-96369285D01*
X148438333Y-96416904D01*
X148485952Y-96464523D01*
X148533571Y-96559761D01*
X148533571Y-96893095D01*
X148057380Y-95464523D02*
X148057380Y-95655000D01*
X148105000Y-95750238D01*
X148152619Y-95797857D01*
X148295476Y-95893095D01*
X148485952Y-95940714D01*
X148866904Y-95940714D01*
X148962142Y-95893095D01*
X149009761Y-95845476D01*
X149057380Y-95750238D01*
X149057380Y-95559761D01*
X149009761Y-95464523D01*
X148962142Y-95416904D01*
X148866904Y-95369285D01*
X148628809Y-95369285D01*
X148533571Y-95416904D01*
X148485952Y-95464523D01*
X148438333Y-95559761D01*
X148438333Y-95750238D01*
X148485952Y-95845476D01*
X148533571Y-95893095D01*
X148628809Y-95940714D01*
X143977380Y-98321666D02*
X143501190Y-98655000D01*
X143977380Y-98893095D02*
X142977380Y-98893095D01*
X142977380Y-98512142D01*
X143025000Y-98416904D01*
X143072619Y-98369285D01*
X143167857Y-98321666D01*
X143310714Y-98321666D01*
X143405952Y-98369285D01*
X143453571Y-98416904D01*
X143501190Y-98512142D01*
X143501190Y-98893095D01*
X143977380Y-97321666D02*
X143501190Y-97655000D01*
X143977380Y-97893095D02*
X142977380Y-97893095D01*
X142977380Y-97512142D01*
X143025000Y-97416904D01*
X143072619Y-97369285D01*
X143167857Y-97321666D01*
X143310714Y-97321666D01*
X143405952Y-97369285D01*
X143453571Y-97416904D01*
X143501190Y-97512142D01*
X143501190Y-97893095D01*
X143453571Y-96559761D02*
X143501190Y-96416904D01*
X143548809Y-96369285D01*
X143644047Y-96321666D01*
X143786904Y-96321666D01*
X143882142Y-96369285D01*
X143929761Y-96416904D01*
X143977380Y-96512142D01*
X143977380Y-96893095D01*
X142977380Y-96893095D01*
X142977380Y-96559761D01*
X143025000Y-96464523D01*
X143072619Y-96416904D01*
X143167857Y-96369285D01*
X143263095Y-96369285D01*
X143358333Y-96416904D01*
X143405952Y-96464523D01*
X143453571Y-96559761D01*
X143453571Y-96893095D01*
X142977380Y-95988333D02*
X142977380Y-95321666D01*
X143977380Y-95750238D01*
X138897380Y-98321666D02*
X138421190Y-98655000D01*
X138897380Y-98893095D02*
X137897380Y-98893095D01*
X137897380Y-98512142D01*
X137945000Y-98416904D01*
X137992619Y-98369285D01*
X138087857Y-98321666D01*
X138230714Y-98321666D01*
X138325952Y-98369285D01*
X138373571Y-98416904D01*
X138421190Y-98512142D01*
X138421190Y-98893095D01*
X138897380Y-97321666D02*
X138421190Y-97655000D01*
X138897380Y-97893095D02*
X137897380Y-97893095D01*
X137897380Y-97512142D01*
X137945000Y-97416904D01*
X137992619Y-97369285D01*
X138087857Y-97321666D01*
X138230714Y-97321666D01*
X138325952Y-97369285D01*
X138373571Y-97416904D01*
X138421190Y-97512142D01*
X138421190Y-97893095D01*
X138373571Y-96559761D02*
X138421190Y-96416904D01*
X138468809Y-96369285D01*
X138564047Y-96321666D01*
X138706904Y-96321666D01*
X138802142Y-96369285D01*
X138849761Y-96416904D01*
X138897380Y-96512142D01*
X138897380Y-96893095D01*
X137897380Y-96893095D01*
X137897380Y-96559761D01*
X137945000Y-96464523D01*
X137992619Y-96416904D01*
X138087857Y-96369285D01*
X138183095Y-96369285D01*
X138278333Y-96416904D01*
X138325952Y-96464523D01*
X138373571Y-96559761D01*
X138373571Y-96893095D01*
X138325952Y-95750238D02*
X138278333Y-95845476D01*
X138230714Y-95893095D01*
X138135476Y-95940714D01*
X138087857Y-95940714D01*
X137992619Y-95893095D01*
X137945000Y-95845476D01*
X137897380Y-95750238D01*
X137897380Y-95559761D01*
X137945000Y-95464523D01*
X137992619Y-95416904D01*
X138087857Y-95369285D01*
X138135476Y-95369285D01*
X138230714Y-95416904D01*
X138278333Y-95464523D01*
X138325952Y-95559761D01*
X138325952Y-95750238D01*
X138373571Y-95845476D01*
X138421190Y-95893095D01*
X138516428Y-95940714D01*
X138706904Y-95940714D01*
X138802142Y-95893095D01*
X138849761Y-95845476D01*
X138897380Y-95750238D01*
X138897380Y-95559761D01*
X138849761Y-95464523D01*
X138802142Y-95416904D01*
X138706904Y-95369285D01*
X138516428Y-95369285D01*
X138421190Y-95416904D01*
X138373571Y-95464523D01*
X138325952Y-95559761D01*
X133817380Y-98321666D02*
X133341190Y-98655000D01*
X133817380Y-98893095D02*
X132817380Y-98893095D01*
X132817380Y-98512142D01*
X132865000Y-98416904D01*
X132912619Y-98369285D01*
X133007857Y-98321666D01*
X133150714Y-98321666D01*
X133245952Y-98369285D01*
X133293571Y-98416904D01*
X133341190Y-98512142D01*
X133341190Y-98893095D01*
X133817380Y-97321666D02*
X133341190Y-97655000D01*
X133817380Y-97893095D02*
X132817380Y-97893095D01*
X132817380Y-97512142D01*
X132865000Y-97416904D01*
X132912619Y-97369285D01*
X133007857Y-97321666D01*
X133150714Y-97321666D01*
X133245952Y-97369285D01*
X133293571Y-97416904D01*
X133341190Y-97512142D01*
X133341190Y-97893095D01*
X133293571Y-96559761D02*
X133341190Y-96416904D01*
X133388809Y-96369285D01*
X133484047Y-96321666D01*
X133626904Y-96321666D01*
X133722142Y-96369285D01*
X133769761Y-96416904D01*
X133817380Y-96512142D01*
X133817380Y-96893095D01*
X132817380Y-96893095D01*
X132817380Y-96559761D01*
X132865000Y-96464523D01*
X132912619Y-96416904D01*
X133007857Y-96369285D01*
X133103095Y-96369285D01*
X133198333Y-96416904D01*
X133245952Y-96464523D01*
X133293571Y-96559761D01*
X133293571Y-96893095D01*
X133817380Y-95845476D02*
X133817380Y-95655000D01*
X133769761Y-95559761D01*
X133722142Y-95512142D01*
X133579285Y-95416904D01*
X133388809Y-95369285D01*
X133007857Y-95369285D01*
X132912619Y-95416904D01*
X132865000Y-95464523D01*
X132817380Y-95559761D01*
X132817380Y-95750238D01*
X132865000Y-95845476D01*
X132912619Y-95893095D01*
X133007857Y-95940714D01*
X133245952Y-95940714D01*
X133341190Y-95893095D01*
X133388809Y-95845476D01*
X133436428Y-95750238D01*
X133436428Y-95559761D01*
X133388809Y-95464523D01*
X133341190Y-95416904D01*
X133245952Y-95369285D01*
X128737380Y-98797857D02*
X128261190Y-99131190D01*
X128737380Y-99369285D02*
X127737380Y-99369285D01*
X127737380Y-98988333D01*
X127785000Y-98893095D01*
X127832619Y-98845476D01*
X127927857Y-98797857D01*
X128070714Y-98797857D01*
X128165952Y-98845476D01*
X128213571Y-98893095D01*
X128261190Y-98988333D01*
X128261190Y-99369285D01*
X128737380Y-97797857D02*
X128261190Y-98131190D01*
X128737380Y-98369285D02*
X127737380Y-98369285D01*
X127737380Y-97988333D01*
X127785000Y-97893095D01*
X127832619Y-97845476D01*
X127927857Y-97797857D01*
X128070714Y-97797857D01*
X128165952Y-97845476D01*
X128213571Y-97893095D01*
X128261190Y-97988333D01*
X128261190Y-98369285D01*
X128213571Y-97035952D02*
X128261190Y-96893095D01*
X128308809Y-96845476D01*
X128404047Y-96797857D01*
X128546904Y-96797857D01*
X128642142Y-96845476D01*
X128689761Y-96893095D01*
X128737380Y-96988333D01*
X128737380Y-97369285D01*
X127737380Y-97369285D01*
X127737380Y-97035952D01*
X127785000Y-96940714D01*
X127832619Y-96893095D01*
X127927857Y-96845476D01*
X128023095Y-96845476D01*
X128118333Y-96893095D01*
X128165952Y-96940714D01*
X128213571Y-97035952D01*
X128213571Y-97369285D01*
X128737380Y-95845476D02*
X128737380Y-96416904D01*
X128737380Y-96131190D02*
X127737380Y-96131190D01*
X127880238Y-96226428D01*
X127975476Y-96321666D01*
X128023095Y-96416904D01*
X127737380Y-95226428D02*
X127737380Y-95131190D01*
X127785000Y-95035952D01*
X127832619Y-94988333D01*
X127927857Y-94940714D01*
X128118333Y-94893095D01*
X128356428Y-94893095D01*
X128546904Y-94940714D01*
X128642142Y-94988333D01*
X128689761Y-95035952D01*
X128737380Y-95131190D01*
X128737380Y-95226428D01*
X128689761Y-95321666D01*
X128642142Y-95369285D01*
X128546904Y-95416904D01*
X128356428Y-95464523D01*
X128118333Y-95464523D01*
X127927857Y-95416904D01*
X127832619Y-95369285D01*
X127785000Y-95321666D01*
X127737380Y-95226428D01*
X123657380Y-98797857D02*
X123181190Y-99131190D01*
X123657380Y-99369285D02*
X122657380Y-99369285D01*
X122657380Y-98988333D01*
X122705000Y-98893095D01*
X122752619Y-98845476D01*
X122847857Y-98797857D01*
X122990714Y-98797857D01*
X123085952Y-98845476D01*
X123133571Y-98893095D01*
X123181190Y-98988333D01*
X123181190Y-99369285D01*
X123657380Y-97797857D02*
X123181190Y-98131190D01*
X123657380Y-98369285D02*
X122657380Y-98369285D01*
X122657380Y-97988333D01*
X122705000Y-97893095D01*
X122752619Y-97845476D01*
X122847857Y-97797857D01*
X122990714Y-97797857D01*
X123085952Y-97845476D01*
X123133571Y-97893095D01*
X123181190Y-97988333D01*
X123181190Y-98369285D01*
X123133571Y-97035952D02*
X123181190Y-96893095D01*
X123228809Y-96845476D01*
X123324047Y-96797857D01*
X123466904Y-96797857D01*
X123562142Y-96845476D01*
X123609761Y-96893095D01*
X123657380Y-96988333D01*
X123657380Y-97369285D01*
X122657380Y-97369285D01*
X122657380Y-97035952D01*
X122705000Y-96940714D01*
X122752619Y-96893095D01*
X122847857Y-96845476D01*
X122943095Y-96845476D01*
X123038333Y-96893095D01*
X123085952Y-96940714D01*
X123133571Y-97035952D01*
X123133571Y-97369285D01*
X123657380Y-95845476D02*
X123657380Y-96416904D01*
X123657380Y-96131190D02*
X122657380Y-96131190D01*
X122800238Y-96226428D01*
X122895476Y-96321666D01*
X122943095Y-96416904D01*
X123657380Y-94893095D02*
X123657380Y-95464523D01*
X123657380Y-95178809D02*
X122657380Y-95178809D01*
X122800238Y-95274047D01*
X122895476Y-95369285D01*
X122943095Y-95464523D01*
X118577380Y-98797857D02*
X118101190Y-99131190D01*
X118577380Y-99369285D02*
X117577380Y-99369285D01*
X117577380Y-98988333D01*
X117625000Y-98893095D01*
X117672619Y-98845476D01*
X117767857Y-98797857D01*
X117910714Y-98797857D01*
X118005952Y-98845476D01*
X118053571Y-98893095D01*
X118101190Y-98988333D01*
X118101190Y-99369285D01*
X118577380Y-97797857D02*
X118101190Y-98131190D01*
X118577380Y-98369285D02*
X117577380Y-98369285D01*
X117577380Y-97988333D01*
X117625000Y-97893095D01*
X117672619Y-97845476D01*
X117767857Y-97797857D01*
X117910714Y-97797857D01*
X118005952Y-97845476D01*
X118053571Y-97893095D01*
X118101190Y-97988333D01*
X118101190Y-98369285D01*
X118053571Y-97035952D02*
X118101190Y-96893095D01*
X118148809Y-96845476D01*
X118244047Y-96797857D01*
X118386904Y-96797857D01*
X118482142Y-96845476D01*
X118529761Y-96893095D01*
X118577380Y-96988333D01*
X118577380Y-97369285D01*
X117577380Y-97369285D01*
X117577380Y-97035952D01*
X117625000Y-96940714D01*
X117672619Y-96893095D01*
X117767857Y-96845476D01*
X117863095Y-96845476D01*
X117958333Y-96893095D01*
X118005952Y-96940714D01*
X118053571Y-97035952D01*
X118053571Y-97369285D01*
X118577380Y-95845476D02*
X118577380Y-96416904D01*
X118577380Y-96131190D02*
X117577380Y-96131190D01*
X117720238Y-96226428D01*
X117815476Y-96321666D01*
X117863095Y-96416904D01*
X117672619Y-95464523D02*
X117625000Y-95416904D01*
X117577380Y-95321666D01*
X117577380Y-95083571D01*
X117625000Y-94988333D01*
X117672619Y-94940714D01*
X117767857Y-94893095D01*
X117863095Y-94893095D01*
X118005952Y-94940714D01*
X118577380Y-95512142D01*
X118577380Y-94893095D01*
X164297380Y-98321666D02*
X163821190Y-98655000D01*
X164297380Y-98893095D02*
X163297380Y-98893095D01*
X163297380Y-98512142D01*
X163345000Y-98416904D01*
X163392619Y-98369285D01*
X163487857Y-98321666D01*
X163630714Y-98321666D01*
X163725952Y-98369285D01*
X163773571Y-98416904D01*
X163821190Y-98512142D01*
X163821190Y-98893095D01*
X164297380Y-97321666D02*
X163821190Y-97655000D01*
X164297380Y-97893095D02*
X163297380Y-97893095D01*
X163297380Y-97512142D01*
X163345000Y-97416904D01*
X163392619Y-97369285D01*
X163487857Y-97321666D01*
X163630714Y-97321666D01*
X163725952Y-97369285D01*
X163773571Y-97416904D01*
X163821190Y-97512142D01*
X163821190Y-97893095D01*
X163773571Y-96559761D02*
X163821190Y-96416904D01*
X163868809Y-96369285D01*
X163964047Y-96321666D01*
X164106904Y-96321666D01*
X164202142Y-96369285D01*
X164249761Y-96416904D01*
X164297380Y-96512142D01*
X164297380Y-96893095D01*
X163297380Y-96893095D01*
X163297380Y-96559761D01*
X163345000Y-96464523D01*
X163392619Y-96416904D01*
X163487857Y-96369285D01*
X163583095Y-96369285D01*
X163678333Y-96416904D01*
X163725952Y-96464523D01*
X163773571Y-96559761D01*
X163773571Y-96893095D01*
X163297380Y-95988333D02*
X163297380Y-95369285D01*
X163678333Y-95702619D01*
X163678333Y-95559761D01*
X163725952Y-95464523D01*
X163773571Y-95416904D01*
X163868809Y-95369285D01*
X164106904Y-95369285D01*
X164202142Y-95416904D01*
X164249761Y-95464523D01*
X164297380Y-95559761D01*
X164297380Y-95845476D01*
X164249761Y-95940714D01*
X164202142Y-95988333D01*
X99822142Y-55712380D02*
X99488809Y-55236190D01*
X99250714Y-55712380D02*
X99250714Y-54712380D01*
X99631666Y-54712380D01*
X99726904Y-54760000D01*
X99774523Y-54807619D01*
X99822142Y-54902857D01*
X99822142Y-55045714D01*
X99774523Y-55140952D01*
X99726904Y-55188571D01*
X99631666Y-55236190D01*
X99250714Y-55236190D01*
X100822142Y-55617142D02*
X100774523Y-55664761D01*
X100631666Y-55712380D01*
X100536428Y-55712380D01*
X100393571Y-55664761D01*
X100298333Y-55569523D01*
X100250714Y-55474285D01*
X100203095Y-55283809D01*
X100203095Y-55140952D01*
X100250714Y-54950476D01*
X100298333Y-54855238D01*
X100393571Y-54760000D01*
X100536428Y-54712380D01*
X100631666Y-54712380D01*
X100774523Y-54760000D01*
X100822142Y-54807619D01*
X101155476Y-54712380D02*
X101774523Y-54712380D01*
X101441190Y-55093333D01*
X101584047Y-55093333D01*
X101679285Y-55140952D01*
X101726904Y-55188571D01*
X101774523Y-55283809D01*
X101774523Y-55521904D01*
X101726904Y-55617142D01*
X101679285Y-55664761D01*
X101584047Y-55712380D01*
X101298333Y-55712380D01*
X101203095Y-55664761D01*
X101155476Y-55617142D01*
X102726904Y-55712380D02*
X102155476Y-55712380D01*
X102441190Y-55712380D02*
X102441190Y-54712380D01*
X102345952Y-54855238D01*
X102250714Y-54950476D01*
X102155476Y-54998095D01*
X162997380Y-108434047D02*
X162521190Y-108767380D01*
X162997380Y-109005476D02*
X161997380Y-109005476D01*
X161997380Y-108624523D01*
X162045000Y-108529285D01*
X162092619Y-108481666D01*
X162187857Y-108434047D01*
X162330714Y-108434047D01*
X162425952Y-108481666D01*
X162473571Y-108529285D01*
X162521190Y-108624523D01*
X162521190Y-109005476D01*
X162997380Y-107434047D02*
X162521190Y-107767380D01*
X162997380Y-108005476D02*
X161997380Y-108005476D01*
X161997380Y-107624523D01*
X162045000Y-107529285D01*
X162092619Y-107481666D01*
X162187857Y-107434047D01*
X162330714Y-107434047D01*
X162425952Y-107481666D01*
X162473571Y-107529285D01*
X162521190Y-107624523D01*
X162521190Y-108005476D01*
X162473571Y-107005476D02*
X162473571Y-106672142D01*
X162997380Y-106529285D02*
X162997380Y-107005476D01*
X161997380Y-107005476D01*
X161997380Y-106529285D01*
X161997380Y-106195952D02*
X161997380Y-105576904D01*
X162378333Y-105910238D01*
X162378333Y-105767380D01*
X162425952Y-105672142D01*
X162473571Y-105624523D01*
X162568809Y-105576904D01*
X162806904Y-105576904D01*
X162902142Y-105624523D01*
X162949761Y-105672142D01*
X162997380Y-105767380D01*
X162997380Y-106053095D01*
X162949761Y-106148333D01*
X162902142Y-106195952D01*
X157917380Y-108434047D02*
X157441190Y-108767380D01*
X157917380Y-109005476D02*
X156917380Y-109005476D01*
X156917380Y-108624523D01*
X156965000Y-108529285D01*
X157012619Y-108481666D01*
X157107857Y-108434047D01*
X157250714Y-108434047D01*
X157345952Y-108481666D01*
X157393571Y-108529285D01*
X157441190Y-108624523D01*
X157441190Y-109005476D01*
X157917380Y-107434047D02*
X157441190Y-107767380D01*
X157917380Y-108005476D02*
X156917380Y-108005476D01*
X156917380Y-107624523D01*
X156965000Y-107529285D01*
X157012619Y-107481666D01*
X157107857Y-107434047D01*
X157250714Y-107434047D01*
X157345952Y-107481666D01*
X157393571Y-107529285D01*
X157441190Y-107624523D01*
X157441190Y-108005476D01*
X157393571Y-107005476D02*
X157393571Y-106672142D01*
X157917380Y-106529285D02*
X157917380Y-107005476D01*
X156917380Y-107005476D01*
X156917380Y-106529285D01*
X157250714Y-105672142D02*
X157917380Y-105672142D01*
X156869761Y-105910238D02*
X157584047Y-106148333D01*
X157584047Y-105529285D01*
X152837380Y-108434047D02*
X152361190Y-108767380D01*
X152837380Y-109005476D02*
X151837380Y-109005476D01*
X151837380Y-108624523D01*
X151885000Y-108529285D01*
X151932619Y-108481666D01*
X152027857Y-108434047D01*
X152170714Y-108434047D01*
X152265952Y-108481666D01*
X152313571Y-108529285D01*
X152361190Y-108624523D01*
X152361190Y-109005476D01*
X152837380Y-107434047D02*
X152361190Y-107767380D01*
X152837380Y-108005476D02*
X151837380Y-108005476D01*
X151837380Y-107624523D01*
X151885000Y-107529285D01*
X151932619Y-107481666D01*
X152027857Y-107434047D01*
X152170714Y-107434047D01*
X152265952Y-107481666D01*
X152313571Y-107529285D01*
X152361190Y-107624523D01*
X152361190Y-108005476D01*
X152313571Y-107005476D02*
X152313571Y-106672142D01*
X152837380Y-106529285D02*
X152837380Y-107005476D01*
X151837380Y-107005476D01*
X151837380Y-106529285D01*
X151837380Y-105624523D02*
X151837380Y-106100714D01*
X152313571Y-106148333D01*
X152265952Y-106100714D01*
X152218333Y-106005476D01*
X152218333Y-105767380D01*
X152265952Y-105672142D01*
X152313571Y-105624523D01*
X152408809Y-105576904D01*
X152646904Y-105576904D01*
X152742142Y-105624523D01*
X152789761Y-105672142D01*
X152837380Y-105767380D01*
X152837380Y-106005476D01*
X152789761Y-106100714D01*
X152742142Y-106148333D01*
X147757380Y-108434047D02*
X147281190Y-108767380D01*
X147757380Y-109005476D02*
X146757380Y-109005476D01*
X146757380Y-108624523D01*
X146805000Y-108529285D01*
X146852619Y-108481666D01*
X146947857Y-108434047D01*
X147090714Y-108434047D01*
X147185952Y-108481666D01*
X147233571Y-108529285D01*
X147281190Y-108624523D01*
X147281190Y-109005476D01*
X147757380Y-107434047D02*
X147281190Y-107767380D01*
X147757380Y-108005476D02*
X146757380Y-108005476D01*
X146757380Y-107624523D01*
X146805000Y-107529285D01*
X146852619Y-107481666D01*
X146947857Y-107434047D01*
X147090714Y-107434047D01*
X147185952Y-107481666D01*
X147233571Y-107529285D01*
X147281190Y-107624523D01*
X147281190Y-108005476D01*
X147233571Y-107005476D02*
X147233571Y-106672142D01*
X147757380Y-106529285D02*
X147757380Y-107005476D01*
X146757380Y-107005476D01*
X146757380Y-106529285D01*
X146757380Y-105672142D02*
X146757380Y-105862619D01*
X146805000Y-105957857D01*
X146852619Y-106005476D01*
X146995476Y-106100714D01*
X147185952Y-106148333D01*
X147566904Y-106148333D01*
X147662142Y-106100714D01*
X147709761Y-106053095D01*
X147757380Y-105957857D01*
X147757380Y-105767380D01*
X147709761Y-105672142D01*
X147662142Y-105624523D01*
X147566904Y-105576904D01*
X147328809Y-105576904D01*
X147233571Y-105624523D01*
X147185952Y-105672142D01*
X147138333Y-105767380D01*
X147138333Y-105957857D01*
X147185952Y-106053095D01*
X147233571Y-106100714D01*
X147328809Y-106148333D01*
X142677380Y-108434047D02*
X142201190Y-108767380D01*
X142677380Y-109005476D02*
X141677380Y-109005476D01*
X141677380Y-108624523D01*
X141725000Y-108529285D01*
X141772619Y-108481666D01*
X141867857Y-108434047D01*
X142010714Y-108434047D01*
X142105952Y-108481666D01*
X142153571Y-108529285D01*
X142201190Y-108624523D01*
X142201190Y-109005476D01*
X142677380Y-107434047D02*
X142201190Y-107767380D01*
X142677380Y-108005476D02*
X141677380Y-108005476D01*
X141677380Y-107624523D01*
X141725000Y-107529285D01*
X141772619Y-107481666D01*
X141867857Y-107434047D01*
X142010714Y-107434047D01*
X142105952Y-107481666D01*
X142153571Y-107529285D01*
X142201190Y-107624523D01*
X142201190Y-108005476D01*
X142153571Y-107005476D02*
X142153571Y-106672142D01*
X142677380Y-106529285D02*
X142677380Y-107005476D01*
X141677380Y-107005476D01*
X141677380Y-106529285D01*
X141677380Y-106195952D02*
X141677380Y-105529285D01*
X142677380Y-105957857D01*
X137597380Y-108434047D02*
X137121190Y-108767380D01*
X137597380Y-109005476D02*
X136597380Y-109005476D01*
X136597380Y-108624523D01*
X136645000Y-108529285D01*
X136692619Y-108481666D01*
X136787857Y-108434047D01*
X136930714Y-108434047D01*
X137025952Y-108481666D01*
X137073571Y-108529285D01*
X137121190Y-108624523D01*
X137121190Y-109005476D01*
X137597380Y-107434047D02*
X137121190Y-107767380D01*
X137597380Y-108005476D02*
X136597380Y-108005476D01*
X136597380Y-107624523D01*
X136645000Y-107529285D01*
X136692619Y-107481666D01*
X136787857Y-107434047D01*
X136930714Y-107434047D01*
X137025952Y-107481666D01*
X137073571Y-107529285D01*
X137121190Y-107624523D01*
X137121190Y-108005476D01*
X137073571Y-107005476D02*
X137073571Y-106672142D01*
X137597380Y-106529285D02*
X137597380Y-107005476D01*
X136597380Y-107005476D01*
X136597380Y-106529285D01*
X137025952Y-105957857D02*
X136978333Y-106053095D01*
X136930714Y-106100714D01*
X136835476Y-106148333D01*
X136787857Y-106148333D01*
X136692619Y-106100714D01*
X136645000Y-106053095D01*
X136597380Y-105957857D01*
X136597380Y-105767380D01*
X136645000Y-105672142D01*
X136692619Y-105624523D01*
X136787857Y-105576904D01*
X136835476Y-105576904D01*
X136930714Y-105624523D01*
X136978333Y-105672142D01*
X137025952Y-105767380D01*
X137025952Y-105957857D01*
X137073571Y-106053095D01*
X137121190Y-106100714D01*
X137216428Y-106148333D01*
X137406904Y-106148333D01*
X137502142Y-106100714D01*
X137549761Y-106053095D01*
X137597380Y-105957857D01*
X137597380Y-105767380D01*
X137549761Y-105672142D01*
X137502142Y-105624523D01*
X137406904Y-105576904D01*
X137216428Y-105576904D01*
X137121190Y-105624523D01*
X137073571Y-105672142D01*
X137025952Y-105767380D01*
X132517380Y-108434047D02*
X132041190Y-108767380D01*
X132517380Y-109005476D02*
X131517380Y-109005476D01*
X131517380Y-108624523D01*
X131565000Y-108529285D01*
X131612619Y-108481666D01*
X131707857Y-108434047D01*
X131850714Y-108434047D01*
X131945952Y-108481666D01*
X131993571Y-108529285D01*
X132041190Y-108624523D01*
X132041190Y-109005476D01*
X132517380Y-107434047D02*
X132041190Y-107767380D01*
X132517380Y-108005476D02*
X131517380Y-108005476D01*
X131517380Y-107624523D01*
X131565000Y-107529285D01*
X131612619Y-107481666D01*
X131707857Y-107434047D01*
X131850714Y-107434047D01*
X131945952Y-107481666D01*
X131993571Y-107529285D01*
X132041190Y-107624523D01*
X132041190Y-108005476D01*
X131993571Y-107005476D02*
X131993571Y-106672142D01*
X132517380Y-106529285D02*
X132517380Y-107005476D01*
X131517380Y-107005476D01*
X131517380Y-106529285D01*
X132517380Y-106053095D02*
X132517380Y-105862619D01*
X132469761Y-105767380D01*
X132422142Y-105719761D01*
X132279285Y-105624523D01*
X132088809Y-105576904D01*
X131707857Y-105576904D01*
X131612619Y-105624523D01*
X131565000Y-105672142D01*
X131517380Y-105767380D01*
X131517380Y-105957857D01*
X131565000Y-106053095D01*
X131612619Y-106100714D01*
X131707857Y-106148333D01*
X131945952Y-106148333D01*
X132041190Y-106100714D01*
X132088809Y-106053095D01*
X132136428Y-105957857D01*
X132136428Y-105767380D01*
X132088809Y-105672142D01*
X132041190Y-105624523D01*
X131945952Y-105576904D01*
X29813333Y-102672380D02*
X29480000Y-102196190D01*
X29241904Y-102672380D02*
X29241904Y-101672380D01*
X29622857Y-101672380D01*
X29718095Y-101720000D01*
X29765714Y-101767619D01*
X29813333Y-101862857D01*
X29813333Y-102005714D01*
X29765714Y-102100952D01*
X29718095Y-102148571D01*
X29622857Y-102196190D01*
X29241904Y-102196190D01*
X30813333Y-102577142D02*
X30765714Y-102624761D01*
X30622857Y-102672380D01*
X30527619Y-102672380D01*
X30384761Y-102624761D01*
X30289523Y-102529523D01*
X30241904Y-102434285D01*
X30194285Y-102243809D01*
X30194285Y-102100952D01*
X30241904Y-101910476D01*
X30289523Y-101815238D01*
X30384761Y-101720000D01*
X30527619Y-101672380D01*
X30622857Y-101672380D01*
X30765714Y-101720000D01*
X30813333Y-101767619D01*
X31670476Y-101672380D02*
X31480000Y-101672380D01*
X31384761Y-101720000D01*
X31337142Y-101767619D01*
X31241904Y-101910476D01*
X31194285Y-102100952D01*
X31194285Y-102481904D01*
X31241904Y-102577142D01*
X31289523Y-102624761D01*
X31384761Y-102672380D01*
X31575238Y-102672380D01*
X31670476Y-102624761D01*
X31718095Y-102577142D01*
X31765714Y-102481904D01*
X31765714Y-102243809D01*
X31718095Y-102148571D01*
X31670476Y-102100952D01*
X31575238Y-102053333D01*
X31384761Y-102053333D01*
X31289523Y-102100952D01*
X31241904Y-102148571D01*
X31194285Y-102243809D01*
X122357380Y-108910238D02*
X121881190Y-109243571D01*
X122357380Y-109481666D02*
X121357380Y-109481666D01*
X121357380Y-109100714D01*
X121405000Y-109005476D01*
X121452619Y-108957857D01*
X121547857Y-108910238D01*
X121690714Y-108910238D01*
X121785952Y-108957857D01*
X121833571Y-109005476D01*
X121881190Y-109100714D01*
X121881190Y-109481666D01*
X122357380Y-107910238D02*
X121881190Y-108243571D01*
X122357380Y-108481666D02*
X121357380Y-108481666D01*
X121357380Y-108100714D01*
X121405000Y-108005476D01*
X121452619Y-107957857D01*
X121547857Y-107910238D01*
X121690714Y-107910238D01*
X121785952Y-107957857D01*
X121833571Y-108005476D01*
X121881190Y-108100714D01*
X121881190Y-108481666D01*
X121833571Y-107481666D02*
X121833571Y-107148333D01*
X122357380Y-107005476D02*
X122357380Y-107481666D01*
X121357380Y-107481666D01*
X121357380Y-107005476D01*
X122357380Y-106053095D02*
X122357380Y-106624523D01*
X122357380Y-106338809D02*
X121357380Y-106338809D01*
X121500238Y-106434047D01*
X121595476Y-106529285D01*
X121643095Y-106624523D01*
X122357380Y-105100714D02*
X122357380Y-105672142D01*
X122357380Y-105386428D02*
X121357380Y-105386428D01*
X121500238Y-105481666D01*
X121595476Y-105576904D01*
X121643095Y-105672142D01*
X117277380Y-108910238D02*
X116801190Y-109243571D01*
X117277380Y-109481666D02*
X116277380Y-109481666D01*
X116277380Y-109100714D01*
X116325000Y-109005476D01*
X116372619Y-108957857D01*
X116467857Y-108910238D01*
X116610714Y-108910238D01*
X116705952Y-108957857D01*
X116753571Y-109005476D01*
X116801190Y-109100714D01*
X116801190Y-109481666D01*
X117277380Y-107910238D02*
X116801190Y-108243571D01*
X117277380Y-108481666D02*
X116277380Y-108481666D01*
X116277380Y-108100714D01*
X116325000Y-108005476D01*
X116372619Y-107957857D01*
X116467857Y-107910238D01*
X116610714Y-107910238D01*
X116705952Y-107957857D01*
X116753571Y-108005476D01*
X116801190Y-108100714D01*
X116801190Y-108481666D01*
X116753571Y-107481666D02*
X116753571Y-107148333D01*
X117277380Y-107005476D02*
X117277380Y-107481666D01*
X116277380Y-107481666D01*
X116277380Y-107005476D01*
X117277380Y-106053095D02*
X117277380Y-106624523D01*
X117277380Y-106338809D02*
X116277380Y-106338809D01*
X116420238Y-106434047D01*
X116515476Y-106529285D01*
X116563095Y-106624523D01*
X116372619Y-105672142D02*
X116325000Y-105624523D01*
X116277380Y-105529285D01*
X116277380Y-105291190D01*
X116325000Y-105195952D01*
X116372619Y-105148333D01*
X116467857Y-105100714D01*
X116563095Y-105100714D01*
X116705952Y-105148333D01*
X117277380Y-105719761D01*
X117277380Y-105100714D01*
X173157380Y-108434047D02*
X172681190Y-108767380D01*
X173157380Y-109005476D02*
X172157380Y-109005476D01*
X172157380Y-108624523D01*
X172205000Y-108529285D01*
X172252619Y-108481666D01*
X172347857Y-108434047D01*
X172490714Y-108434047D01*
X172585952Y-108481666D01*
X172633571Y-108529285D01*
X172681190Y-108624523D01*
X172681190Y-109005476D01*
X173157380Y-107434047D02*
X172681190Y-107767380D01*
X173157380Y-108005476D02*
X172157380Y-108005476D01*
X172157380Y-107624523D01*
X172205000Y-107529285D01*
X172252619Y-107481666D01*
X172347857Y-107434047D01*
X172490714Y-107434047D01*
X172585952Y-107481666D01*
X172633571Y-107529285D01*
X172681190Y-107624523D01*
X172681190Y-108005476D01*
X172633571Y-107005476D02*
X172633571Y-106672142D01*
X173157380Y-106529285D02*
X173157380Y-107005476D01*
X172157380Y-107005476D01*
X172157380Y-106529285D01*
X173157380Y-105576904D02*
X173157380Y-106148333D01*
X173157380Y-105862619D02*
X172157380Y-105862619D01*
X172300238Y-105957857D01*
X172395476Y-106053095D01*
X172443095Y-106148333D01*
X99822142Y-45552380D02*
X99488809Y-45076190D01*
X99250714Y-45552380D02*
X99250714Y-44552380D01*
X99631666Y-44552380D01*
X99726904Y-44600000D01*
X99774523Y-44647619D01*
X99822142Y-44742857D01*
X99822142Y-44885714D01*
X99774523Y-44980952D01*
X99726904Y-45028571D01*
X99631666Y-45076190D01*
X99250714Y-45076190D01*
X100822142Y-45457142D02*
X100774523Y-45504761D01*
X100631666Y-45552380D01*
X100536428Y-45552380D01*
X100393571Y-45504761D01*
X100298333Y-45409523D01*
X100250714Y-45314285D01*
X100203095Y-45123809D01*
X100203095Y-44980952D01*
X100250714Y-44790476D01*
X100298333Y-44695238D01*
X100393571Y-44600000D01*
X100536428Y-44552380D01*
X100631666Y-44552380D01*
X100774523Y-44600000D01*
X100822142Y-44647619D01*
X101203095Y-44647619D02*
X101250714Y-44600000D01*
X101345952Y-44552380D01*
X101584047Y-44552380D01*
X101679285Y-44600000D01*
X101726904Y-44647619D01*
X101774523Y-44742857D01*
X101774523Y-44838095D01*
X101726904Y-44980952D01*
X101155476Y-45552380D01*
X101774523Y-45552380D01*
X102107857Y-44552380D02*
X102774523Y-44552380D01*
X102345952Y-45552380D01*
X99822142Y-48092380D02*
X99488809Y-47616190D01*
X99250714Y-48092380D02*
X99250714Y-47092380D01*
X99631666Y-47092380D01*
X99726904Y-47140000D01*
X99774523Y-47187619D01*
X99822142Y-47282857D01*
X99822142Y-47425714D01*
X99774523Y-47520952D01*
X99726904Y-47568571D01*
X99631666Y-47616190D01*
X99250714Y-47616190D01*
X100822142Y-47997142D02*
X100774523Y-48044761D01*
X100631666Y-48092380D01*
X100536428Y-48092380D01*
X100393571Y-48044761D01*
X100298333Y-47949523D01*
X100250714Y-47854285D01*
X100203095Y-47663809D01*
X100203095Y-47520952D01*
X100250714Y-47330476D01*
X100298333Y-47235238D01*
X100393571Y-47140000D01*
X100536428Y-47092380D01*
X100631666Y-47092380D01*
X100774523Y-47140000D01*
X100822142Y-47187619D01*
X101203095Y-47187619D02*
X101250714Y-47140000D01*
X101345952Y-47092380D01*
X101584047Y-47092380D01*
X101679285Y-47140000D01*
X101726904Y-47187619D01*
X101774523Y-47282857D01*
X101774523Y-47378095D01*
X101726904Y-47520952D01*
X101155476Y-48092380D01*
X101774523Y-48092380D01*
X102345952Y-47520952D02*
X102250714Y-47473333D01*
X102203095Y-47425714D01*
X102155476Y-47330476D01*
X102155476Y-47282857D01*
X102203095Y-47187619D01*
X102250714Y-47140000D01*
X102345952Y-47092380D01*
X102536428Y-47092380D01*
X102631666Y-47140000D01*
X102679285Y-47187619D01*
X102726904Y-47282857D01*
X102726904Y-47330476D01*
X102679285Y-47425714D01*
X102631666Y-47473333D01*
X102536428Y-47520952D01*
X102345952Y-47520952D01*
X102250714Y-47568571D01*
X102203095Y-47616190D01*
X102155476Y-47711428D01*
X102155476Y-47901904D01*
X102203095Y-47997142D01*
X102250714Y-48044761D01*
X102345952Y-48092380D01*
X102536428Y-48092380D01*
X102631666Y-48044761D01*
X102679285Y-47997142D01*
X102726904Y-47901904D01*
X102726904Y-47711428D01*
X102679285Y-47616190D01*
X102631666Y-47568571D01*
X102536428Y-47520952D01*
X99822142Y-50632380D02*
X99488809Y-50156190D01*
X99250714Y-50632380D02*
X99250714Y-49632380D01*
X99631666Y-49632380D01*
X99726904Y-49680000D01*
X99774523Y-49727619D01*
X99822142Y-49822857D01*
X99822142Y-49965714D01*
X99774523Y-50060952D01*
X99726904Y-50108571D01*
X99631666Y-50156190D01*
X99250714Y-50156190D01*
X100822142Y-50537142D02*
X100774523Y-50584761D01*
X100631666Y-50632380D01*
X100536428Y-50632380D01*
X100393571Y-50584761D01*
X100298333Y-50489523D01*
X100250714Y-50394285D01*
X100203095Y-50203809D01*
X100203095Y-50060952D01*
X100250714Y-49870476D01*
X100298333Y-49775238D01*
X100393571Y-49680000D01*
X100536428Y-49632380D01*
X100631666Y-49632380D01*
X100774523Y-49680000D01*
X100822142Y-49727619D01*
X101203095Y-49727619D02*
X101250714Y-49680000D01*
X101345952Y-49632380D01*
X101584047Y-49632380D01*
X101679285Y-49680000D01*
X101726904Y-49727619D01*
X101774523Y-49822857D01*
X101774523Y-49918095D01*
X101726904Y-50060952D01*
X101155476Y-50632380D01*
X101774523Y-50632380D01*
X102250714Y-50632380D02*
X102441190Y-50632380D01*
X102536428Y-50584761D01*
X102584047Y-50537142D01*
X102679285Y-50394285D01*
X102726904Y-50203809D01*
X102726904Y-49822857D01*
X102679285Y-49727619D01*
X102631666Y-49680000D01*
X102536428Y-49632380D01*
X102345952Y-49632380D01*
X102250714Y-49680000D01*
X102203095Y-49727619D01*
X102155476Y-49822857D01*
X102155476Y-50060952D01*
X102203095Y-50156190D01*
X102250714Y-50203809D01*
X102345952Y-50251428D01*
X102536428Y-50251428D01*
X102631666Y-50203809D01*
X102679285Y-50156190D01*
X102726904Y-50060952D01*
X99822142Y-53172380D02*
X99488809Y-52696190D01*
X99250714Y-53172380D02*
X99250714Y-52172380D01*
X99631666Y-52172380D01*
X99726904Y-52220000D01*
X99774523Y-52267619D01*
X99822142Y-52362857D01*
X99822142Y-52505714D01*
X99774523Y-52600952D01*
X99726904Y-52648571D01*
X99631666Y-52696190D01*
X99250714Y-52696190D01*
X100822142Y-53077142D02*
X100774523Y-53124761D01*
X100631666Y-53172380D01*
X100536428Y-53172380D01*
X100393571Y-53124761D01*
X100298333Y-53029523D01*
X100250714Y-52934285D01*
X100203095Y-52743809D01*
X100203095Y-52600952D01*
X100250714Y-52410476D01*
X100298333Y-52315238D01*
X100393571Y-52220000D01*
X100536428Y-52172380D01*
X100631666Y-52172380D01*
X100774523Y-52220000D01*
X100822142Y-52267619D01*
X101155476Y-52172380D02*
X101774523Y-52172380D01*
X101441190Y-52553333D01*
X101584047Y-52553333D01*
X101679285Y-52600952D01*
X101726904Y-52648571D01*
X101774523Y-52743809D01*
X101774523Y-52981904D01*
X101726904Y-53077142D01*
X101679285Y-53124761D01*
X101584047Y-53172380D01*
X101298333Y-53172380D01*
X101203095Y-53124761D01*
X101155476Y-53077142D01*
X102393571Y-52172380D02*
X102488809Y-52172380D01*
X102584047Y-52220000D01*
X102631666Y-52267619D01*
X102679285Y-52362857D01*
X102726904Y-52553333D01*
X102726904Y-52791428D01*
X102679285Y-52981904D01*
X102631666Y-53077142D01*
X102584047Y-53124761D01*
X102488809Y-53172380D01*
X102393571Y-53172380D01*
X102298333Y-53124761D01*
X102250714Y-53077142D01*
X102203095Y-52981904D01*
X102155476Y-52791428D01*
X102155476Y-52553333D01*
X102203095Y-52362857D01*
X102250714Y-52267619D01*
X102298333Y-52220000D01*
X102393571Y-52172380D01*
X99822142Y-58252380D02*
X99488809Y-57776190D01*
X99250714Y-58252380D02*
X99250714Y-57252380D01*
X99631666Y-57252380D01*
X99726904Y-57300000D01*
X99774523Y-57347619D01*
X99822142Y-57442857D01*
X99822142Y-57585714D01*
X99774523Y-57680952D01*
X99726904Y-57728571D01*
X99631666Y-57776190D01*
X99250714Y-57776190D01*
X100822142Y-58157142D02*
X100774523Y-58204761D01*
X100631666Y-58252380D01*
X100536428Y-58252380D01*
X100393571Y-58204761D01*
X100298333Y-58109523D01*
X100250714Y-58014285D01*
X100203095Y-57823809D01*
X100203095Y-57680952D01*
X100250714Y-57490476D01*
X100298333Y-57395238D01*
X100393571Y-57300000D01*
X100536428Y-57252380D01*
X100631666Y-57252380D01*
X100774523Y-57300000D01*
X100822142Y-57347619D01*
X101155476Y-57252380D02*
X101774523Y-57252380D01*
X101441190Y-57633333D01*
X101584047Y-57633333D01*
X101679285Y-57680952D01*
X101726904Y-57728571D01*
X101774523Y-57823809D01*
X101774523Y-58061904D01*
X101726904Y-58157142D01*
X101679285Y-58204761D01*
X101584047Y-58252380D01*
X101298333Y-58252380D01*
X101203095Y-58204761D01*
X101155476Y-58157142D01*
X102155476Y-57347619D02*
X102203095Y-57300000D01*
X102298333Y-57252380D01*
X102536428Y-57252380D01*
X102631666Y-57300000D01*
X102679285Y-57347619D01*
X102726904Y-57442857D01*
X102726904Y-57538095D01*
X102679285Y-57680952D01*
X102107857Y-58252380D01*
X102726904Y-58252380D01*
X127437380Y-108910238D02*
X126961190Y-109243571D01*
X127437380Y-109481666D02*
X126437380Y-109481666D01*
X126437380Y-109100714D01*
X126485000Y-109005476D01*
X126532619Y-108957857D01*
X126627857Y-108910238D01*
X126770714Y-108910238D01*
X126865952Y-108957857D01*
X126913571Y-109005476D01*
X126961190Y-109100714D01*
X126961190Y-109481666D01*
X127437380Y-107910238D02*
X126961190Y-108243571D01*
X127437380Y-108481666D02*
X126437380Y-108481666D01*
X126437380Y-108100714D01*
X126485000Y-108005476D01*
X126532619Y-107957857D01*
X126627857Y-107910238D01*
X126770714Y-107910238D01*
X126865952Y-107957857D01*
X126913571Y-108005476D01*
X126961190Y-108100714D01*
X126961190Y-108481666D01*
X126913571Y-107481666D02*
X126913571Y-107148333D01*
X127437380Y-107005476D02*
X127437380Y-107481666D01*
X126437380Y-107481666D01*
X126437380Y-107005476D01*
X127437380Y-106053095D02*
X127437380Y-106624523D01*
X127437380Y-106338809D02*
X126437380Y-106338809D01*
X126580238Y-106434047D01*
X126675476Y-106529285D01*
X126723095Y-106624523D01*
X126437380Y-105434047D02*
X126437380Y-105338809D01*
X126485000Y-105243571D01*
X126532619Y-105195952D01*
X126627857Y-105148333D01*
X126818333Y-105100714D01*
X127056428Y-105100714D01*
X127246904Y-105148333D01*
X127342142Y-105195952D01*
X127389761Y-105243571D01*
X127437380Y-105338809D01*
X127437380Y-105434047D01*
X127389761Y-105529285D01*
X127342142Y-105576904D01*
X127246904Y-105624523D01*
X127056428Y-105672142D01*
X126818333Y-105672142D01*
X126627857Y-105624523D01*
X126532619Y-105576904D01*
X126485000Y-105529285D01*
X126437380Y-105434047D01*
X99822142Y-70952380D02*
X99488809Y-70476190D01*
X99250714Y-70952380D02*
X99250714Y-69952380D01*
X99631666Y-69952380D01*
X99726904Y-70000000D01*
X99774523Y-70047619D01*
X99822142Y-70142857D01*
X99822142Y-70285714D01*
X99774523Y-70380952D01*
X99726904Y-70428571D01*
X99631666Y-70476190D01*
X99250714Y-70476190D01*
X100822142Y-70857142D02*
X100774523Y-70904761D01*
X100631666Y-70952380D01*
X100536428Y-70952380D01*
X100393571Y-70904761D01*
X100298333Y-70809523D01*
X100250714Y-70714285D01*
X100203095Y-70523809D01*
X100203095Y-70380952D01*
X100250714Y-70190476D01*
X100298333Y-70095238D01*
X100393571Y-70000000D01*
X100536428Y-69952380D01*
X100631666Y-69952380D01*
X100774523Y-70000000D01*
X100822142Y-70047619D01*
X101155476Y-69952380D02*
X101774523Y-69952380D01*
X101441190Y-70333333D01*
X101584047Y-70333333D01*
X101679285Y-70380952D01*
X101726904Y-70428571D01*
X101774523Y-70523809D01*
X101774523Y-70761904D01*
X101726904Y-70857142D01*
X101679285Y-70904761D01*
X101584047Y-70952380D01*
X101298333Y-70952380D01*
X101203095Y-70904761D01*
X101155476Y-70857142D01*
X102107857Y-69952380D02*
X102726904Y-69952380D01*
X102393571Y-70333333D01*
X102536428Y-70333333D01*
X102631666Y-70380952D01*
X102679285Y-70428571D01*
X102726904Y-70523809D01*
X102726904Y-70761904D01*
X102679285Y-70857142D01*
X102631666Y-70904761D01*
X102536428Y-70952380D01*
X102250714Y-70952380D01*
X102155476Y-70904761D01*
X102107857Y-70857142D01*
X99822142Y-73492380D02*
X99488809Y-73016190D01*
X99250714Y-73492380D02*
X99250714Y-72492380D01*
X99631666Y-72492380D01*
X99726904Y-72540000D01*
X99774523Y-72587619D01*
X99822142Y-72682857D01*
X99822142Y-72825714D01*
X99774523Y-72920952D01*
X99726904Y-72968571D01*
X99631666Y-73016190D01*
X99250714Y-73016190D01*
X100822142Y-73397142D02*
X100774523Y-73444761D01*
X100631666Y-73492380D01*
X100536428Y-73492380D01*
X100393571Y-73444761D01*
X100298333Y-73349523D01*
X100250714Y-73254285D01*
X100203095Y-73063809D01*
X100203095Y-72920952D01*
X100250714Y-72730476D01*
X100298333Y-72635238D01*
X100393571Y-72540000D01*
X100536428Y-72492380D01*
X100631666Y-72492380D01*
X100774523Y-72540000D01*
X100822142Y-72587619D01*
X101155476Y-72492380D02*
X101774523Y-72492380D01*
X101441190Y-72873333D01*
X101584047Y-72873333D01*
X101679285Y-72920952D01*
X101726904Y-72968571D01*
X101774523Y-73063809D01*
X101774523Y-73301904D01*
X101726904Y-73397142D01*
X101679285Y-73444761D01*
X101584047Y-73492380D01*
X101298333Y-73492380D01*
X101203095Y-73444761D01*
X101155476Y-73397142D01*
X102631666Y-72825714D02*
X102631666Y-73492380D01*
X102393571Y-72444761D02*
X102155476Y-73159047D01*
X102774523Y-73159047D01*
X99822142Y-76032380D02*
X99488809Y-75556190D01*
X99250714Y-76032380D02*
X99250714Y-75032380D01*
X99631666Y-75032380D01*
X99726904Y-75080000D01*
X99774523Y-75127619D01*
X99822142Y-75222857D01*
X99822142Y-75365714D01*
X99774523Y-75460952D01*
X99726904Y-75508571D01*
X99631666Y-75556190D01*
X99250714Y-75556190D01*
X100822142Y-75937142D02*
X100774523Y-75984761D01*
X100631666Y-76032380D01*
X100536428Y-76032380D01*
X100393571Y-75984761D01*
X100298333Y-75889523D01*
X100250714Y-75794285D01*
X100203095Y-75603809D01*
X100203095Y-75460952D01*
X100250714Y-75270476D01*
X100298333Y-75175238D01*
X100393571Y-75080000D01*
X100536428Y-75032380D01*
X100631666Y-75032380D01*
X100774523Y-75080000D01*
X100822142Y-75127619D01*
X101155476Y-75032380D02*
X101774523Y-75032380D01*
X101441190Y-75413333D01*
X101584047Y-75413333D01*
X101679285Y-75460952D01*
X101726904Y-75508571D01*
X101774523Y-75603809D01*
X101774523Y-75841904D01*
X101726904Y-75937142D01*
X101679285Y-75984761D01*
X101584047Y-76032380D01*
X101298333Y-76032380D01*
X101203095Y-75984761D01*
X101155476Y-75937142D01*
X102679285Y-75032380D02*
X102203095Y-75032380D01*
X102155476Y-75508571D01*
X102203095Y-75460952D01*
X102298333Y-75413333D01*
X102536428Y-75413333D01*
X102631666Y-75460952D01*
X102679285Y-75508571D01*
X102726904Y-75603809D01*
X102726904Y-75841904D01*
X102679285Y-75937142D01*
X102631666Y-75984761D01*
X102536428Y-76032380D01*
X102298333Y-76032380D01*
X102203095Y-75984761D01*
X102155476Y-75937142D01*
X99822142Y-78572380D02*
X99488809Y-78096190D01*
X99250714Y-78572380D02*
X99250714Y-77572380D01*
X99631666Y-77572380D01*
X99726904Y-77620000D01*
X99774523Y-77667619D01*
X99822142Y-77762857D01*
X99822142Y-77905714D01*
X99774523Y-78000952D01*
X99726904Y-78048571D01*
X99631666Y-78096190D01*
X99250714Y-78096190D01*
X100822142Y-78477142D02*
X100774523Y-78524761D01*
X100631666Y-78572380D01*
X100536428Y-78572380D01*
X100393571Y-78524761D01*
X100298333Y-78429523D01*
X100250714Y-78334285D01*
X100203095Y-78143809D01*
X100203095Y-78000952D01*
X100250714Y-77810476D01*
X100298333Y-77715238D01*
X100393571Y-77620000D01*
X100536428Y-77572380D01*
X100631666Y-77572380D01*
X100774523Y-77620000D01*
X100822142Y-77667619D01*
X101155476Y-77572380D02*
X101774523Y-77572380D01*
X101441190Y-77953333D01*
X101584047Y-77953333D01*
X101679285Y-78000952D01*
X101726904Y-78048571D01*
X101774523Y-78143809D01*
X101774523Y-78381904D01*
X101726904Y-78477142D01*
X101679285Y-78524761D01*
X101584047Y-78572380D01*
X101298333Y-78572380D01*
X101203095Y-78524761D01*
X101155476Y-78477142D01*
X102631666Y-77572380D02*
X102441190Y-77572380D01*
X102345952Y-77620000D01*
X102298333Y-77667619D01*
X102203095Y-77810476D01*
X102155476Y-78000952D01*
X102155476Y-78381904D01*
X102203095Y-78477142D01*
X102250714Y-78524761D01*
X102345952Y-78572380D01*
X102536428Y-78572380D01*
X102631666Y-78524761D01*
X102679285Y-78477142D01*
X102726904Y-78381904D01*
X102726904Y-78143809D01*
X102679285Y-78048571D01*
X102631666Y-78000952D01*
X102536428Y-77953333D01*
X102345952Y-77953333D01*
X102250714Y-78000952D01*
X102203095Y-78048571D01*
X102155476Y-78143809D01*
X99822142Y-81112380D02*
X99488809Y-80636190D01*
X99250714Y-81112380D02*
X99250714Y-80112380D01*
X99631666Y-80112380D01*
X99726904Y-80160000D01*
X99774523Y-80207619D01*
X99822142Y-80302857D01*
X99822142Y-80445714D01*
X99774523Y-80540952D01*
X99726904Y-80588571D01*
X99631666Y-80636190D01*
X99250714Y-80636190D01*
X100822142Y-81017142D02*
X100774523Y-81064761D01*
X100631666Y-81112380D01*
X100536428Y-81112380D01*
X100393571Y-81064761D01*
X100298333Y-80969523D01*
X100250714Y-80874285D01*
X100203095Y-80683809D01*
X100203095Y-80540952D01*
X100250714Y-80350476D01*
X100298333Y-80255238D01*
X100393571Y-80160000D01*
X100536428Y-80112380D01*
X100631666Y-80112380D01*
X100774523Y-80160000D01*
X100822142Y-80207619D01*
X101155476Y-80112380D02*
X101774523Y-80112380D01*
X101441190Y-80493333D01*
X101584047Y-80493333D01*
X101679285Y-80540952D01*
X101726904Y-80588571D01*
X101774523Y-80683809D01*
X101774523Y-80921904D01*
X101726904Y-81017142D01*
X101679285Y-81064761D01*
X101584047Y-81112380D01*
X101298333Y-81112380D01*
X101203095Y-81064761D01*
X101155476Y-81017142D01*
X102107857Y-80112380D02*
X102774523Y-80112380D01*
X102345952Y-81112380D01*
X169377380Y-98321666D02*
X168901190Y-98655000D01*
X169377380Y-98893095D02*
X168377380Y-98893095D01*
X168377380Y-98512142D01*
X168425000Y-98416904D01*
X168472619Y-98369285D01*
X168567857Y-98321666D01*
X168710714Y-98321666D01*
X168805952Y-98369285D01*
X168853571Y-98416904D01*
X168901190Y-98512142D01*
X168901190Y-98893095D01*
X169377380Y-97321666D02*
X168901190Y-97655000D01*
X169377380Y-97893095D02*
X168377380Y-97893095D01*
X168377380Y-97512142D01*
X168425000Y-97416904D01*
X168472619Y-97369285D01*
X168567857Y-97321666D01*
X168710714Y-97321666D01*
X168805952Y-97369285D01*
X168853571Y-97416904D01*
X168901190Y-97512142D01*
X168901190Y-97893095D01*
X168853571Y-96559761D02*
X168901190Y-96416904D01*
X168948809Y-96369285D01*
X169044047Y-96321666D01*
X169186904Y-96321666D01*
X169282142Y-96369285D01*
X169329761Y-96416904D01*
X169377380Y-96512142D01*
X169377380Y-96893095D01*
X168377380Y-96893095D01*
X168377380Y-96559761D01*
X168425000Y-96464523D01*
X168472619Y-96416904D01*
X168567857Y-96369285D01*
X168663095Y-96369285D01*
X168758333Y-96416904D01*
X168805952Y-96464523D01*
X168853571Y-96559761D01*
X168853571Y-96893095D01*
X168472619Y-95940714D02*
X168425000Y-95893095D01*
X168377380Y-95797857D01*
X168377380Y-95559761D01*
X168425000Y-95464523D01*
X168472619Y-95416904D01*
X168567857Y-95369285D01*
X168663095Y-95369285D01*
X168805952Y-95416904D01*
X169377380Y-95988333D01*
X169377380Y-95369285D01*
X99822142Y-86192380D02*
X99488809Y-85716190D01*
X99250714Y-86192380D02*
X99250714Y-85192380D01*
X99631666Y-85192380D01*
X99726904Y-85240000D01*
X99774523Y-85287619D01*
X99822142Y-85382857D01*
X99822142Y-85525714D01*
X99774523Y-85620952D01*
X99726904Y-85668571D01*
X99631666Y-85716190D01*
X99250714Y-85716190D01*
X100822142Y-86097142D02*
X100774523Y-86144761D01*
X100631666Y-86192380D01*
X100536428Y-86192380D01*
X100393571Y-86144761D01*
X100298333Y-86049523D01*
X100250714Y-85954285D01*
X100203095Y-85763809D01*
X100203095Y-85620952D01*
X100250714Y-85430476D01*
X100298333Y-85335238D01*
X100393571Y-85240000D01*
X100536428Y-85192380D01*
X100631666Y-85192380D01*
X100774523Y-85240000D01*
X100822142Y-85287619D01*
X101155476Y-85192380D02*
X101774523Y-85192380D01*
X101441190Y-85573333D01*
X101584047Y-85573333D01*
X101679285Y-85620952D01*
X101726904Y-85668571D01*
X101774523Y-85763809D01*
X101774523Y-86001904D01*
X101726904Y-86097142D01*
X101679285Y-86144761D01*
X101584047Y-86192380D01*
X101298333Y-86192380D01*
X101203095Y-86144761D01*
X101155476Y-86097142D01*
X102250714Y-86192380D02*
X102441190Y-86192380D01*
X102536428Y-86144761D01*
X102584047Y-86097142D01*
X102679285Y-85954285D01*
X102726904Y-85763809D01*
X102726904Y-85382857D01*
X102679285Y-85287619D01*
X102631666Y-85240000D01*
X102536428Y-85192380D01*
X102345952Y-85192380D01*
X102250714Y-85240000D01*
X102203095Y-85287619D01*
X102155476Y-85382857D01*
X102155476Y-85620952D01*
X102203095Y-85716190D01*
X102250714Y-85763809D01*
X102345952Y-85811428D01*
X102536428Y-85811428D01*
X102631666Y-85763809D01*
X102679285Y-85716190D01*
X102726904Y-85620952D01*
X99822142Y-88732380D02*
X99488809Y-88256190D01*
X99250714Y-88732380D02*
X99250714Y-87732380D01*
X99631666Y-87732380D01*
X99726904Y-87780000D01*
X99774523Y-87827619D01*
X99822142Y-87922857D01*
X99822142Y-88065714D01*
X99774523Y-88160952D01*
X99726904Y-88208571D01*
X99631666Y-88256190D01*
X99250714Y-88256190D01*
X100822142Y-88637142D02*
X100774523Y-88684761D01*
X100631666Y-88732380D01*
X100536428Y-88732380D01*
X100393571Y-88684761D01*
X100298333Y-88589523D01*
X100250714Y-88494285D01*
X100203095Y-88303809D01*
X100203095Y-88160952D01*
X100250714Y-87970476D01*
X100298333Y-87875238D01*
X100393571Y-87780000D01*
X100536428Y-87732380D01*
X100631666Y-87732380D01*
X100774523Y-87780000D01*
X100822142Y-87827619D01*
X101679285Y-88065714D02*
X101679285Y-88732380D01*
X101441190Y-87684761D02*
X101203095Y-88399047D01*
X101822142Y-88399047D01*
X102393571Y-87732380D02*
X102488809Y-87732380D01*
X102584047Y-87780000D01*
X102631666Y-87827619D01*
X102679285Y-87922857D01*
X102726904Y-88113333D01*
X102726904Y-88351428D01*
X102679285Y-88541904D01*
X102631666Y-88637142D01*
X102584047Y-88684761D01*
X102488809Y-88732380D01*
X102393571Y-88732380D01*
X102298333Y-88684761D01*
X102250714Y-88637142D01*
X102203095Y-88541904D01*
X102155476Y-88351428D01*
X102155476Y-88113333D01*
X102203095Y-87922857D01*
X102250714Y-87827619D01*
X102298333Y-87780000D01*
X102393571Y-87732380D01*
X99822142Y-43012380D02*
X99488809Y-42536190D01*
X99250714Y-43012380D02*
X99250714Y-42012380D01*
X99631666Y-42012380D01*
X99726904Y-42060000D01*
X99774523Y-42107619D01*
X99822142Y-42202857D01*
X99822142Y-42345714D01*
X99774523Y-42440952D01*
X99726904Y-42488571D01*
X99631666Y-42536190D01*
X99250714Y-42536190D01*
X100822142Y-42917142D02*
X100774523Y-42964761D01*
X100631666Y-43012380D01*
X100536428Y-43012380D01*
X100393571Y-42964761D01*
X100298333Y-42869523D01*
X100250714Y-42774285D01*
X100203095Y-42583809D01*
X100203095Y-42440952D01*
X100250714Y-42250476D01*
X100298333Y-42155238D01*
X100393571Y-42060000D01*
X100536428Y-42012380D01*
X100631666Y-42012380D01*
X100774523Y-42060000D01*
X100822142Y-42107619D01*
X101203095Y-42107619D02*
X101250714Y-42060000D01*
X101345952Y-42012380D01*
X101584047Y-42012380D01*
X101679285Y-42060000D01*
X101726904Y-42107619D01*
X101774523Y-42202857D01*
X101774523Y-42298095D01*
X101726904Y-42440952D01*
X101155476Y-43012380D01*
X101774523Y-43012380D01*
X102631666Y-42012380D02*
X102441190Y-42012380D01*
X102345952Y-42060000D01*
X102298333Y-42107619D01*
X102203095Y-42250476D01*
X102155476Y-42440952D01*
X102155476Y-42821904D01*
X102203095Y-42917142D01*
X102250714Y-42964761D01*
X102345952Y-43012380D01*
X102536428Y-43012380D01*
X102631666Y-42964761D01*
X102679285Y-42917142D01*
X102726904Y-42821904D01*
X102726904Y-42583809D01*
X102679285Y-42488571D01*
X102631666Y-42440952D01*
X102536428Y-42393333D01*
X102345952Y-42393333D01*
X102250714Y-42440952D01*
X102203095Y-42488571D01*
X102155476Y-42583809D01*
X168077380Y-108434047D02*
X167601190Y-108767380D01*
X168077380Y-109005476D02*
X167077380Y-109005476D01*
X167077380Y-108624523D01*
X167125000Y-108529285D01*
X167172619Y-108481666D01*
X167267857Y-108434047D01*
X167410714Y-108434047D01*
X167505952Y-108481666D01*
X167553571Y-108529285D01*
X167601190Y-108624523D01*
X167601190Y-109005476D01*
X168077380Y-107434047D02*
X167601190Y-107767380D01*
X168077380Y-108005476D02*
X167077380Y-108005476D01*
X167077380Y-107624523D01*
X167125000Y-107529285D01*
X167172619Y-107481666D01*
X167267857Y-107434047D01*
X167410714Y-107434047D01*
X167505952Y-107481666D01*
X167553571Y-107529285D01*
X167601190Y-107624523D01*
X167601190Y-108005476D01*
X167553571Y-107005476D02*
X167553571Y-106672142D01*
X168077380Y-106529285D02*
X168077380Y-107005476D01*
X167077380Y-107005476D01*
X167077380Y-106529285D01*
X167172619Y-106148333D02*
X167125000Y-106100714D01*
X167077380Y-106005476D01*
X167077380Y-105767380D01*
X167125000Y-105672142D01*
X167172619Y-105624523D01*
X167267857Y-105576904D01*
X167363095Y-105576904D01*
X167505952Y-105624523D01*
X168077380Y-106195952D01*
X168077380Y-105576904D01*
X99822142Y-106512380D02*
X99488809Y-106036190D01*
X99250714Y-106512380D02*
X99250714Y-105512380D01*
X99631666Y-105512380D01*
X99726904Y-105560000D01*
X99774523Y-105607619D01*
X99822142Y-105702857D01*
X99822142Y-105845714D01*
X99774523Y-105940952D01*
X99726904Y-105988571D01*
X99631666Y-106036190D01*
X99250714Y-106036190D01*
X100822142Y-106417142D02*
X100774523Y-106464761D01*
X100631666Y-106512380D01*
X100536428Y-106512380D01*
X100393571Y-106464761D01*
X100298333Y-106369523D01*
X100250714Y-106274285D01*
X100203095Y-106083809D01*
X100203095Y-105940952D01*
X100250714Y-105750476D01*
X100298333Y-105655238D01*
X100393571Y-105560000D01*
X100536428Y-105512380D01*
X100631666Y-105512380D01*
X100774523Y-105560000D01*
X100822142Y-105607619D01*
X101679285Y-105845714D02*
X101679285Y-106512380D01*
X101441190Y-105464761D02*
X101203095Y-106179047D01*
X101822142Y-106179047D01*
X102107857Y-105512380D02*
X102726904Y-105512380D01*
X102393571Y-105893333D01*
X102536428Y-105893333D01*
X102631666Y-105940952D01*
X102679285Y-105988571D01*
X102726904Y-106083809D01*
X102726904Y-106321904D01*
X102679285Y-106417142D01*
X102631666Y-106464761D01*
X102536428Y-106512380D01*
X102250714Y-106512380D01*
X102155476Y-106464761D01*
X102107857Y-106417142D01*
X99822142Y-109052380D02*
X99488809Y-108576190D01*
X99250714Y-109052380D02*
X99250714Y-108052380D01*
X99631666Y-108052380D01*
X99726904Y-108100000D01*
X99774523Y-108147619D01*
X99822142Y-108242857D01*
X99822142Y-108385714D01*
X99774523Y-108480952D01*
X99726904Y-108528571D01*
X99631666Y-108576190D01*
X99250714Y-108576190D01*
X100822142Y-108957142D02*
X100774523Y-109004761D01*
X100631666Y-109052380D01*
X100536428Y-109052380D01*
X100393571Y-109004761D01*
X100298333Y-108909523D01*
X100250714Y-108814285D01*
X100203095Y-108623809D01*
X100203095Y-108480952D01*
X100250714Y-108290476D01*
X100298333Y-108195238D01*
X100393571Y-108100000D01*
X100536428Y-108052380D01*
X100631666Y-108052380D01*
X100774523Y-108100000D01*
X100822142Y-108147619D01*
X101679285Y-108385714D02*
X101679285Y-109052380D01*
X101441190Y-108004761D02*
X101203095Y-108719047D01*
X101822142Y-108719047D01*
X102631666Y-108385714D02*
X102631666Y-109052380D01*
X102393571Y-108004761D02*
X102155476Y-108719047D01*
X102774523Y-108719047D01*
X99822142Y-111592380D02*
X99488809Y-111116190D01*
X99250714Y-111592380D02*
X99250714Y-110592380D01*
X99631666Y-110592380D01*
X99726904Y-110640000D01*
X99774523Y-110687619D01*
X99822142Y-110782857D01*
X99822142Y-110925714D01*
X99774523Y-111020952D01*
X99726904Y-111068571D01*
X99631666Y-111116190D01*
X99250714Y-111116190D01*
X100822142Y-111497142D02*
X100774523Y-111544761D01*
X100631666Y-111592380D01*
X100536428Y-111592380D01*
X100393571Y-111544761D01*
X100298333Y-111449523D01*
X100250714Y-111354285D01*
X100203095Y-111163809D01*
X100203095Y-111020952D01*
X100250714Y-110830476D01*
X100298333Y-110735238D01*
X100393571Y-110640000D01*
X100536428Y-110592380D01*
X100631666Y-110592380D01*
X100774523Y-110640000D01*
X100822142Y-110687619D01*
X101679285Y-110925714D02*
X101679285Y-111592380D01*
X101441190Y-110544761D02*
X101203095Y-111259047D01*
X101822142Y-111259047D01*
X102679285Y-110592380D02*
X102203095Y-110592380D01*
X102155476Y-111068571D01*
X102203095Y-111020952D01*
X102298333Y-110973333D01*
X102536428Y-110973333D01*
X102631666Y-111020952D01*
X102679285Y-111068571D01*
X102726904Y-111163809D01*
X102726904Y-111401904D01*
X102679285Y-111497142D01*
X102631666Y-111544761D01*
X102536428Y-111592380D01*
X102298333Y-111592380D01*
X102203095Y-111544761D01*
X102155476Y-111497142D01*
X99822142Y-114132380D02*
X99488809Y-113656190D01*
X99250714Y-114132380D02*
X99250714Y-113132380D01*
X99631666Y-113132380D01*
X99726904Y-113180000D01*
X99774523Y-113227619D01*
X99822142Y-113322857D01*
X99822142Y-113465714D01*
X99774523Y-113560952D01*
X99726904Y-113608571D01*
X99631666Y-113656190D01*
X99250714Y-113656190D01*
X100822142Y-114037142D02*
X100774523Y-114084761D01*
X100631666Y-114132380D01*
X100536428Y-114132380D01*
X100393571Y-114084761D01*
X100298333Y-113989523D01*
X100250714Y-113894285D01*
X100203095Y-113703809D01*
X100203095Y-113560952D01*
X100250714Y-113370476D01*
X100298333Y-113275238D01*
X100393571Y-113180000D01*
X100536428Y-113132380D01*
X100631666Y-113132380D01*
X100774523Y-113180000D01*
X100822142Y-113227619D01*
X101679285Y-113465714D02*
X101679285Y-114132380D01*
X101441190Y-113084761D02*
X101203095Y-113799047D01*
X101822142Y-113799047D01*
X102631666Y-113132380D02*
X102441190Y-113132380D01*
X102345952Y-113180000D01*
X102298333Y-113227619D01*
X102203095Y-113370476D01*
X102155476Y-113560952D01*
X102155476Y-113941904D01*
X102203095Y-114037142D01*
X102250714Y-114084761D01*
X102345952Y-114132380D01*
X102536428Y-114132380D01*
X102631666Y-114084761D01*
X102679285Y-114037142D01*
X102726904Y-113941904D01*
X102726904Y-113703809D01*
X102679285Y-113608571D01*
X102631666Y-113560952D01*
X102536428Y-113513333D01*
X102345952Y-113513333D01*
X102250714Y-113560952D01*
X102203095Y-113608571D01*
X102155476Y-113703809D01*
X99822142Y-116672380D02*
X99488809Y-116196190D01*
X99250714Y-116672380D02*
X99250714Y-115672380D01*
X99631666Y-115672380D01*
X99726904Y-115720000D01*
X99774523Y-115767619D01*
X99822142Y-115862857D01*
X99822142Y-116005714D01*
X99774523Y-116100952D01*
X99726904Y-116148571D01*
X99631666Y-116196190D01*
X99250714Y-116196190D01*
X100822142Y-116577142D02*
X100774523Y-116624761D01*
X100631666Y-116672380D01*
X100536428Y-116672380D01*
X100393571Y-116624761D01*
X100298333Y-116529523D01*
X100250714Y-116434285D01*
X100203095Y-116243809D01*
X100203095Y-116100952D01*
X100250714Y-115910476D01*
X100298333Y-115815238D01*
X100393571Y-115720000D01*
X100536428Y-115672380D01*
X100631666Y-115672380D01*
X100774523Y-115720000D01*
X100822142Y-115767619D01*
X101679285Y-116005714D02*
X101679285Y-116672380D01*
X101441190Y-115624761D02*
X101203095Y-116339047D01*
X101822142Y-116339047D01*
X102107857Y-115672380D02*
X102774523Y-115672380D01*
X102345952Y-116672380D01*
X99822142Y-119212380D02*
X99488809Y-118736190D01*
X99250714Y-119212380D02*
X99250714Y-118212380D01*
X99631666Y-118212380D01*
X99726904Y-118260000D01*
X99774523Y-118307619D01*
X99822142Y-118402857D01*
X99822142Y-118545714D01*
X99774523Y-118640952D01*
X99726904Y-118688571D01*
X99631666Y-118736190D01*
X99250714Y-118736190D01*
X100822142Y-119117142D02*
X100774523Y-119164761D01*
X100631666Y-119212380D01*
X100536428Y-119212380D01*
X100393571Y-119164761D01*
X100298333Y-119069523D01*
X100250714Y-118974285D01*
X100203095Y-118783809D01*
X100203095Y-118640952D01*
X100250714Y-118450476D01*
X100298333Y-118355238D01*
X100393571Y-118260000D01*
X100536428Y-118212380D01*
X100631666Y-118212380D01*
X100774523Y-118260000D01*
X100822142Y-118307619D01*
X101679285Y-118545714D02*
X101679285Y-119212380D01*
X101441190Y-118164761D02*
X101203095Y-118879047D01*
X101822142Y-118879047D01*
X102345952Y-118640952D02*
X102250714Y-118593333D01*
X102203095Y-118545714D01*
X102155476Y-118450476D01*
X102155476Y-118402857D01*
X102203095Y-118307619D01*
X102250714Y-118260000D01*
X102345952Y-118212380D01*
X102536428Y-118212380D01*
X102631666Y-118260000D01*
X102679285Y-118307619D01*
X102726904Y-118402857D01*
X102726904Y-118450476D01*
X102679285Y-118545714D01*
X102631666Y-118593333D01*
X102536428Y-118640952D01*
X102345952Y-118640952D01*
X102250714Y-118688571D01*
X102203095Y-118736190D01*
X102155476Y-118831428D01*
X102155476Y-119021904D01*
X102203095Y-119117142D01*
X102250714Y-119164761D01*
X102345952Y-119212380D01*
X102536428Y-119212380D01*
X102631666Y-119164761D01*
X102679285Y-119117142D01*
X102726904Y-119021904D01*
X102726904Y-118831428D01*
X102679285Y-118736190D01*
X102631666Y-118688571D01*
X102536428Y-118640952D01*
X99822142Y-83652380D02*
X99488809Y-83176190D01*
X99250714Y-83652380D02*
X99250714Y-82652380D01*
X99631666Y-82652380D01*
X99726904Y-82700000D01*
X99774523Y-82747619D01*
X99822142Y-82842857D01*
X99822142Y-82985714D01*
X99774523Y-83080952D01*
X99726904Y-83128571D01*
X99631666Y-83176190D01*
X99250714Y-83176190D01*
X100822142Y-83557142D02*
X100774523Y-83604761D01*
X100631666Y-83652380D01*
X100536428Y-83652380D01*
X100393571Y-83604761D01*
X100298333Y-83509523D01*
X100250714Y-83414285D01*
X100203095Y-83223809D01*
X100203095Y-83080952D01*
X100250714Y-82890476D01*
X100298333Y-82795238D01*
X100393571Y-82700000D01*
X100536428Y-82652380D01*
X100631666Y-82652380D01*
X100774523Y-82700000D01*
X100822142Y-82747619D01*
X101155476Y-82652380D02*
X101774523Y-82652380D01*
X101441190Y-83033333D01*
X101584047Y-83033333D01*
X101679285Y-83080952D01*
X101726904Y-83128571D01*
X101774523Y-83223809D01*
X101774523Y-83461904D01*
X101726904Y-83557142D01*
X101679285Y-83604761D01*
X101584047Y-83652380D01*
X101298333Y-83652380D01*
X101203095Y-83604761D01*
X101155476Y-83557142D01*
X102345952Y-83080952D02*
X102250714Y-83033333D01*
X102203095Y-82985714D01*
X102155476Y-82890476D01*
X102155476Y-82842857D01*
X102203095Y-82747619D01*
X102250714Y-82700000D01*
X102345952Y-82652380D01*
X102536428Y-82652380D01*
X102631666Y-82700000D01*
X102679285Y-82747619D01*
X102726904Y-82842857D01*
X102726904Y-82890476D01*
X102679285Y-82985714D01*
X102631666Y-83033333D01*
X102536428Y-83080952D01*
X102345952Y-83080952D01*
X102250714Y-83128571D01*
X102203095Y-83176190D01*
X102155476Y-83271428D01*
X102155476Y-83461904D01*
X102203095Y-83557142D01*
X102250714Y-83604761D01*
X102345952Y-83652380D01*
X102536428Y-83652380D01*
X102631666Y-83604761D01*
X102679285Y-83557142D01*
X102726904Y-83461904D01*
X102726904Y-83271428D01*
X102679285Y-83176190D01*
X102631666Y-83128571D01*
X102536428Y-83080952D01*
X99822142Y-101432380D02*
X99488809Y-100956190D01*
X99250714Y-101432380D02*
X99250714Y-100432380D01*
X99631666Y-100432380D01*
X99726904Y-100480000D01*
X99774523Y-100527619D01*
X99822142Y-100622857D01*
X99822142Y-100765714D01*
X99774523Y-100860952D01*
X99726904Y-100908571D01*
X99631666Y-100956190D01*
X99250714Y-100956190D01*
X100822142Y-101337142D02*
X100774523Y-101384761D01*
X100631666Y-101432380D01*
X100536428Y-101432380D01*
X100393571Y-101384761D01*
X100298333Y-101289523D01*
X100250714Y-101194285D01*
X100203095Y-101003809D01*
X100203095Y-100860952D01*
X100250714Y-100670476D01*
X100298333Y-100575238D01*
X100393571Y-100480000D01*
X100536428Y-100432380D01*
X100631666Y-100432380D01*
X100774523Y-100480000D01*
X100822142Y-100527619D01*
X101679285Y-100765714D02*
X101679285Y-101432380D01*
X101441190Y-100384761D02*
X101203095Y-101099047D01*
X101822142Y-101099047D01*
X102726904Y-101432380D02*
X102155476Y-101432380D01*
X102441190Y-101432380D02*
X102441190Y-100432380D01*
X102345952Y-100575238D01*
X102250714Y-100670476D01*
X102155476Y-100718095D01*
M02*
