G04 #@! TF.GenerationSoftware,KiCad,Pcbnew,(5.1.4)-1*
G04 #@! TF.CreationDate,2019-11-05T22:12:59+01:00*
G04 #@! TF.ProjectId,tablo,7461626c-6f2e-46b6-9963-61645f706362,rev?*
G04 #@! TF.SameCoordinates,Original*
G04 #@! TF.FileFunction,Copper,L2,Bot*
G04 #@! TF.FilePolarity,Positive*
%FSLAX46Y46*%
G04 Gerber Fmt 4.6, Leading zero omitted, Abs format (unit mm)*
G04 Created by KiCad (PCBNEW (5.1.4)-1) date 2019-11-05 22:12:59*
%MOMM*%
%LPD*%
G04 APERTURE LIST*
%ADD10O,1.700000X1.700000*%
%ADD11R,1.700000X1.700000*%
%ADD12R,1.600000X1.600000*%
%ADD13O,1.600000X1.600000*%
%ADD14O,2.000000X1.905000*%
%ADD15R,2.000000X1.905000*%
%ADD16O,1.400000X1.400000*%
%ADD17C,1.400000*%
%ADD18C,0.800000*%
%ADD19C,0.500000*%
%ADD20C,0.250000*%
G04 APERTURE END LIST*
D10*
X127000000Y-83820000D03*
X124460000Y-83820000D03*
X127000000Y-81280000D03*
X124460000Y-81280000D03*
X127000000Y-78740000D03*
X124460000Y-78740000D03*
X127000000Y-76200000D03*
X124460000Y-76200000D03*
X127000000Y-73660000D03*
X124460000Y-73660000D03*
X127000000Y-71120000D03*
X124460000Y-71120000D03*
X127000000Y-68580000D03*
X124460000Y-68580000D03*
X127000000Y-66040000D03*
X124460000Y-66040000D03*
X127000000Y-63500000D03*
X124460000Y-63500000D03*
X127000000Y-60960000D03*
X124460000Y-60960000D03*
X127000000Y-58420000D03*
X124460000Y-58420000D03*
X127000000Y-55880000D03*
X124460000Y-55880000D03*
X127000000Y-53340000D03*
X124460000Y-53340000D03*
X127000000Y-50800000D03*
X124460000Y-50800000D03*
X127000000Y-48260000D03*
X124460000Y-48260000D03*
X127000000Y-45720000D03*
X124460000Y-45720000D03*
X127000000Y-43180000D03*
X124460000Y-43180000D03*
X127000000Y-40640000D03*
X124460000Y-40640000D03*
X127000000Y-38100000D03*
X124460000Y-38100000D03*
X127000000Y-35560000D03*
D11*
X124460000Y-35560000D03*
D10*
X168910000Y-64135000D03*
D11*
X166370000Y-64135000D03*
D12*
X171450000Y-76835000D03*
D13*
X156210000Y-84455000D03*
X168910000Y-76835000D03*
X158750000Y-84455000D03*
X166370000Y-76835000D03*
X161290000Y-84455000D03*
X163830000Y-76835000D03*
X163830000Y-84455000D03*
X161290000Y-76835000D03*
X166370000Y-84455000D03*
X158750000Y-76835000D03*
X168910000Y-84455000D03*
X156210000Y-76835000D03*
X171450000Y-84455000D03*
X134620000Y-76835000D03*
X149860000Y-84455000D03*
X137160000Y-76835000D03*
X147320000Y-84455000D03*
X139700000Y-76835000D03*
X144780000Y-84455000D03*
X142240000Y-76835000D03*
X142240000Y-84455000D03*
X144780000Y-76835000D03*
X139700000Y-84455000D03*
X147320000Y-76835000D03*
X137160000Y-84455000D03*
X149860000Y-76835000D03*
D12*
X134620000Y-84455000D03*
D10*
X22860000Y-116840000D03*
X22860000Y-114300000D03*
X22860000Y-111760000D03*
X22860000Y-109220000D03*
X22860000Y-106680000D03*
X22860000Y-104140000D03*
X22860000Y-101600000D03*
D11*
X22860000Y-99060000D03*
X22860000Y-86360000D03*
D10*
X22860000Y-83820000D03*
X22860000Y-81280000D03*
X22860000Y-78740000D03*
X22860000Y-76200000D03*
X22860000Y-73660000D03*
X22860000Y-71120000D03*
X22860000Y-68580000D03*
X22860000Y-38100000D03*
X22860000Y-40640000D03*
X22860000Y-43180000D03*
X22860000Y-45720000D03*
X22860000Y-48260000D03*
X22860000Y-50800000D03*
X22860000Y-53340000D03*
D11*
X22860000Y-55880000D03*
X108585000Y-38100000D03*
D10*
X108585000Y-40640000D03*
X108585000Y-43180000D03*
X108585000Y-45720000D03*
X108585000Y-48260000D03*
X108585000Y-50800000D03*
X108585000Y-53340000D03*
X108585000Y-55880000D03*
X108585000Y-86360000D03*
X108585000Y-83820000D03*
X108585000Y-81280000D03*
X108585000Y-78740000D03*
X108585000Y-76200000D03*
X108585000Y-73660000D03*
X108585000Y-71120000D03*
D11*
X108585000Y-68580000D03*
X108585000Y-99060000D03*
D10*
X108585000Y-101600000D03*
X108585000Y-104140000D03*
X108585000Y-106680000D03*
X108585000Y-109220000D03*
X108585000Y-111760000D03*
X108585000Y-114300000D03*
X108585000Y-116840000D03*
X155575000Y-117475000D03*
X158115000Y-117475000D03*
X160655000Y-117475000D03*
X163195000Y-117475000D03*
X165735000Y-117475000D03*
X168275000Y-117475000D03*
X170815000Y-117475000D03*
D11*
X173355000Y-117475000D03*
X133985000Y-117475000D03*
D10*
X131445000Y-117475000D03*
X128905000Y-117475000D03*
X126365000Y-117475000D03*
X123825000Y-117475000D03*
X121285000Y-117475000D03*
X118745000Y-117475000D03*
X116205000Y-117475000D03*
D13*
X141605000Y-26670000D03*
X133985000Y-44450000D03*
X141605000Y-29210000D03*
X133985000Y-41910000D03*
X141605000Y-31750000D03*
X133985000Y-39370000D03*
X141605000Y-34290000D03*
X133985000Y-36830000D03*
X141605000Y-36830000D03*
X133985000Y-34290000D03*
X141605000Y-39370000D03*
X133985000Y-31750000D03*
X141605000Y-41910000D03*
X133985000Y-29210000D03*
X141605000Y-44450000D03*
D12*
X133985000Y-26670000D03*
X133985000Y-50165000D03*
D13*
X141605000Y-67945000D03*
X133985000Y-52705000D03*
X141605000Y-65405000D03*
X133985000Y-55245000D03*
X141605000Y-62865000D03*
X133985000Y-57785000D03*
X141605000Y-60325000D03*
X133985000Y-60325000D03*
X141605000Y-57785000D03*
X133985000Y-62865000D03*
X141605000Y-55245000D03*
X133985000Y-65405000D03*
X141605000Y-52705000D03*
X133985000Y-67945000D03*
X141605000Y-50165000D03*
X37465000Y-116840000D03*
X45085000Y-96520000D03*
X37465000Y-114300000D03*
X45085000Y-99060000D03*
X37465000Y-111760000D03*
X45085000Y-101600000D03*
X37465000Y-109220000D03*
X45085000Y-104140000D03*
X37465000Y-106680000D03*
X45085000Y-106680000D03*
X37465000Y-104140000D03*
X45085000Y-109220000D03*
X37465000Y-101600000D03*
X45085000Y-111760000D03*
X37465000Y-99060000D03*
X45085000Y-114300000D03*
X37465000Y-96520000D03*
D12*
X45085000Y-116840000D03*
X86360000Y-99060000D03*
D13*
X93980000Y-119380000D03*
X86360000Y-101600000D03*
X93980000Y-116840000D03*
X86360000Y-104140000D03*
X93980000Y-114300000D03*
X86360000Y-106680000D03*
X93980000Y-111760000D03*
X86360000Y-109220000D03*
X93980000Y-109220000D03*
X86360000Y-111760000D03*
X93980000Y-106680000D03*
X86360000Y-114300000D03*
X93980000Y-104140000D03*
X86360000Y-116840000D03*
X93980000Y-101600000D03*
X86360000Y-119380000D03*
X93980000Y-99060000D03*
X93980000Y-68580000D03*
X86360000Y-88900000D03*
X93980000Y-71120000D03*
X86360000Y-86360000D03*
X93980000Y-73660000D03*
X86360000Y-83820000D03*
X93980000Y-76200000D03*
X86360000Y-81280000D03*
X93980000Y-78740000D03*
X86360000Y-78740000D03*
X93980000Y-81280000D03*
X86360000Y-76200000D03*
X93980000Y-83820000D03*
X86360000Y-73660000D03*
X93980000Y-86360000D03*
X86360000Y-71120000D03*
X93980000Y-88900000D03*
D12*
X86360000Y-68580000D03*
X45085000Y-86360000D03*
D13*
X37465000Y-66040000D03*
X45085000Y-83820000D03*
X37465000Y-68580000D03*
X45085000Y-81280000D03*
X37465000Y-71120000D03*
X45085000Y-78740000D03*
X37465000Y-73660000D03*
X45085000Y-76200000D03*
X37465000Y-76200000D03*
X45085000Y-73660000D03*
X37465000Y-78740000D03*
X45085000Y-71120000D03*
X37465000Y-81280000D03*
X45085000Y-68580000D03*
X37465000Y-83820000D03*
X45085000Y-66040000D03*
X37465000Y-86360000D03*
X93980000Y-38100000D03*
X86360000Y-58420000D03*
X93980000Y-40640000D03*
X86360000Y-55880000D03*
X93980000Y-43180000D03*
X86360000Y-53340000D03*
X93980000Y-45720000D03*
X86360000Y-50800000D03*
X93980000Y-48260000D03*
X86360000Y-48260000D03*
X93980000Y-50800000D03*
X86360000Y-45720000D03*
X93980000Y-53340000D03*
X86360000Y-43180000D03*
X93980000Y-55880000D03*
X86360000Y-40640000D03*
X93980000Y-58420000D03*
D12*
X86360000Y-38100000D03*
X45085000Y-55880000D03*
D13*
X37465000Y-35560000D03*
X45085000Y-53340000D03*
X37465000Y-38100000D03*
X45085000Y-50800000D03*
X37465000Y-40640000D03*
X45085000Y-48260000D03*
X37465000Y-43180000D03*
X45085000Y-45720000D03*
X37465000Y-45720000D03*
X45085000Y-43180000D03*
X37465000Y-48260000D03*
X45085000Y-40640000D03*
X37465000Y-50800000D03*
X45085000Y-38100000D03*
X37465000Y-53340000D03*
X45085000Y-35560000D03*
X37465000Y-55880000D03*
X82550000Y-96520000D03*
X74930000Y-119380000D03*
X82550000Y-99060000D03*
X74930000Y-116840000D03*
X82550000Y-101600000D03*
X74930000Y-114300000D03*
X82550000Y-104140000D03*
X74930000Y-111760000D03*
X82550000Y-106680000D03*
X74930000Y-109220000D03*
X82550000Y-109220000D03*
X74930000Y-106680000D03*
X82550000Y-111760000D03*
X74930000Y-104140000D03*
X82550000Y-114300000D03*
X74930000Y-101600000D03*
X82550000Y-116840000D03*
X74930000Y-99060000D03*
X82550000Y-119380000D03*
D12*
X74930000Y-96520000D03*
X74930000Y-66040000D03*
D13*
X82550000Y-88900000D03*
X74930000Y-68580000D03*
X82550000Y-86360000D03*
X74930000Y-71120000D03*
X82550000Y-83820000D03*
X74930000Y-73660000D03*
X82550000Y-81280000D03*
X74930000Y-76200000D03*
X82550000Y-78740000D03*
X74930000Y-78740000D03*
X82550000Y-76200000D03*
X74930000Y-81280000D03*
X82550000Y-73660000D03*
X74930000Y-83820000D03*
X82550000Y-71120000D03*
X74930000Y-86360000D03*
X82550000Y-68580000D03*
X74930000Y-88900000D03*
X82550000Y-66040000D03*
X82550000Y-35560000D03*
X74930000Y-58420000D03*
X82550000Y-38100000D03*
X74930000Y-55880000D03*
X82550000Y-40640000D03*
X74930000Y-53340000D03*
X82550000Y-43180000D03*
X74930000Y-50800000D03*
X82550000Y-45720000D03*
X74930000Y-48260000D03*
X82550000Y-48260000D03*
X74930000Y-45720000D03*
X82550000Y-50800000D03*
X74930000Y-43180000D03*
X82550000Y-53340000D03*
X74930000Y-40640000D03*
X82550000Y-55880000D03*
X74930000Y-38100000D03*
X82550000Y-58420000D03*
D12*
X74930000Y-35560000D03*
X56515000Y-58420000D03*
D13*
X48895000Y-35560000D03*
X56515000Y-55880000D03*
X48895000Y-38100000D03*
X56515000Y-53340000D03*
X48895000Y-40640000D03*
X56515000Y-50800000D03*
X48895000Y-43180000D03*
X56515000Y-48260000D03*
X48895000Y-45720000D03*
X56515000Y-45720000D03*
X48895000Y-48260000D03*
X56515000Y-43180000D03*
X48895000Y-50800000D03*
X56515000Y-40640000D03*
X48895000Y-53340000D03*
X56515000Y-38100000D03*
X48895000Y-55880000D03*
X56515000Y-35560000D03*
X48895000Y-58420000D03*
X48895000Y-88900000D03*
X56515000Y-66040000D03*
X48895000Y-86360000D03*
X56515000Y-68580000D03*
X48895000Y-83820000D03*
X56515000Y-71120000D03*
X48895000Y-81280000D03*
X56515000Y-73660000D03*
X48895000Y-78740000D03*
X56515000Y-76200000D03*
X48895000Y-76200000D03*
X56515000Y-78740000D03*
X48895000Y-73660000D03*
X56515000Y-81280000D03*
X48895000Y-71120000D03*
X56515000Y-83820000D03*
X48895000Y-68580000D03*
X56515000Y-86360000D03*
X48895000Y-66040000D03*
D12*
X56515000Y-88900000D03*
X56515000Y-119380000D03*
D13*
X48895000Y-96520000D03*
X56515000Y-116840000D03*
X48895000Y-99060000D03*
X56515000Y-114300000D03*
X48895000Y-101600000D03*
X56515000Y-111760000D03*
X48895000Y-104140000D03*
X56515000Y-109220000D03*
X48895000Y-106680000D03*
X56515000Y-106680000D03*
X48895000Y-109220000D03*
X56515000Y-104140000D03*
X48895000Y-111760000D03*
X56515000Y-101600000D03*
X48895000Y-114300000D03*
X56515000Y-99060000D03*
X48895000Y-116840000D03*
X56515000Y-96520000D03*
X48895000Y-119380000D03*
D14*
X151765000Y-108585000D03*
X151765000Y-106045000D03*
D15*
X151765000Y-103505000D03*
X116205000Y-103505000D03*
D14*
X116205000Y-106045000D03*
X116205000Y-108585000D03*
X121285000Y-108585000D03*
X121285000Y-106045000D03*
D15*
X121285000Y-103505000D03*
X126365000Y-103505000D03*
D14*
X126365000Y-106045000D03*
X126365000Y-108585000D03*
X136525000Y-108585000D03*
X136525000Y-106045000D03*
D15*
X136525000Y-103505000D03*
X141605000Y-103505000D03*
D14*
X141605000Y-106045000D03*
X141605000Y-108585000D03*
X131445000Y-108585000D03*
X131445000Y-106045000D03*
D15*
X131445000Y-103505000D03*
X156845000Y-103505000D03*
D14*
X156845000Y-106045000D03*
X156845000Y-108585000D03*
X161925000Y-108585000D03*
X161925000Y-106045000D03*
D15*
X161925000Y-103505000D03*
X167005000Y-103505000D03*
D14*
X167005000Y-106045000D03*
X167005000Y-108585000D03*
X146685000Y-108585000D03*
X146685000Y-106045000D03*
D15*
X146685000Y-103505000D03*
X172085000Y-103505000D03*
D14*
X172085000Y-106045000D03*
X172085000Y-108585000D03*
D16*
X34290000Y-40640000D03*
D17*
X26670000Y-40640000D03*
X26670000Y-68580000D03*
D16*
X34290000Y-68580000D03*
X34290000Y-55880000D03*
D17*
X26670000Y-55880000D03*
X26670000Y-53340000D03*
D16*
X34290000Y-53340000D03*
X34290000Y-50800000D03*
D17*
X26670000Y-50800000D03*
X26670000Y-48260000D03*
D16*
X34290000Y-48260000D03*
X34290000Y-45720000D03*
D17*
X26670000Y-45720000D03*
X26670000Y-43180000D03*
D16*
X34290000Y-43180000D03*
X172085000Y-100965000D03*
D17*
X172085000Y-93345000D03*
X26670000Y-38100000D03*
D16*
X34290000Y-38100000D03*
X34290000Y-76200000D03*
D17*
X26670000Y-76200000D03*
X26670000Y-73660000D03*
D16*
X34290000Y-73660000D03*
X34290000Y-78740000D03*
D17*
X26670000Y-78740000D03*
X26670000Y-81280000D03*
D16*
X34290000Y-81280000D03*
X34290000Y-83820000D03*
D17*
X26670000Y-83820000D03*
X26670000Y-86360000D03*
D16*
X34290000Y-86360000D03*
X34290000Y-71120000D03*
D17*
X26670000Y-71120000D03*
X104775000Y-101600000D03*
D16*
X97155000Y-101600000D03*
X156845000Y-100965000D03*
D17*
X156845000Y-93345000D03*
X26670000Y-106680000D03*
D16*
X34290000Y-106680000D03*
X34290000Y-109220000D03*
D17*
X26670000Y-109220000D03*
X26670000Y-111760000D03*
D16*
X34290000Y-111760000D03*
X34290000Y-114300000D03*
D17*
X26670000Y-114300000D03*
X26670000Y-116840000D03*
D16*
X34290000Y-116840000D03*
X97155000Y-38100000D03*
D17*
X104775000Y-38100000D03*
X26670000Y-99060000D03*
D16*
X34290000Y-99060000D03*
X34290000Y-101600000D03*
D17*
X26670000Y-101600000D03*
X151765000Y-93345000D03*
D16*
X151765000Y-100965000D03*
X146685000Y-100965000D03*
D17*
X146685000Y-93345000D03*
X141605000Y-93345000D03*
D16*
X141605000Y-100965000D03*
X136525000Y-100965000D03*
D17*
X136525000Y-93345000D03*
X131445000Y-93345000D03*
D16*
X131445000Y-100965000D03*
X126365000Y-100965000D03*
D17*
X126365000Y-93345000D03*
X121285000Y-93345000D03*
D16*
X121285000Y-100965000D03*
X116205000Y-100965000D03*
D17*
X116205000Y-93345000D03*
X161925000Y-93345000D03*
D16*
X161925000Y-100965000D03*
X97155000Y-53340000D03*
D17*
X104775000Y-53340000D03*
X164465000Y-111125000D03*
D16*
X164465000Y-103505000D03*
X159385000Y-103505000D03*
D17*
X159385000Y-111125000D03*
X154305000Y-111125000D03*
D16*
X154305000Y-103505000D03*
X149225000Y-103505000D03*
D17*
X149225000Y-111125000D03*
X144145000Y-111125000D03*
D16*
X144145000Y-103505000D03*
X139065000Y-103505000D03*
D17*
X139065000Y-111125000D03*
X133985000Y-111125000D03*
D16*
X133985000Y-103505000D03*
X34290000Y-104140000D03*
D17*
X26670000Y-104140000D03*
X123825000Y-111125000D03*
D16*
X123825000Y-103505000D03*
X118745000Y-103505000D03*
D17*
X118745000Y-111125000D03*
X174625000Y-111125000D03*
D16*
X174625000Y-103505000D03*
X97155000Y-43180000D03*
D17*
X104775000Y-43180000D03*
X104775000Y-45720000D03*
D16*
X97155000Y-45720000D03*
X97155000Y-48260000D03*
D17*
X104775000Y-48260000D03*
X104775000Y-50800000D03*
D16*
X97155000Y-50800000D03*
X97155000Y-55880000D03*
D17*
X104775000Y-55880000D03*
X128905000Y-111125000D03*
D16*
X128905000Y-103505000D03*
X97155000Y-68580000D03*
D17*
X104775000Y-68580000D03*
X104775000Y-71120000D03*
D16*
X97155000Y-71120000D03*
X97155000Y-73660000D03*
D17*
X104775000Y-73660000D03*
X104775000Y-76200000D03*
D16*
X97155000Y-76200000D03*
X97155000Y-78740000D03*
D17*
X104775000Y-78740000D03*
X167005000Y-93345000D03*
D16*
X167005000Y-100965000D03*
X97155000Y-83820000D03*
D17*
X104775000Y-83820000D03*
X104775000Y-86360000D03*
D16*
X97155000Y-86360000D03*
X97155000Y-40640000D03*
D17*
X104775000Y-40640000D03*
X169545000Y-111125000D03*
D16*
X169545000Y-103505000D03*
X97155000Y-104140000D03*
D17*
X104775000Y-104140000D03*
X104775000Y-106680000D03*
D16*
X97155000Y-106680000D03*
X97155000Y-109220000D03*
D17*
X104775000Y-109220000D03*
X104775000Y-111760000D03*
D16*
X97155000Y-111760000D03*
X97155000Y-114300000D03*
D17*
X104775000Y-114300000D03*
X104775000Y-116840000D03*
D16*
X97155000Y-116840000D03*
X97155000Y-81280000D03*
D17*
X104775000Y-81280000D03*
X104775000Y-99060000D03*
D16*
X97155000Y-99060000D03*
D18*
X74930000Y-91440000D03*
X121285000Y-66040000D03*
X82550000Y-63500000D03*
X80010000Y-63500000D03*
X62230000Y-92710000D03*
X109855000Y-93980000D03*
X72390000Y-24130000D03*
X72390000Y-35560000D03*
X72390000Y-64770000D03*
X72390000Y-92710000D03*
X71120000Y-25400000D03*
X120015000Y-25400000D03*
X71120000Y-36830000D03*
X71120000Y-66040000D03*
X71120000Y-93980000D03*
X69850000Y-26670000D03*
X118745000Y-26670000D03*
X69850000Y-38100000D03*
X69850000Y-67310000D03*
X69850000Y-95250000D03*
X68580000Y-27940000D03*
X117475000Y-27940000D03*
X117475000Y-64770000D03*
X68580000Y-39370000D03*
X68580000Y-68580000D03*
X68580000Y-96520000D03*
X67310000Y-29210000D03*
X116299999Y-62324999D03*
X116299999Y-29304999D03*
X67310000Y-40640000D03*
X67310000Y-69850000D03*
X67310000Y-97790000D03*
X66040000Y-30480000D03*
X114935000Y-60960000D03*
X114935000Y-30480000D03*
X66040000Y-41910000D03*
X66040000Y-71120000D03*
X66040000Y-99060000D03*
X64770000Y-31750000D03*
X64770000Y-43180000D03*
X64770000Y-72390000D03*
X64770000Y-100330000D03*
X113665000Y-31750000D03*
X113665000Y-58420000D03*
X63500000Y-33020000D03*
X63500000Y-43575002D03*
X63500000Y-73660000D03*
X63500000Y-101600000D03*
X112395000Y-33020000D03*
X112395000Y-63500000D03*
X62230000Y-90170000D03*
X108585000Y-92710000D03*
X129540000Y-68580000D03*
X121285000Y-84455000D03*
X130810000Y-53975000D03*
X137795000Y-71755000D03*
X139065000Y-71755000D03*
X140335000Y-71755000D03*
X141605000Y-71755000D03*
X154940000Y-71120000D03*
X142875000Y-71755000D03*
X137160000Y-43815000D03*
X153670000Y-71120000D03*
X152400000Y-71120000D03*
X151130000Y-71120000D03*
X149860000Y-71120000D03*
X148590000Y-71120000D03*
X144145000Y-71755000D03*
D19*
X116205000Y-108585000D02*
X172085000Y-108585000D01*
X172085000Y-108585000D02*
X174625000Y-111125000D01*
X174625000Y-111125000D02*
X118110000Y-111125000D01*
X116205000Y-108585000D02*
X118745000Y-111125000D01*
X56515000Y-35560000D02*
X54610000Y-33655000D01*
X45884999Y-34760001D02*
X45085000Y-35560000D01*
X46990000Y-33655000D02*
X45884999Y-34760001D01*
X54610000Y-33655000D02*
X46990000Y-33655000D01*
X44285001Y-65240001D02*
X45085000Y-66040000D01*
X43180000Y-64135000D02*
X44285001Y-65240001D01*
X43180000Y-37465000D02*
X43180000Y-64135000D01*
X45085000Y-35560000D02*
X43180000Y-37465000D01*
X44285001Y-95720001D02*
X45085000Y-96520000D01*
X42545000Y-93980000D02*
X44285001Y-95720001D01*
X42545000Y-68580000D02*
X42545000Y-93980000D01*
X45085000Y-66040000D02*
X42545000Y-68580000D01*
X74930000Y-58420000D02*
X59690000Y-43180000D01*
X59690000Y-38735000D02*
X56515000Y-35560000D01*
X59690000Y-43180000D02*
X59690000Y-38735000D01*
X85109999Y-59670001D02*
X86360000Y-58420000D01*
X74930000Y-58420000D02*
X76180001Y-59670001D01*
X76180001Y-59670001D02*
X85109999Y-59670001D01*
X76180001Y-87649999D02*
X74930000Y-88900000D01*
X76180001Y-59670001D02*
X76180001Y-87649999D01*
X85560001Y-120179999D02*
X86360000Y-119380000D01*
X85109999Y-120630001D02*
X85560001Y-120179999D01*
X75048631Y-120630001D02*
X85109999Y-120630001D01*
X74930000Y-120511370D02*
X75048631Y-120630001D01*
X74930000Y-119380000D02*
X74930000Y-120511370D01*
X116205000Y-110037500D02*
X116205000Y-108585000D01*
X116205000Y-111144002D02*
X116205000Y-110037500D01*
X106719001Y-120630001D02*
X116205000Y-111144002D01*
X86478631Y-120630001D02*
X106719001Y-120630001D01*
X86360000Y-120511370D02*
X86478631Y-120630001D01*
X86360000Y-119380000D02*
X86360000Y-120511370D01*
X116157500Y-108585000D02*
X113030000Y-105457500D01*
X116205000Y-108585000D02*
X116157500Y-108585000D01*
X113030000Y-94817998D02*
X118947998Y-88900000D01*
X113030000Y-105457500D02*
X113030000Y-94817998D01*
X145415000Y-88900000D02*
X149860000Y-84455000D01*
X130810000Y-69988630D02*
X130810000Y-88900000D01*
X132853630Y-67945000D02*
X130810000Y-69988630D01*
X133985000Y-67945000D02*
X132853630Y-67945000D01*
X118947998Y-88900000D02*
X130810000Y-88900000D01*
X130810000Y-88900000D02*
X145415000Y-88900000D01*
X137160000Y-47625000D02*
X133985000Y-44450000D01*
X133985000Y-67945000D02*
X137160000Y-64770000D01*
X133985000Y-57785000D02*
X133985000Y-60325000D01*
X133985000Y-60325000D02*
X137160000Y-60325000D01*
X137160000Y-64770000D02*
X137160000Y-60325000D01*
X137160000Y-60325000D02*
X137160000Y-47625000D01*
D20*
X132080000Y-36195000D02*
X133985000Y-34290000D01*
X133985000Y-44450000D02*
X132080000Y-42545000D01*
X133985000Y-36830000D02*
X132080000Y-36830000D01*
X132080000Y-42545000D02*
X132080000Y-36830000D01*
X132080000Y-36830000D02*
X132080000Y-36195000D01*
D19*
X85560001Y-89699999D02*
X86360000Y-88900000D01*
X85109999Y-90150001D02*
X85560001Y-89699999D01*
X75048631Y-90150001D02*
X85109999Y-90150001D01*
X74930000Y-90031370D02*
X75048631Y-90150001D01*
X74930000Y-88900000D02*
X74930000Y-90031370D01*
X113030000Y-94626998D02*
X113030000Y-94817998D01*
X110263001Y-91859999D02*
X113030000Y-94626998D01*
X88188629Y-91859999D02*
X110263001Y-91859999D01*
X86360000Y-90031370D02*
X88188629Y-91859999D01*
X86360000Y-88900000D02*
X86360000Y-90031370D01*
X177800000Y-107950000D02*
X177800000Y-70485000D01*
X174625000Y-111125000D02*
X177800000Y-107950000D01*
X177800000Y-70485000D02*
X171450000Y-64135000D01*
X171450000Y-64135000D02*
X171450000Y-64135000D01*
X171450000Y-64135000D02*
X168910000Y-64135000D01*
X168060001Y-64984999D02*
X168910000Y-64135000D01*
X167609999Y-65435001D02*
X168060001Y-64984999D01*
X145415000Y-62865000D02*
X147985001Y-65435001D01*
X127000000Y-40640000D02*
X129540000Y-38100000D01*
X147985001Y-65435001D02*
X167609999Y-65435001D01*
X129540000Y-38100000D02*
X129540000Y-26035000D01*
X129540000Y-26035000D02*
X131445000Y-24130000D01*
X131445000Y-24130000D02*
X142875000Y-24130000D01*
X142875000Y-24130000D02*
X145415000Y-26670000D01*
X145415000Y-26670000D02*
X145415000Y-62865000D01*
D20*
X57565000Y-58420000D02*
X56515000Y-58420000D01*
X68360000Y-58420000D02*
X57565000Y-58420000D01*
X74930000Y-64990000D02*
X68360000Y-58420000D01*
X74930000Y-66040000D02*
X74930000Y-64990000D01*
X72390000Y-88900000D02*
X74930000Y-91440000D01*
X56515000Y-88900000D02*
X72390000Y-88900000D01*
X57565000Y-119380000D02*
X56515000Y-119380000D01*
X72840010Y-104104990D02*
X57565000Y-119380000D01*
X72840010Y-97559990D02*
X72840010Y-104104990D01*
X73880000Y-96520000D02*
X72840010Y-97559990D01*
X74930000Y-96520000D02*
X73880000Y-96520000D01*
X123895999Y-52164999D02*
X121285000Y-54775998D01*
X127000000Y-53340000D02*
X125824999Y-52164999D01*
X125824999Y-52164999D02*
X123895999Y-52164999D01*
X121285000Y-54775998D02*
X121285000Y-66040000D01*
X121285000Y-66040000D02*
X121285000Y-66040000D01*
X82550000Y-63500000D02*
X80010000Y-63500000D01*
X80010000Y-63500000D02*
X80010000Y-63500000D01*
X62230000Y-92710000D02*
X62955001Y-91984999D01*
X109289315Y-93980000D02*
X109855000Y-93980000D01*
X75760588Y-93980000D02*
X109289315Y-93980000D01*
X73765587Y-91984999D02*
X75760588Y-93980000D01*
X62955001Y-91984999D02*
X73765587Y-91984999D01*
X72390000Y-35560000D02*
X72390000Y-35560000D01*
X72390000Y-35560000D02*
X74930000Y-38100000D01*
X72390000Y-24130000D02*
X72390000Y-35560000D01*
X72390000Y-35560000D02*
X72390000Y-35560000D01*
X55715001Y-85560001D02*
X56515000Y-86360000D01*
X52689939Y-82534939D02*
X55715001Y-85560001D01*
X52689939Y-64381599D02*
X52689939Y-82534939D01*
X55926548Y-61144990D02*
X52689939Y-64381599D01*
X68764991Y-61144991D02*
X55926548Y-61144990D01*
X72390000Y-64770000D02*
X68764991Y-61144991D01*
X72390000Y-66040000D02*
X74930000Y-68580000D01*
X72390000Y-64770000D02*
X72390000Y-66040000D01*
X72390000Y-100965000D02*
X56515000Y-116840000D01*
X72390000Y-92710000D02*
X72390000Y-100965000D01*
X120015000Y-25400000D02*
X120015000Y-71120000D01*
X120015000Y-71120000D02*
X124460000Y-71120000D01*
X71120000Y-36830000D02*
X71120000Y-36830000D01*
X71120000Y-25400000D02*
X71120000Y-36830000D01*
X71120000Y-36830000D02*
X74930000Y-40640000D01*
X71120000Y-66040000D02*
X66675000Y-61595000D01*
X55715001Y-83020001D02*
X56515000Y-83820000D01*
X53139949Y-80444949D02*
X55715001Y-83020001D01*
X53139949Y-64567999D02*
X53139949Y-80444949D01*
X56112948Y-61595000D02*
X53139949Y-64567999D01*
X66675000Y-61595000D02*
X56112948Y-61595000D01*
X71120000Y-67310000D02*
X74930000Y-71120000D01*
X71120000Y-66040000D02*
X71120000Y-67310000D01*
X71120000Y-99695000D02*
X56515000Y-114300000D01*
X71120000Y-93980000D02*
X71120000Y-99695000D01*
X118745000Y-73660000D02*
X118745000Y-26670000D01*
X124460000Y-73660000D02*
X118745000Y-73660000D01*
X69850000Y-38100000D02*
X69850000Y-38100000D01*
X74930000Y-43180000D02*
X69850000Y-38100000D01*
X69850000Y-38100000D02*
X69850000Y-26670000D01*
X69850000Y-67310000D02*
X64770000Y-62230000D01*
X55715001Y-80480001D02*
X56515000Y-81280000D01*
X53589959Y-78354959D02*
X55715001Y-80480001D01*
X53589959Y-64754399D02*
X53589959Y-78354959D01*
X56114358Y-62230000D02*
X53589959Y-64754399D01*
X64770000Y-62230000D02*
X56114358Y-62230000D01*
X69850000Y-68580000D02*
X74930000Y-73660000D01*
X69850000Y-67310000D02*
X69850000Y-68580000D01*
X69850000Y-98425000D02*
X56515000Y-111760000D01*
X69850000Y-95250000D02*
X69850000Y-98425000D01*
X117475000Y-27940000D02*
X117475000Y-64770000D01*
X68580000Y-39370000D02*
X68580000Y-39370000D01*
X74930000Y-45720000D02*
X68580000Y-39370000D01*
X68580000Y-39370000D02*
X68580000Y-27940000D01*
X68580000Y-68580000D02*
X62865000Y-62865000D01*
X55715001Y-77940001D02*
X56515000Y-78740000D01*
X54039969Y-76264969D02*
X55715001Y-77940001D01*
X54039969Y-64940799D02*
X54039969Y-76264969D01*
X56115768Y-62865000D02*
X54039969Y-64940799D01*
X62865000Y-62865000D02*
X56115768Y-62865000D01*
X68580000Y-69850000D02*
X74930000Y-76200000D01*
X68580000Y-68580000D02*
X68580000Y-69850000D01*
X57646370Y-109220000D02*
X56515000Y-109220000D01*
X58225822Y-109220000D02*
X57646370Y-109220000D01*
X68035001Y-99410821D02*
X58225822Y-109220000D01*
X68035001Y-97064999D02*
X68035001Y-99410821D01*
X68580000Y-96520000D02*
X68035001Y-97064999D01*
X116299999Y-62324999D02*
X116299999Y-29304999D01*
X116299999Y-29304999D02*
X116299999Y-29304999D01*
X67310000Y-40640000D02*
X67310000Y-40640000D01*
X74930000Y-48260000D02*
X67310000Y-40640000D01*
X67310000Y-40640000D02*
X67310000Y-29210000D01*
X67310000Y-69850000D02*
X60960000Y-63500000D01*
X55715001Y-75400001D02*
X56515000Y-76200000D01*
X54489979Y-74174979D02*
X55715001Y-75400001D01*
X54489979Y-65127199D02*
X54489979Y-74174979D01*
X56117178Y-63500000D02*
X54489979Y-65127199D01*
X60960000Y-63500000D02*
X56117178Y-63500000D01*
X67310000Y-71120000D02*
X74930000Y-78740000D01*
X67310000Y-69850000D02*
X67310000Y-71120000D01*
X57646370Y-106680000D02*
X56515000Y-106680000D01*
X60129412Y-106680000D02*
X57646370Y-106680000D01*
X67310000Y-99499412D02*
X60129412Y-106680000D01*
X67310000Y-97790000D02*
X67310000Y-99499412D01*
X114935000Y-60960000D02*
X114935000Y-30480000D01*
X114935000Y-30480000D02*
X114935000Y-30480000D01*
X66040000Y-41910000D02*
X66040000Y-41910000D01*
X74930000Y-50800000D02*
X66040000Y-41910000D01*
X66040000Y-41910000D02*
X66040000Y-30480000D01*
X66040000Y-71120000D02*
X59055000Y-64135000D01*
X55715001Y-72860001D02*
X56515000Y-73660000D01*
X54939989Y-72084989D02*
X55715001Y-72860001D01*
X54939989Y-65313599D02*
X54939989Y-72084989D01*
X56118588Y-64135000D02*
X54939989Y-65313599D01*
X59055000Y-64135000D02*
X56118588Y-64135000D01*
X66040000Y-72390000D02*
X74930000Y-81280000D01*
X66040000Y-71120000D02*
X66040000Y-72390000D01*
X57646370Y-104140000D02*
X56515000Y-104140000D01*
X62033002Y-104140000D02*
X57646370Y-104140000D01*
X65495001Y-100678001D02*
X62033002Y-104140000D01*
X65495001Y-99604999D02*
X65495001Y-100678001D01*
X66040000Y-99060000D02*
X65495001Y-99604999D01*
X64770000Y-43180000D02*
X64770000Y-43180000D01*
X74930000Y-53340000D02*
X64770000Y-43180000D01*
X64770000Y-43180000D02*
X64770000Y-31750000D01*
X64770000Y-72390000D02*
X57150000Y-64770000D01*
X55715001Y-70320001D02*
X56515000Y-71120000D01*
X55389999Y-69994999D02*
X55715001Y-70320001D01*
X55389999Y-65499999D02*
X55389999Y-69994999D01*
X56119998Y-64770000D02*
X55389999Y-65499999D01*
X57150000Y-64770000D02*
X56119998Y-64770000D01*
X64770000Y-73660000D02*
X74930000Y-83820000D01*
X64770000Y-72390000D02*
X64770000Y-73660000D01*
X55715001Y-100800001D02*
X56515000Y-101600000D01*
X55389999Y-100474999D02*
X55715001Y-100800001D01*
X55389999Y-98519999D02*
X55389999Y-100474999D01*
X55974999Y-97934999D02*
X55389999Y-98519999D01*
X62374999Y-97934999D02*
X55974999Y-97934999D01*
X64770000Y-100330000D02*
X62374999Y-97934999D01*
X113665000Y-31750000D02*
X113665000Y-58420000D01*
X63500000Y-33585685D02*
X63500000Y-33020000D01*
X63500000Y-43575002D02*
X63500000Y-43575002D01*
X74130001Y-54205003D02*
X63500000Y-43575002D01*
X74130001Y-55080001D02*
X74130001Y-54205003D01*
X74930000Y-55880000D02*
X74130001Y-55080001D01*
X63500000Y-43575002D02*
X63500000Y-33585685D01*
X61595000Y-73660000D02*
X56515000Y-68580000D01*
X63500000Y-73660000D02*
X61595000Y-73660000D01*
X63500000Y-74930000D02*
X74930000Y-86360000D01*
X63500000Y-73660000D02*
X63500000Y-74930000D01*
X59055000Y-101600000D02*
X56515000Y-99060000D01*
X63500000Y-101600000D02*
X59055000Y-101600000D01*
X112395000Y-63500000D02*
X112395000Y-33020000D01*
D19*
X49694999Y-88100001D02*
X48895000Y-88900000D01*
X50145001Y-87649999D02*
X49694999Y-88100001D01*
X50145001Y-60801371D02*
X50145001Y-87649999D01*
X48895000Y-59551370D02*
X50145001Y-60801371D01*
X48895000Y-58420000D02*
X48895000Y-59551370D01*
D20*
X140805001Y-27469999D02*
X141605000Y-26670000D01*
X139065000Y-29210000D02*
X140805001Y-27469999D01*
X139065000Y-47625000D02*
X139065000Y-29210000D01*
X141605000Y-50165000D02*
X139065000Y-47625000D01*
D19*
X48095001Y-89699999D02*
X48895000Y-88900000D01*
X47644999Y-90150001D02*
X48095001Y-89699999D01*
X47644999Y-119261369D02*
X47644999Y-90150001D01*
X47763630Y-119380000D02*
X47644999Y-119261369D01*
X48895000Y-119380000D02*
X47763630Y-119380000D01*
X150495000Y-64135000D02*
X146685000Y-60325000D01*
X166370000Y-64135000D02*
X150495000Y-64135000D01*
X127000000Y-25400000D02*
X127000000Y-35560000D01*
X146685000Y-60325000D02*
X146685000Y-26035000D01*
X146685000Y-26035000D02*
X143510000Y-22860000D01*
X143510000Y-22860000D02*
X129540000Y-22860000D01*
X129540000Y-22860000D02*
X127000000Y-25400000D01*
D20*
X72586998Y-90170000D02*
X75126998Y-92710000D01*
X62230000Y-90170000D02*
X72586998Y-90170000D01*
X75126998Y-92710000D02*
X108585000Y-92710000D01*
X108585000Y-92710000D02*
X108585000Y-92710000D01*
X126150001Y-79589999D02*
X127000000Y-78740000D01*
X125824999Y-79915001D02*
X126150001Y-79589999D01*
X120744999Y-79915001D02*
X125824999Y-79915001D01*
X112885001Y-87774999D02*
X120744999Y-79915001D01*
X83675001Y-87774999D02*
X112885001Y-87774999D01*
X82550000Y-88900000D02*
X83675001Y-87774999D01*
X123095001Y-82644999D02*
X121684999Y-84055001D01*
X125635001Y-81844001D02*
X124834003Y-82644999D01*
X125635001Y-80741409D02*
X125635001Y-81844001D01*
X121684999Y-84055001D02*
X121285000Y-84455000D01*
X126271411Y-80104999D02*
X125635001Y-80741409D01*
X124834003Y-82644999D02*
X123095001Y-82644999D01*
X127540001Y-80104999D02*
X126271411Y-80104999D01*
X129540000Y-78105000D02*
X127540001Y-80104999D01*
X129540000Y-68580000D02*
X129540000Y-78105000D01*
X133985000Y-29210000D02*
X130810000Y-32385000D01*
X130810000Y-32385000D02*
X130810000Y-53975000D01*
X130810000Y-53975000D02*
X130810000Y-53975000D01*
X133185001Y-32549999D02*
X133985000Y-31750000D01*
X131629990Y-34105010D02*
X133185001Y-32549999D01*
X131629990Y-52889990D02*
X131629990Y-34105010D01*
X133985000Y-55245000D02*
X131629990Y-52889990D01*
X137795000Y-76200000D02*
X137160000Y-76835000D01*
X137795000Y-71755000D02*
X137795000Y-76200000D01*
X137795000Y-64135000D02*
X137795000Y-71755000D01*
X141605000Y-60325000D02*
X137795000Y-64135000D01*
X139065000Y-73660000D02*
X142240000Y-76835000D01*
X139065000Y-71755000D02*
X139065000Y-73660000D01*
X139464999Y-71355001D02*
X139065000Y-71755000D01*
X139790001Y-71029999D02*
X139464999Y-71355001D01*
X140185003Y-71029999D02*
X139790001Y-71029999D01*
X142730001Y-68485001D02*
X140185003Y-71029999D01*
X142730001Y-58910001D02*
X142730001Y-68485001D01*
X141605000Y-57785000D02*
X142730001Y-58910001D01*
X125309999Y-54189999D02*
X124460000Y-53340000D01*
X125635001Y-54515001D02*
X125309999Y-54189999D01*
X127374003Y-54515001D02*
X125635001Y-54515001D01*
X128175001Y-55315999D02*
X127374003Y-54515001D01*
X128175001Y-57055001D02*
X128175001Y-55315999D01*
X133985000Y-62865000D02*
X128175001Y-57055001D01*
X146520001Y-76035001D02*
X147320000Y-76835000D01*
X142965001Y-72480001D02*
X146520001Y-76035001D01*
X141060001Y-72480001D02*
X142965001Y-72480001D01*
X140335000Y-71755000D02*
X141060001Y-72480001D01*
X140734999Y-71355001D02*
X140335000Y-71755000D01*
X143510000Y-68580000D02*
X140734999Y-71355001D01*
X143510000Y-57150000D02*
X143510000Y-68580000D01*
X141605000Y-55245000D02*
X143510000Y-57150000D01*
X145579999Y-83655001D02*
X144780000Y-84455000D01*
X145582819Y-83655001D02*
X145579999Y-83655001D01*
X151435010Y-77802810D02*
X145582819Y-83655001D01*
X151435011Y-76108599D02*
X151435010Y-77802810D01*
X145906402Y-70579990D02*
X151435011Y-76108599D01*
X142780010Y-70579990D02*
X145906402Y-70579990D01*
X141605000Y-71755000D02*
X142780010Y-70579990D01*
X155505685Y-71120000D02*
X154940000Y-71120000D01*
X166785000Y-71120000D02*
X155505685Y-71120000D01*
X171450000Y-75785000D02*
X166785000Y-71120000D01*
X171450000Y-76835000D02*
X171450000Y-75785000D01*
X150985001Y-77616409D02*
X146686410Y-81915000D01*
X150985001Y-76294999D02*
X150985001Y-77616409D01*
X145720001Y-71029999D02*
X150985001Y-76294999D01*
X142875000Y-71755000D02*
X143600001Y-71029999D01*
X143600001Y-71029999D02*
X145720001Y-71029999D01*
X142240000Y-81915000D02*
X139700000Y-84455000D01*
X146686410Y-81915000D02*
X142240000Y-81915000D01*
X135890000Y-43815000D02*
X133985000Y-41910000D01*
X137160000Y-43815000D02*
X135890000Y-43815000D01*
X154069999Y-71519999D02*
X153670000Y-71120000D01*
X154395001Y-71845001D02*
X154069999Y-71519999D01*
X161380001Y-71845001D02*
X154395001Y-71845001D01*
X166370000Y-76835000D02*
X161380001Y-71845001D01*
X152799999Y-71519999D02*
X152400000Y-71120000D01*
X153575011Y-72295011D02*
X152799999Y-71519999D01*
X156750011Y-72295011D02*
X153575011Y-72295011D01*
X161290000Y-76835000D02*
X156750011Y-72295011D01*
X151529999Y-71519999D02*
X151130000Y-71120000D01*
X155719999Y-75709999D02*
X151529999Y-71519999D01*
X156750001Y-75709999D02*
X155719999Y-75709999D01*
X157335001Y-76294999D02*
X156750001Y-75709999D01*
X157335001Y-83040001D02*
X157335001Y-76294999D01*
X158750000Y-84455000D02*
X157335001Y-83040001D01*
X157335001Y-83914999D02*
X154305000Y-80884998D01*
X157335001Y-84705003D02*
X157335001Y-83914999D01*
X158209999Y-85580001D02*
X157335001Y-84705003D01*
X161830001Y-85580001D02*
X158209999Y-85580001D01*
X163830000Y-84455000D02*
X162955002Y-84455000D01*
X162955002Y-84455000D02*
X161830001Y-85580001D01*
X154305000Y-75565000D02*
X149860000Y-71120000D01*
X154305000Y-80884998D02*
X154305000Y-75565000D01*
X156120009Y-86030011D02*
X153670000Y-83580002D01*
X166459991Y-86030011D02*
X156120009Y-86030011D01*
X168910000Y-84455000D02*
X168035002Y-84455000D01*
X168035002Y-84455000D02*
X166459991Y-86030011D01*
X153670000Y-76200000D02*
X148590000Y-71120000D01*
X153670000Y-83580002D02*
X153670000Y-76200000D01*
X148734999Y-76344999D02*
X148734999Y-79230001D01*
X144145000Y-71755000D02*
X148734999Y-76344999D01*
X148734999Y-79230001D02*
X147320000Y-80645000D01*
X137380000Y-80645000D02*
X134620000Y-83405000D01*
X134620000Y-83405000D02*
X134620000Y-84455000D01*
X147320000Y-80645000D02*
X137380000Y-80645000D01*
M02*
